linja insa luka.glyphspackage
{
glyphname = zero;
layers = (
{
background = {
anchors = (
{
name = center;
pos = (646,745);
},
{
name = top;
pos = (646,1490);
}
);
shapes = (
{
closed = 1;
nodes = (
(1333,-20,o),
(1524,259,o),
(1524,744,cs),
(1524,1227,o),
(1330,1510,o),
(1000,1510,cs),
(670,1510,o),
(476,1227,o),
(476,744,cs),
(476,258,o),
(668,-20,o),
(1000,-20,cs)
);
},
{
closed = 1;
nodes = (
(782,146,o),
(659,366,o),
(659,744,cs),
(659,1123,o),
(782,1345,o),
(1000,1345,cs),
(1218,1345,o),
(1341,1124,o),
(1341,744,cs),
(1341,366,o),
(1218,146,o),
(1000,146,cs)
);
}
);
};
layerId = m01;
name = Regular;
shapes = (
{
closed = 1;
nodes = (
(1247,41,o),
(1448,360,o),
(1448,742,cs,{
"Letterink-NibData" = {
MainAxisWidth = 110;
MinorAxisWidth = 105;
ValidForParentMainAxisWidth = 30;
ValidForParentMinorAxisWidth = 15;
};
"Letterink-NibStyleId" = 1;
}),
(1448,1124,o),
(1247,1423,o),
(995,1423,cs,{
"Letterink-NibData" = {
MainAxisWidth = 110;
MinorAxisWidth = 105;
ValidForParentMainAxisWidth = 30;
ValidForParentMinorAxisWidth = 15;
};
"Letterink-NibStyleId" = 1;
}),
(743,1423,o),
(556,1127,o),
(556,745,cs,{
"Letterink-NibData" = {
MainAxisWidth = 110;
MinorAxisWidth = 105;
ValidForParentMainAxisWidth = 30;
ValidForParentMinorAxisWidth = 15;
};
"Letterink-NibStyleId" = 1;
}),
(556,363,o),
(743,41,o),
(995,41,cs,{
"Letterink-NibData" = {
MainAxisWidth = 110;
MinorAxisWidth = 105;
ValidForParentMainAxisWidth = 30;
ValidForParentMinorAxisWidth = 15;
};
"Letterink-NibStyleId" = 1;
})
);
}
);
width = 2000;
}
);
unicode = 48;
}
{
glyphname = one;
layers = (
{
background = {
shapes = (
{
closed = 1;
nodes = (
(1178,0,l),
(1178,1490,l),
(1002,1490,l),
(630,1242,l),
(630,1058,l),
(992,1300,l),
(1002,1300,l),
(1002,0,l)
);
}
);
};
layerId = m01;
name = Regular;
shapes = (
{
closed = 0;
nodes = (
(658,1181,l,{
"Letterink-NibData" = {
MainAxisWidth = 110;
MinorAxisWidth = 105;
ValidForParentMainAxisWidth = 30;
ValidForParentMinorAxisWidth = 15;
};
"Letterink-NibStyleId" = 1;
}),
(1076,1432,l,{
"Letterink-NibData" = {
MainAxisWidth = 110;
MinorAxisWidth = 105;
ValidForParentMainAxisWidth = 30;
ValidForParentMinorAxisWidth = 15;
};
"Letterink-NibStyleId" = 1;
}),
(1096,55,l,{
"Letterink-NibData" = {
MainAxisWidth = 110;
MinorAxisWidth = 105;
ValidForParentMainAxisWidth = 30;
ValidForParentMinorAxisWidth = 15;
};
"Letterink-NibStyleId" = 1;
})
);
},
{
closed = 0;
nodes = (
(705,44,l,{
"Letterink-NibData" = {
MainAxisWidth = 110;
MinorAxisWidth = 105;
ValidForParentMainAxisWidth = 30;
ValidForParentMinorAxisWidth = 15;
};
"Letterink-NibStyleId" = 1;
}),
(1431,50,l,{
"Letterink-NibData" = {
MainAxisWidth = 110;
MinorAxisWidth = 105;
ValidForParentMainAxisWidth = 30;
ValidForParentMinorAxisWidth = 15;
};
"Letterink-NibStyleId" = 1;
})
);
}
);
width = 2000;
}
);
unicode = 49;
}
{
glyphname = two;
layers = (
{
anchors = (
{
name = cross;
pos = (697,634);
},
{
name = top;
pos = (624,1490);
}
);
background = {
anchors = (
{
name = cross;
pos = (697,634);
},
{
name = top;
pos = (624,1490);
}
);
shapes = (
{
closed = 1;
nodes = (
(1475,0,l),
(1475,167,l),
(788,167,l),
(788,179,l),
(1114,526,ls),
(1377,806,o),
(1450,933,o),
(1450,1094,cs),
(1450,1327,o),
(1261,1510,o),
(995,1510,cs),
(730,1510,o),
(530,1331,o),
(530,1067,c),
(712,1067,l),
(712,1235,o),
(820,1345,o),
(990,1345,cs),
(1149,1345,o),
(1270,1248,o),
(1270,1092,cs),
(1270,955,o),
(1186,853,o),
(1021,674,cs),
(526,137,l),
(526,0,l)
);
}
);
};
layerId = m01;
name = Regular;
shapes = (
{
closed = 0;
nodes = (
(631,1136,l,{
"Letterink-NibData" = {
MainAxisWidth = 110;
MinorAxisWidth = 105;
ValidForParentMainAxisWidth = 30;
ValidForParentMinorAxisWidth = 15;
};
"Letterink-NibStyleId" = 1;
}),
(657,1307,o),
(740,1437,o),
(1012,1426,c,{
"Letterink-NibData" = {
MainAxisWidth = 110;
MinorAxisWidth = 105;
ValidForParentMainAxisWidth = 30;
ValidForParentMinorAxisWidth = 15;
};
"Letterink-NibStyleId" = 1;
}),
(1201,1432,o),
(1359,1333,o),
(1378,1115,c,{
"Letterink-NibData" = {
MainAxisWidth = 110;
MinorAxisWidth = 105;
ValidForParentMainAxisWidth = 30;
ValidForParentMinorAxisWidth = 15;
};
"Letterink-NibStyleId" = 1;
}),
(1363,819,o),
(615,234,o),
(615,75,c,{
"Letterink-NibData" = {
MainAxisWidth = 110;
MinorAxisWidth = 105;
ValidForParentMainAxisWidth = 30;
ValidForParentMinorAxisWidth = 15;
};
"Letterink-NibStyleId" = 1;
}),
(1430,97,l,{
"Letterink-NibData" = {
MainAxisWidth = 110;
MinorAxisWidth = 105;
ValidForParentMainAxisWidth = 30;
ValidForParentMinorAxisWidth = 15;
};
"Letterink-NibStyleId" = 1;
})
);
}
);
width = 2000;
}
);
unicode = 50;
}
{
glyphname = three;
layers = (
{
background = {
shapes = (
{
closed = 1;
nodes = (
(1265,-20,o),
(1466,152,o),
(1467,396,cs),
(1466,567,o),
(1347,698,o),
(1181,754,c),
(1181,766,l),
(1332,811,o),
(1434,942,o),
(1435,1106,cs),
(1434,1343,o),
(1251,1510,o),
(987,1510,cs),
(729,1510,o),
(547,1351,o),
(547,1118,c),
(721,1118,l),
(721,1265,o),
(828,1353,o),
(983,1352,cs),
(1145,1353,o),
(1260,1257,o),
(1259,1102,cs),
(1260,945,o),
(1142,838,o),
(965,838,cs),
(881,838,l),
(881,672,l),
(965,672,ls),
(1148,672,o),
(1289,560,o),
(1289,396,cs),
(1289,238,o),
(1156,140,o),
(987,140,cs),
(827,140,o),
(718,226,o),
(719,372,c),
(533,372,l),
(532,134,o),
(711,-20,o),
(981,-20,cs)
);
}
);
};
layerId = m01;
name = Regular;
shapes = (
{
closed = 0;
nodes = (
(634,1178,l,{
"Letterink-NibData" = {
MainAxisWidth = 110;
MinorAxisWidth = 105;
ValidForParentMainAxisWidth = 30;
ValidForParentMinorAxisWidth = 15;
};
"Letterink-NibStyleId" = 1;
}),
(634,1468,o),
(1352,1527,o),
(1352,1177,c,{
"Letterink-NibData" = {
MainAxisWidth = 110;
MinorAxisWidth = 105;
ValidForParentMainAxisWidth = 30;
ValidForParentMinorAxisWidth = 15;
};
"Letterink-NibStyleId" = 1;
}),
(1352,877,o),
(1202,759,o),
(1012,775,c,{
"Letterink-NibData" = {
MainAxisWidth = 110;
MinorAxisWidth = 105;
ValidForParentMainAxisWidth = 30;
ValidForParentMinorAxisWidth = 15;
};
"Letterink-NibStyleId" = 1;
}),
(1203,727,o),
(1360,599,o),
(1377,367,c,{
"Letterink-NibData" = {
MainAxisWidth = 110;
MinorAxisWidth = 105;
ValidForParentMainAxisWidth = 30;
ValidForParentMinorAxisWidth = 15;
};
"Letterink-NibStyleId" = 1;
}),
(1377,124,o),
(1239,56,o),
(1025,54,c,{
"Letterink-NibData" = {
MainAxisWidth = 110;
MinorAxisWidth = 105;
ValidForParentMainAxisWidth = 30;
ValidForParentMinorAxisWidth = 15;
};
"Letterink-NibStyleId" = 1;
}),
(745,54,o),
(665,135,o),
(672,276,c,{
"Letterink-NibData" = {
MainAxisWidth = 110;
MinorAxisWidth = 105;
ValidForParentMainAxisWidth = 30;
ValidForParentMinorAxisWidth = 15;
};
"Letterink-NibStyleId" = 1;
})
);
}
);
width = 2000;
}
);
unicode = 51;
}
{
glyphname = five;
layers = (
{
background = {
shapes = (
{
closed = 1;
nodes = (
(1272,-20,o),
(1482,190,o),
(1482,476,cs),
(1482,764,o),
(1281,975,o),
(1008,975,cs),
(905,975,o),
(806,939,o),
(745,888,c),
(737,888,l),
(788,1323,l),
(1412,1323,l),
(1412,1490,l),
(628,1490,l),
(540,752,l),
(718,730,l),
(777,775,o),
(881,808,o),
(973,808,cs),
(1160,808,o),
(1296,665,o),
(1296,473,cs),
(1296,284,o),
(1165,147,o),
(985,147,cs),
(835,147,o),
(713,243,o),
(701,376,c),
(517,376,l),
(527,148,o),
(723,-20,o),
(985,-20,cs)
);
}
);
};
guides = (
{
angle = 90;
pos = (1436,1656);
}
);
layerId = m01;
name = Regular;
shapes = (
{
closed = 0;
nodes = (
(1347,1419,l,{
"Letterink-NibData" = {
MainAxisWidth = 110;
MinorAxisWidth = 105;
ValidForParentMainAxisWidth = 30;
ValidForParentMinorAxisWidth = 15;
};
"Letterink-NibStyleId" = 1;
}),
(716,1430,l,{
"Letterink-NibData" = {
MainAxisWidth = 110;
MinorAxisWidth = 105;
ValidForParentMainAxisWidth = 30;
ValidForParentMinorAxisWidth = 15;
};
"Letterink-NibStyleId" = 1;
}),
(648,812,l,{
"Letterink-NibData" = {
MainAxisWidth = 110;
MinorAxisWidth = 105;
ValidForParentMainAxisWidth = 30;
ValidForParentMinorAxisWidth = 15;
};
"Letterink-NibStyleId" = 1;
}),
(978,942,o),
(1347,874,o),
(1392,492,c,{
"Letterink-NibData" = {
MainAxisWidth = 110;
MinorAxisWidth = 105;
ValidForParentMainAxisWidth = 30;
ValidForParentMinorAxisWidth = 15;
};
"Letterink-NibStyleId" = 1;
}),
(1392,214,o),
(1258,72,o),
(1017,59,c,{
"Letterink-NibData" = {
MainAxisWidth = 110;
MinorAxisWidth = 105;
ValidForParentMainAxisWidth = 30;
ValidForParentMinorAxisWidth = 15;
};
"Letterink-NibStyleId" = 1;
}),
(797,48,o),
(693,152,o),
(631,299,c,{
"Letterink-NibData" = {
MainAxisWidth = 110;
MinorAxisWidth = 105;
ValidForParentMainAxisWidth = 30;
ValidForParentMinorAxisWidth = 15;
};
"Letterink-NibStyleId" = 1;
})
);
}
);
width = 2000;
}
);
unicode = 53;
}
{
glyphname = six;
layers = (
{
background = {
shapes = (
{
closed = 1;
nodes = (
(1315,-20,o),
(1513,203,o),
(1513,481,cs),
(1513,769,o),
(1301,974,o),
(1046,974,cs),
(891,974,o),
(759,900,o),
(679,776,c),
(667,776,l),
(667,1134,o),
(805,1342,o),
(1034,1342,cs),
(1189,1342,o),
(1282,1244,o),
(1315,1115,c),
(1501,1115,l),
(1465,1349,o),
(1284,1510,o),
(1034,1510,cs),
(696,1510,o),
(487,1212,o),
(487,688,cs),
(487,139,o),
(762,-20,o),
(1011,-20,cs)
);
},
{
closed = 1;
nodes = (
(828,147,o),
(694,303,o),
(694,479,cs),
(694,653,o),
(835,809,o),
(1016,809,cs),
(1196,809,o),
(1329,663,o),
(1329,481,cs),
(1329,295,o),
(1190,147,o),
(1011,147,cs)
);
}
);
};
layerId = m01;
name = Regular;
shapes = (
{
closed = 0;
nodes = (
(1409,1132,l,{
"Letterink-NibData" = {
MainAxisWidth = 110;
MinorAxisWidth = 105;
ValidForParentMainAxisWidth = 30;
ValidForParentMinorAxisWidth = 15;
};
"Letterink-NibStyleId" = 1;
}),
(1362,1319,o),
(1255,1437,o),
(1049,1443,c,{
"Letterink-NibData" = {
MainAxisWidth = 110;
MinorAxisWidth = 105;
ValidForParentMainAxisWidth = 30;
ValidForParentMinorAxisWidth = 15;
};
"Letterink-NibStyleId" = 1;
}),
(717,1439,o),
(609,1174,o),
(568,834,c,{
"Letterink-NibData" = {
MainAxisWidth = 110;
MinorAxisWidth = 105;
ValidForParentMainAxisWidth = 30;
ValidForParentMinorAxisWidth = 15;
};
"Letterink-NibStyleId" = 1;
}),
(570,308,o),
(752,91,o),
(1035,47,c,{
"Letterink-NibData" = {
MainAxisWidth = 110;
MinorAxisWidth = 105;
ValidForParentMainAxisWidth = 30;
ValidForParentMinorAxisWidth = 15;
};
"Letterink-NibStyleId" = 1;
}),
(1307,45,o),
(1430,198,o),
(1436,473,c,{
"Letterink-NibData" = {
MainAxisWidth = 110;
MinorAxisWidth = 105;
ValidForParentMainAxisWidth = 30;
ValidForParentMinorAxisWidth = 15;
};
"Letterink-NibStyleId" = 1;
}),
(1408,777,o),
(1274,898,o),
(1066,889,c,{
"Letterink-NibData" = {
MainAxisWidth = 110;
MinorAxisWidth = 105;
ValidForParentMainAxisWidth = 30;
ValidForParentMinorAxisWidth = 15;
};
"Letterink-NibStyleId" = 1;
}),
(880,895,o),
(563,745,o),
(593,482,c,{
"Letterink-NibData" = {
MainAxisWidth = 110;
MinorAxisWidth = 105;
ValidForParentMainAxisWidth = 30;
ValidForParentMinorAxisWidth = 15;
};
"Letterink-NibStyleId" = 1;
})
);
}
);
width = 2000;
}
);
unicode = 54;
}
{
glyphname = seven;
layers = (
{
background = {
shapes = (
{
closed = 1;
nodes = (
(820,0,l),
(1481,1313,l),
(1481,1490,l),
(518,1490,l),
(518,1323,l),
(1282,1323,l),
(1282,1311,l),
(620,0,l)
);
}
);
};
layerId = m01;
name = Regular;
shapes = (
{
closed = 0;
nodes = (
(564,1400,l,{
"Letterink-NibData" = {
MainAxisWidth = 110;
MinorAxisWidth = 105;
ValidForParentMainAxisWidth = 30;
ValidForParentMinorAxisWidth = 15;
};
"Letterink-NibStyleId" = 1;
}),
(1419,1398,l,{
"Letterink-NibData" = {
MainAxisWidth = 110;
MinorAxisWidth = 105;
ValidForParentMainAxisWidth = 30;
ValidForParentMinorAxisWidth = 15;
};
"Letterink-NibStyleId" = 1;
}),
(1100,983,o),
(898,526,o),
(762,43,c,{
"Letterink-NibData" = {
MainAxisWidth = 110;
MinorAxisWidth = 105;
ValidForParentMainAxisWidth = 30;
ValidForParentMinorAxisWidth = 15;
};
"Letterink-NibStyleId" = 1;
})
);
}
);
width = 2000;
}
);
metricLeft = T;
metricRight = T;
unicode = 55;
}
{
glyphname = eight;
layers = (
{
background = {
shapes = (
{
closed = 1;
nodes = (
(1299,-20,o),
(1511,153,o),
(1511,396,cs),
(1511,584,o),
(1382,744,o),
(1220,774,c),
(1220,782,l),
(1361,819,o),
(1455,956,o),
(1455,1114,cs),
(1455,1341,o),
(1260,1510,o),
(999,1510,cs),
(734,1510,o),
(542,1341,o),
(542,1114,cs),
(542,956,o),
(634,819,o),
(779,782,c),
(779,774,l),
(612,744,o),
(488,584,o),
(488,396,cs),
(488,153,o),
(696,-20,o),
(999,-20,cs)
);
},
{
closed = 1;
nodes = (
(798,145,o),
(675,248,o),
(675,406,cs),
(675,571,o),
(811,689,o),
(999,689,cs),
(1183,689,o),
(1321,571,o),
(1321,406,cs),
(1321,248,o),
(1196,145,o),
(999,145,cs)
);
},
{
closed = 1;
nodes = (
(838,848,o),
(726,949,o),
(726,1100,cs),
(726,1249,o),
(834,1346,o),
(999,1346,cs),
(1161,1346,o),
(1271,1249,o),
(1271,1100,cs),
(1271,949,o),
(1156,848,o),
(999,848,cs)
);
}
);
};
layerId = m01;
name = Regular;
shapes = (
{
closed = 1;
nodes = (
(741,1444,o),
(620,1323,o),
(624,1096,c,{
"Letterink-NibData" = {
MainAxisWidth = 110;
MinorAxisWidth = 105;
ValidForParentMainAxisWidth = 30;
ValidForParentMinorAxisWidth = 15;
};
"Letterink-NibStyleId" = 1;
}),
(654,890,o),
(815,778,o),
(998,767,c,{
"Letterink-NibData" = {
MainAxisWidth = 110;
MinorAxisWidth = 105;
ValidForParentMainAxisWidth = 30;
ValidForParentMinorAxisWidth = 15;
};
"Letterink-NibStyleId" = 1;
}),
(1242,759,o),
(1413,637,o),
(1416,425,c,{
"Letterink-NibData" = {
MainAxisWidth = 110;
MinorAxisWidth = 105;
ValidForParentMainAxisWidth = 30;
ValidForParentMinorAxisWidth = 15;
};
"Letterink-NibStyleId" = 1;
}),
(1387,139,o),
(1199,72,o),
(978,69,c,{
"Letterink-NibData" = {
MainAxisWidth = 110;
MinorAxisWidth = 105;
ValidForParentMainAxisWidth = 30;
ValidForParentMinorAxisWidth = 15;
};
"Letterink-NibStyleId" = 1;
}),
(749,90,o),
(577,170,o),
(572,425,c,{
"Letterink-NibData" = {
MainAxisWidth = 110;
MinorAxisWidth = 105;
ValidForParentMainAxisWidth = 30;
ValidForParentMinorAxisWidth = 15;
};
"Letterink-NibStyleId" = 1;
}),
(572,612,o),
(822,761,o),
(958,759,c,{
"Letterink-NibData" = {
MainAxisWidth = 110;
MinorAxisWidth = 105;
ValidForParentMainAxisWidth = 30;
ValidForParentMinorAxisWidth = 15;
};
"Letterink-NibStyleId" = 1;
}),
(1265,774,o),
(1366,920,o),
(1384,1121,c,{
"Letterink-NibData" = {
MainAxisWidth = 110;
MinorAxisWidth = 105;
ValidForParentMainAxisWidth = 30;
ValidForParentMinorAxisWidth = 15;
};
"Letterink-NibStyleId" = 1;
}),
(1373,1334,o),
(1195,1458,o),
(1006,1441,c,{
"Letterink-NibData" = {
MainAxisWidth = 110;
MinorAxisWidth = 105;
ValidForParentMainAxisWidth = 30;
ValidForParentMinorAxisWidth = 15;
};
"Letterink-NibStyleId" = 1;
})
);
}
);
width = 2000;
}
);
note = "essentially two conjoined \"three\" glyphs";
unicode = 56;
}
{
glyphname = nine;
layers = (
{
background = {
shapes = (
{
closed = 1;
nodes = (
(1305,-20,o),
(1513,277,o),
(1513,804,cs),
(1513,1352,o),
(1238,1506,o),
(993,1510,cs),
(687,1515,o),
(487,1288,o),
(487,1010,cs),
(487,723,o),
(699,517,o),
(956,517,cs),
(1112,517,o),
(1243,594,o),
(1323,716,c),
(1335,716,l),
(1335,355,o),
(1195,148,o),
(968,148,cs),
(811,148,o),
(718,247,o),
(687,379,c),
(499,379,l),
(534,141,o),
(715,-20,o),
(968,-20,cs)
);
},
{
closed = 1;
nodes = (
(804,683,o),
(673,828,o),
(673,1011,cs),
(673,1195,o),
(810,1343,o),
(990,1343,cs),
(1173,1343,o),
(1308,1186,o),
(1308,1015,cs),
(1308,840,o),
(1165,683,o),
(984,683,cs)
);
}
);
};
layerId = m01;
name = Regular;
shapes = (
{
closed = 0;
nodes = (
(619,305,l,{
"Letterink-NibData" = {
MainAxisWidth = 110;
MinorAxisWidth = 105;
ValidForParentMainAxisWidth = 30;
ValidForParentMinorAxisWidth = 15;
};
"Letterink-NibStyleId" = 1;
}),
(725,-154,o),
(1365,30,o),
(1416,671,c,{
"Letterink-NibData" = {
MainAxisWidth = 110;
MinorAxisWidth = 105;
ValidForParentMainAxisWidth = 30;
ValidForParentMinorAxisWidth = 15;
};
"Letterink-NibStyleId" = 1;
}),
(1391,1225,o),
(1365,1432,o),
(1003,1432,cs,{
"Letterink-NibData" = {
MainAxisWidth = 110;
MinorAxisWidth = 105;
ValidForParentMainAxisWidth = 30;
ValidForParentMinorAxisWidth = 15;
};
"Letterink-NibStyleId" = 1;
}),
(690,1432,o),
(583,1231,o),
(583,998,cs,{
"Letterink-NibData" = {
MainAxisWidth = 110;
MinorAxisWidth = 105;
ValidForParentMainAxisWidth = 30;
ValidForParentMinorAxisWidth = 15;
};
"Letterink-NibStyleId" = 1;
}),
(583,689,o),
(755,597,o),
(977,597,c,{
"Letterink-NibData" = {
MainAxisWidth = 110;
MinorAxisWidth = 105;
ValidForParentMainAxisWidth = 30;
ValidForParentMinorAxisWidth = 15;
};
"Letterink-NibStyleId" = 1;
}),
(1194,590,o),
(1355,745,o),
(1393,943,c,{
"Letterink-NibData" = {
MainAxisWidth = 110;
MinorAxisWidth = 105;
ValidForParentMainAxisWidth = 30;
ValidForParentMinorAxisWidth = 15;
};
"Letterink-NibStyleId" = 1;
})
);
}
);
width = 2000;
}
);
note = "six mirrored";
unicode = 57;
}
{
glyphname = cornerbracketleft;
layers = (
{
background = {
shapes = (
{
closed = 1;
nodes = (
(1435,746,l),
(1435,1499,l),
(2000,1499,l),
(2000,1674,l),
(1249,1674,l),
(1249,746,l)
);
}
);
};
layerId = m01;
shapes = (
{
closed = 0;
nodes = (
(1339,576,l,{
"Letterink-NibData" = {
MainAxisWidth = 110;
MinorAxisWidth = 105;
ValidForParentMainAxisWidth = 30;
ValidForParentMinorAxisWidth = 15;
};
"Letterink-NibStyleId" = 1;
}),
(1320,817,o),
(1318,1289,o),
(1341,1604,c,{
"Letterink-NibData" = {
MainAxisWidth = 110;
MinorAxisWidth = 105;
ValidForParentMainAxisWidth = 30;
ValidForParentMinorAxisWidth = 15;
};
"Letterink-NibStyleId" = 1;
}),
(1565,1638,o),
(1775,1631,o),
(1975,1602,c,{
"Letterink-NibData" = {
MainAxisWidth = 110;
MinorAxisWidth = 105;
ValidForParentMainAxisWidth = 30;
ValidForParentMinorAxisWidth = 15;
};
"Letterink-NibStyleId" = 1;
})
);
}
);
width = 2000;
}
);
script = han;
unicode = 12300;
}
{
glyphname = cornerbracketright;
layers = (
{
background = {
shapes = (
{
closed = 1;
nodes = (
(751,-184,l),
(751,744,l),
(565,744,l),
(565,-9,l),
(0,-9,l),
(0,-184,l)
);
}
);
};
layerId = m01;
shapes = (
{
closed = 0;
nodes = (
(651,1011,l,{
"Letterink-NibData" = {
MainAxisWidth = 110;
MinorAxisWidth = 105;
ValidForParentMainAxisWidth = 30;
ValidForParentMinorAxisWidth = 15;
};
"Letterink-NibStyleId" = 1;
}),
(693,616,o),
(706,250,o),
(689,-86,c,{
"Letterink-NibData" = {
MainAxisWidth = 110;
MinorAxisWidth = 105;
ValidForParentMainAxisWidth = 30;
ValidForParentMinorAxisWidth = 15;
};
"Letterink-NibStyleId" = 1;
}),
(464,-146,o),
(255,-141,o),
(48,-124,c,{
"Letterink-NibData" = {
MainAxisWidth = 110;
MinorAxisWidth = 105;
ValidForParentMainAxisWidth = 30;
ValidForParentMinorAxisWidth = 15;
};
"Letterink-NibStyleId" = 1;
})
);
}
);
width = 2000;
}
);
script = han;
unicode = 12301;
}
{
glyphname = cornerbracketleft.vert;
layers = (
{
background = {
shapes = (
{
closed = 1;
nodes = (
(2000,-184,l),
(2000,567,l),
(1072,567,l),
(1072,381,l),
(1825,381,l),
(1825,-184,l)
);
}
);
};
layerId = m01;
shapes = (
{
closed = 0;
nodes = (
(835,380,l,{
"Letterink-NibData" = {
MainAxisWidth = 110;
MinorAxisWidth = 105;
ValidForParentMainAxisWidth = 30;
ValidForParentMinorAxisWidth = 15;
};
"Letterink-NibStyleId" = 1;
}),
(1184,424,o),
(1532,441,o),
(1877,396,c,{
"Letterink-NibData" = {
MainAxisWidth = 110;
MinorAxisWidth = 105;
ValidForParentMainAxisWidth = 30;
ValidForParentMinorAxisWidth = 15;
};
"Letterink-NibStyleId" = 1;
}),
(1913,178,o),
(1910,-22,o),
(1893,-214,c,{
"Letterink-NibData" = {
MainAxisWidth = 110;
MinorAxisWidth = 105;
ValidForParentMainAxisWidth = 30;
ValidForParentMinorAxisWidth = 15;
};
"Letterink-NibStyleId" = 1;
})
);
}
);
width = 2000;
}
);
script = han;
unicode = 65089;
}
{
glyphname = cornerbracketright.vert;
layers = (
{
background = {
shapes = (
{
closed = 1;
nodes = (
(928,923,l),
(928,1109,l),
(175,1109,l),
(175,1674,l),
(0,1674,l),
(0,923,l)
);
}
);
};
layerId = m01;
shapes = (
{
closed = 0;
nodes = (
(1279,1125,l,{
"Letterink-NibData" = {
MainAxisWidth = 110;
MinorAxisWidth = 105;
ValidForParentMainAxisWidth = 30;
ValidForParentMinorAxisWidth = 15;
};
"Letterink-NibStyleId" = 1;
}),
(886,1115,o),
(488,1086,o),
(118,1151,c,{
"Letterink-NibData" = {
MainAxisWidth = 110;
MinorAxisWidth = 105;
ValidForParentMainAxisWidth = 30;
ValidForParentMinorAxisWidth = 15;
};
"Letterink-NibStyleId" = 1;
}),
(108,1249,o),
(107,1431,o),
(107,1636,c,{
"Letterink-NibData" = {
MainAxisWidth = 110;
MinorAxisWidth = 105;
ValidForParentMainAxisWidth = 30;
ValidForParentMinorAxisWidth = 15;
};
"Letterink-NibStyleId" = 1;
})
);
}
);
width = 2000;
}
);
script = han;
unicode = 65090;
}
{
glyphname = "a-sp";
layers = (
{
background = {
shapes = (
{
closed = 1;
nodes = (
(906,1490,l),
(906,816,l),
(1096,816,l),
(1096,1490,l)
);
},
{
closed = 1;
nodes = (
(1076,-8,o),
(1141,52,o),
(1168,111,c),
(1177,111,l),
(1178,0,l),
(1348,0,l),
(1347,619,l),
(1175,619,l),
(1176,499,l),
(1169,499,l),
(1143,562,o),
(1077,625,o),
(949,625,cs),
(792,625,o),
(654,530,o),
(653,309,cs),
(653,100,o),
(782,-8,o),
(949,-8,cs)
);
},
{
closed = 1;
nodes = (
(890,124,o),
(829,202,o),
(830,311,cs),
(831,414,o),
(888,492,o),
(1005,492,cs),
(1116,492,o),
(1177,419,o),
(1177,309,cs),
(1178,199,o),
(1116,124,o),
(1005,124,cs)
);
}
);
};
layerId = m01;
shapes = (
{
closed = 0;
nodes = (
(1004,1495,l,{
"Letterink-NibData" = {
MainAxisWidth = 110;
MinorAxisWidth = 105;
ValidForParentMainAxisWidth = 30;
ValidForParentMinorAxisWidth = 15;
};
"Letterink-NibStyleId" = 1;
}),
(967,1312,o),
(969,981,o),
(1004,815,c,{
"Letterink-NibData" = {
MainAxisWidth = 110;
MinorAxisWidth = 105;
ValidForParentMainAxisWidth = 30;
ValidForParentMinorAxisWidth = 15;
};
"Letterink-NibStyleId" = 1;
})
);
},
{
closed = 1;
nodes = (
(1045,688,o),
(805,490,cs,{
"Letterink-NibData" = {
MainAxisWidth = 110;
MinorAxisWidth = 105;
ValidForParentMainAxisWidth = 30;
ValidForParentMinorAxisWidth = 15;
};
"Letterink-NibStyleId" = 1;
}),
(534,268,o),
(855,-116,o),
(1105,130,cs,{
"Letterink-NibData" = {
MainAxisWidth = 110;
MinorAxisWidth = 105;
ValidForParentMainAxisWidth = 30;
ValidForParentMinorAxisWidth = 15;
};
"Letterink-NibStyleId" = 1;
}),
(1327,348,o)
);
},
{
closed = 0;
nodes = (
(1259,583,l,{
"Letterink-NibData" = {
MainAxisWidth = 110;
MinorAxisWidth = 105;
ValidForParentMainAxisWidth = 30;
ValidForParentMinorAxisWidth = 15;
};
"Letterink-NibStyleId" = 1;
}),
(1196,496,o),
(1214,42,o),
(1242,6,c,{
"Letterink-NibData" = {
MainAxisWidth = 110;
MinorAxisWidth = 105;
ValidForParentMainAxisWidth = 30;
ValidForParentMinorAxisWidth = 15;
};
"Letterink-NibStyleId" = 1;
})
);
}
);
width = 2000;
}
);
unicode = 989440;
}
{
glyphname = "akesi-sp";
layers = (
{
background = {
shapes = (
{
closed = 1;
nodes = (
(857,152,o),
(829,226,o),
(829,642,cs),
(829,1063,o),
(861,1158,o),
(1000,1158,cs),
(1138,1158,o),
(1171,1063,o),
(1171,642,cs),
(1171,226,o),
(1142,152,o),
(1000,152,cs)
);
},
{
closed = 1;
nodes = (
(1271,-24,o),
(1356,195,o),
(1356,642,cs),
(1356,1091,o),
(1271,1334,o),
(1000,1334,cs),
(727,1334,o),
(644,1091,o),
(644,642,cs),
(644,195,o),
(727,-24,o),
(1000,-24,cs)
);
},
{
closed = 1;
nodes = (
(450,968,l),
(450,792,l),
(1550,792,l),
(1550,968,l)
);
},
{
closed = 1;
nodes = (
(450,489,l),
(450,313,l),
(1550,313,l),
(1550,489,l)
);
},
{
closed = 1;
nodes = (
(717,1342,o),
(789,1409,o),
(789,1492,cs),
(789,1575,o),
(717,1642,o),
(630,1642,cs),
(544,1642,o),
(472,1575,o),
(472,1492,cs),
(472,1409,o),
(544,1342,o),
(630,1342,cs)
);
},
{
closed = 1;
nodes = (
(1480,1342,o),
(1552,1409,o),
(1552,1492,cs),
(1552,1575,o),
(1480,1642,o),
(1393,1642,cs),
(1307,1642,o),
(1235,1575,o),
(1235,1492,cs),
(1235,1409,o),
(1307,1342,o),
(1393,1342,cs)
);
}
);
};
layerId = m01;
shapes = (
{
closed = 1;
nodes = (
(1252,-153,o),
(1252,650,c,{
"Letterink-NibData" = {
MainAxisWidth = 110;
MinorAxisWidth = 105;
ValidForParentMainAxisWidth = 30;
ValidForParentMinorAxisWidth = 15;
};
"Letterink-NibStyleId" = 1;
}),
(1252,1453,o),
(701,1453,o),
(701,650,c,{
"Letterink-NibData" = {
MainAxisWidth = 110;
MinorAxisWidth = 105;
ValidForParentMainAxisWidth = 30;
ValidForParentMinorAxisWidth = 15;
};
"Letterink-NibStyleId" = 1;
}),
(701,-153,o)
);
},
{
closed = 0;
nodes = (
(477,866,l,{
"Letterink-NibData" = {
MainAxisWidth = 110;
MinorAxisWidth = 105;
ValidForParentMainAxisWidth = 30;
ValidForParentMinorAxisWidth = 15;
};
"Letterink-NibStyleId" = 1;
}),
(655,888,o),
(820,898,o),
(998,900,cs,{
"Letterink-NibData" = {
MainAxisWidth = 110;
MinorAxisWidth = 105;
ValidForParentMainAxisWidth = 30;
ValidForParentMinorAxisWidth = 15;
};
"Letterink-NibStyleId" = 1;
}),
(1151,902,o),
(1315,898,o),
(1507,891,cs,{
"Letterink-NibData" = {
MainAxisWidth = 110;
MinorAxisWidth = 105;
ValidForParentMainAxisWidth = 30;
ValidForParentMinorAxisWidth = 15;
};
"Letterink-NibStyleId" = 1;
})
);
},
{
closed = 0;
nodes = (
(469,401,l,{
"Letterink-NibData" = {
MainAxisWidth = 110;
MinorAxisWidth = 105;
ValidForParentMainAxisWidth = 30;
ValidForParentMinorAxisWidth = 15;
};
"Letterink-NibStyleId" = 1;
}),
(644,417,o),
(821,426,o),
(1000,426,cs,{
"Letterink-NibData" = {
MainAxisWidth = 110;
MinorAxisWidth = 105;
ValidForParentMainAxisWidth = 30;
ValidForParentMinorAxisWidth = 15;
};
"Letterink-NibStyleId" = 1;
}),
(1162,426,o),
(1326,418,o),
(1492,402,c,{
"Letterink-NibData" = {
MainAxisWidth = 110;
MinorAxisWidth = 105;
ValidForParentMainAxisWidth = 30;
ValidForParentMinorAxisWidth = 15;
};
"Letterink-NibStyleId" = 1;
})
);
},
{
closed = 0;
nodes = (
(589,1535,l,{
"Letterink-NibData" = {
MainAxisWidth = 110;
MinorAxisWidth = 105;
ValidForParentMainAxisWidth = 30;
ValidForParentMinorAxisWidth = 15;
};
"Letterink-NibStyleId" = 1;
}),
(618,1447,l,{
"Letterink-NibData" = {
MainAxisWidth = 110;
MinorAxisWidth = 105;
ValidForParentMainAxisWidth = 30;
ValidForParentMinorAxisWidth = 15;
};
"Letterink-NibStyleId" = 1;
})
);
},
{
closed = 0;
nodes = (
(1360,1523,l,{
"Letterink-NibData" = {
MainAxisWidth = 110;
MinorAxisWidth = 105;
ValidForParentMainAxisWidth = 30;
ValidForParentMinorAxisWidth = 15;
};
"Letterink-NibStyleId" = 1;
}),
(1340,1447,l,{
"Letterink-NibData" = {
MainAxisWidth = 110;
MinorAxisWidth = 105;
ValidForParentMainAxisWidth = 30;
ValidForParentMinorAxisWidth = 15;
};
"Letterink-NibStyleId" = 1;
})
);
}
);
width = 2000;
}
);
unicode = 989441;
}
{
glyphname = "ala-sp";
layers = (
{
background = {
shapes = (
{
closed = 1;
nodes = (
(574,0,l),
(837,378,ls),
(924,503,o),
(961,561,o),
(1021,680,c),
(980,680,l),
(1041,556,o),
(1076,501,o),
(1161,378,cs),
(1422,0,l),
(1641,0,l),
(1064,840,l),
(1064,700,l),
(1613,1490,l),
(1398,1490,l),
(1179,1174,ls),
(1082,1034,o),
(1048,978,o),
(985,852,c),
(1018,852,l),
(954,980,o),
(922,1033,o),
(826,1174,cs),
(611,1490,l),
(391,1490,l),
(941,692,l),
(941,833,l),
(359,0,l)
);
}
);
};
layerId = m01;
shapes = (
{
closed = 0;
nodes = (
(532,1452,l,{
"Letterink-NibData" = {
MainAxisWidth = 110;
MinorAxisWidth = 105;
ValidForParentMainAxisWidth = 30;
ValidForParentMinorAxisWidth = 15;
};
"Letterink-NibStyleId" = 1;
}),
(868,1013,o),
(1177,537,o),
(1465,31,c,{
"Letterink-NibData" = {
MainAxisWidth = 110;
MinorAxisWidth = 105;
ValidForParentMainAxisWidth = 30;
ValidForParentMinorAxisWidth = 15;
};
"Letterink-NibStyleId" = 1;
})
);
},
{
closed = 0;
nodes = (
(1457,1481,l,{
"Letterink-NibData" = {
MainAxisWidth = 110;
MinorAxisWidth = 105;
ValidForParentMainAxisWidth = 30;
ValidForParentMinorAxisWidth = 15;
};
"Letterink-NibStyleId" = 1;
}),
(1091,1002,o),
(768,509,o),
(453,12,c,{
"Letterink-NibData" = {
MainAxisWidth = 110;
MinorAxisWidth = 105;
ValidForParentMainAxisWidth = 30;
ValidForParentMinorAxisWidth = 15;
};
"Letterink-NibStyleId" = 1;
})
);
}
);
width = 2000;
}
);
unicode = 989442;
}
{
glyphname = "alasa-sp";
layers = (
{
background = {
shapes = (
{
closed = 1;
nodes = (
(447,0,l),
(632,0,l),
(972,0,o),
(1226,243,o),
(1226,728,c),
(1226,1236,o),
(972,1490,o),
(632,1490,c),
(446,1490,l)
);
},
{
closed = 1;
nodes = (
(632,1315,l),
(848,1315,o),
(1040,1119,o),
(1040,728,c),
(1040,359,o),
(848,175,o),
(632,175,c)
);
},
{
closed = 1;
nodes = (
(1812,728,l),
(1416,1124,l),
(1300,1008,l),
(1591,779,l),
(1508,796,o),
(1425,811,o),
(1342,811,cs),
(188,811,l),
(188,645,l),
(1342,645,ls),
(1425,645,o),
(1508,660,o),
(1591,677,c),
(1300,448,l),
(1416,332,l)
);
}
);
};
layerId = m01;
shapes = (
{
closed = 0;
nodes = (
(517,1393,l,{
"Letterink-NibData" = {
MainAxisWidth = 110;
MinorAxisWidth = 105;
ValidForParentMainAxisWidth = 30;
ValidForParentMinorAxisWidth = 15;
};
"Letterink-NibStyleId" = 1;
}),
(488,958,o),
(486,524,o),
(510,89,c,{
"Letterink-NibData" = {
MainAxisWidth = 110;
MinorAxisWidth = 105;
ValidForParentMainAxisWidth = 30;
ValidForParentMinorAxisWidth = 15;
};
"Letterink-NibStyleId" = 1;
}),
(746,89,o),
(1086,36,o),
(1104,715,cs,{
"Letterink-NibData" = {
MainAxisWidth = 110;
MinorAxisWidth = 105;
ValidForParentMainAxisWidth = 30;
ValidForParentMinorAxisWidth = 15;
};
"Letterink-NibStyleId" = 1;
}),
(1122,1394,o),
(614,1416,o),
(546,1416,cs,{
"Letterink-NibData" = {
MainAxisWidth = 110;
MinorAxisWidth = 105;
ValidForParentMainAxisWidth = 30;
ValidForParentMinorAxisWidth = 15;
};
"Letterink-NibStyleId" = 1;
})
);
},
{
closed = 0;
nodes = (
(242,726,l,{
"Letterink-NibData" = {
MainAxisWidth = 110;
MinorAxisWidth = 105;
ValidForParentMainAxisWidth = 30;
ValidForParentMinorAxisWidth = 15;
};
"Letterink-NibStyleId" = 1;
}),
(730,755,o),
(1173,744,o),
(1661,726,c,{
"Letterink-NibData" = {
MainAxisWidth = 110;
MinorAxisWidth = 105;
ValidForParentMainAxisWidth = 30;
ValidForParentMinorAxisWidth = 15;
};
"Letterink-NibStyleId" = 1;
})
);
},
{
closed = 0;
nodes = (
(1353,1041,l,{
"Letterink-NibData" = {
MainAxisWidth = 110;
MinorAxisWidth = 105;
ValidForParentMainAxisWidth = 30;
ValidForParentMinorAxisWidth = 15;
};
"Letterink-NibStyleId" = 1;
}),
(1733,728,l,{
"Letterink-NibData" = {
MainAxisWidth = 110;
MinorAxisWidth = 105;
ValidForParentMainAxisWidth = 30;
ValidForParentMinorAxisWidth = 15;
};
"Letterink-NibStyleId" = 1;
}),
(1388,420,l,{
"Letterink-NibData" = {
MainAxisWidth = 110;
MinorAxisWidth = 105;
ValidForParentMainAxisWidth = 30;
ValidForParentMinorAxisWidth = 15;
};
"Letterink-NibStyleId" = 1;
})
);
}
);
width = 2000;
}
);
unicode = 989443;
}
{
glyphname = "anpa-sp";
layers = (
{
background = {
shapes = (
{
closed = 1;
nodes = (
(1098,78,o),
(1170,145,o),
(1170,228,cs),
(1170,311,o),
(1098,378,o),
(1011,378,cs),
(925,378,o),
(853,311,o),
(853,228,cs),
(853,145,o),
(925,78,o),
(1011,78,cs)
);
},
{
closed = 1;
nodes = (
(1405,1034,l),
(1405,631,l),
(594,631,l),
(594,1034,l),
(408,1034,l),
(408,456,l),
(1591,456,l),
(1591,1034,l)
);
}
);
};
layerId = m01;
shapes = (
{
closed = 0;
nodes = (
(489,1017,l,{
"Letterink-NibData" = {
MainAxisWidth = 110;
MinorAxisWidth = 105;
ValidForParentMainAxisWidth = 30;
ValidForParentMinorAxisWidth = 15;
};
"Letterink-NibStyleId" = 1;
}),
(476,858,o),
(478,701,o),
(493,546,c,{
"Letterink-NibData" = {
MainAxisWidth = 110;
MinorAxisWidth = 105;
ValidForParentMainAxisWidth = 30;
ValidForParentMinorAxisWidth = 15;
};
"Letterink-NibStyleId" = 1;
}),
(817,528,o),
(1153,519,o),
(1481,546,c,{
"Letterink-NibData" = {
MainAxisWidth = 110;
MinorAxisWidth = 105;
ValidForParentMainAxisWidth = 30;
ValidForParentMinorAxisWidth = 15;
};
"Letterink-NibStyleId" = 1;
}),
(1502,696,o),
(1499,861,o),
(1493,1012,c,{
"Letterink-NibData" = {
MainAxisWidth = 110;
MinorAxisWidth = 105;
ValidForParentMainAxisWidth = 30;
ValidForParentMinorAxisWidth = 15;
};
"Letterink-NibStyleId" = 1;
})
);
},
{
closed = 0;
nodes = (
(990,214,l,{
"Letterink-NibData" = {
MainAxisWidth = 220;
MinorAxisWidth = 235;
ValidForParentMainAxisWidth = 30;
ValidForParentMinorAxisWidth = 15;
};
}),
(977,240,l,{
"Letterink-NibData" = {
MainAxisWidth = 220;
MinorAxisWidth = 235;
ValidForParentMainAxisWidth = 30;
ValidForParentMinorAxisWidth = 15;
};
})
);
}
);
width = 2000;
}
);
unicode = 989445;
}
{
glyphname = "ante-sp";
layers = (
{
background = {
shapes = (
{
closed = 1;
nodes = (
(1000,850,l),
(1652,1374,l),
(1536,1490,l),
(1000,1024,l),
(464,1490,l),
(348,1374,l)
);
},
{
closed = 1;
nodes = (
(464,24,l),
(1000,490,l),
(1536,24,l),
(1652,140,l),
(1000,664,l),
(348,140,l)
);
}
);
};
layerId = m01;
shapes = (
{
closed = 0;
nodes = (
(437,1386,l,{
"Letterink-NibData" = {
MainAxisWidth = 110;
MinorAxisWidth = 105;
ValidForParentMainAxisWidth = 30;
ValidForParentMinorAxisWidth = 15;
};
"Letterink-NibStyleId" = 1;
}),
(633,1261,o),
(819,1125,o),
(973,953,c,{
"Letterink-NibData" = {
MainAxisWidth = 110;
MinorAxisWidth = 105;
ValidForParentMainAxisWidth = 30;
ValidForParentMinorAxisWidth = 15;
};
"Letterink-NibStyleId" = 1;
}),
(1179,1083,o),
(1375,1229,o),
(1541,1410,c,{
"Letterink-NibData" = {
MainAxisWidth = 110;
MinorAxisWidth = 105;
ValidForParentMainAxisWidth = 30;
ValidForParentMinorAxisWidth = 15;
};
"Letterink-NibStyleId" = 1;
})
);
},
{
closed = 0;
nodes = (
(440,124,l,{
"Letterink-NibData" = {
MainAxisWidth = 110;
MinorAxisWidth = 105;
ValidForParentMainAxisWidth = 30;
ValidForParentMinorAxisWidth = 15;
};
"Letterink-NibStyleId" = 1;
}),
(640,254,o),
(826,402,o),
(986,581,c,{
"Letterink-NibData" = {
MainAxisWidth = 110;
MinorAxisWidth = 105;
ValidForParentMainAxisWidth = 30;
ValidForParentMinorAxisWidth = 15;
};
"Letterink-NibStyleId" = 1;
}),
(1197,438,o),
(1382,276,o),
(1546,93,c,{
"Letterink-NibData" = {
MainAxisWidth = 110;
MinorAxisWidth = 105;
ValidForParentMainAxisWidth = 30;
ValidForParentMinorAxisWidth = 15;
};
"Letterink-NibStyleId" = 1;
})
);
}
);
width = 2000;
}
);
unicode = 989446;
}
{
glyphname = "anu-sp";
layers = (
{
background = {
shapes = (
{
closed = 1;
nodes = (
(1095,0,l),
(1095,610,l),
(1643,1490,l),
(1424,1490,l),
(1130,1009,ls),
(1067,906,o),
(1019,821,o),
(964,669,c),
(1040,669,l),
(985,818,o),
(938,901,o),
(872,1009,cs),
(577,1490,l),
(357,1490,l),
(905,610,l),
(905,0,l)
);
}
);
};
layerId = m01;
shapes = (
{
closed = 0;
nodes = (
(342,1429,l,{
"Letterink-NibData" = {
MainAxisWidth = 110;
MinorAxisWidth = 105;
ValidForParentMainAxisWidth = 30;
ValidForParentMinorAxisWidth = 15;
};
"Letterink-NibStyleId" = 1;
}),
(580,1193,o),
(777,930,o),
(966,663,c,{
"Letterink-NibData" = {
MainAxisWidth = 110;
MinorAxisWidth = 105;
ValidForParentMainAxisWidth = 30;
ValidForParentMinorAxisWidth = 15;
};
"Letterink-NibStyleId" = 1;
})
);
},
{
closed = 0;
nodes = (
(1615,1447,l,{
"Letterink-NibData" = {
MainAxisWidth = 110;
MinorAxisWidth = 105;
ValidForParentMainAxisWidth = 30;
ValidForParentMinorAxisWidth = 15;
};
"Letterink-NibStyleId" = 1;
}),
(1376,1206,o),
(1152,945,o),
(973,614,c,{
"Letterink-NibData" = {
MainAxisWidth = 110;
MinorAxisWidth = 105;
ValidForParentMainAxisWidth = 30;
ValidForParentMinorAxisWidth = 15;
};
"Letterink-NibStyleId" = 1;
}),
(973,57,l,{
"Letterink-NibData" = {
MainAxisWidth = 110;
MinorAxisWidth = 105;
ValidForParentMainAxisWidth = 30;
ValidForParentMinorAxisWidth = 15;
};
"Letterink-NibStyleId" = 1;
})
);
}
);
width = 2000;
}
);
unicode = 989447;
}
{
glyphname = "awen-sp";
layers = (
{
background = {
shapes = (
{
closed = 1;
nodes = (
(505,0,l),
(702,0,l),
(1001,1254,l),
(1299,0,l),
(1496,0,l),
(1094,1490,l),
(908,1490,l)
);
},
{
closed = 1;
nodes = (
(1298,0,l),
(1799,0,l),
(1799,175,l),
(1298,175,l)
);
},
{
closed = 1;
nodes = (
(201,0,l),
(702,0,l),
(702,175,l),
(201,175,l)
);
}
);
};
layerId = m01;
shapes = (
{
closed = 0;
nodes = (
(248,105,l,{
"Letterink-NibData" = {
MainAxisWidth = 110;
MinorAxisWidth = 105;
ValidForParentMainAxisWidth = 30;
ValidForParentMinorAxisWidth = 15;
};
"Letterink-NibStyleId" = 1;
}),
(605,84,l,{
"Letterink-NibData" = {
MainAxisWidth = 110;
MinorAxisWidth = 105;
ValidForParentMainAxisWidth = 30;
ValidForParentMinorAxisWidth = 15;
};
"Letterink-NibStyleId" = 1;
}),
(969,1404,l,{
"Letterink-NibData" = {
MainAxisWidth = 110;
MinorAxisWidth = 105;
ValidForParentMainAxisWidth = 30;
ValidForParentMinorAxisWidth = 15;
};
"Letterink-NibStyleId" = 1;
}),
(1339,89,l,{
"Letterink-NibData" = {
MainAxisWidth = 110;
MinorAxisWidth = 105;
ValidForParentMainAxisWidth = 30;
ValidForParentMinorAxisWidth = 15;
};
"Letterink-NibStyleId" = 1;
}),
(1705,101,l,{
"Letterink-NibData" = {
MainAxisWidth = 110;
MinorAxisWidth = 105;
ValidForParentMainAxisWidth = 30;
ValidForParentMinorAxisWidth = 15;
};
"Letterink-NibStyleId" = 1;
})
);
}
);
width = 2000;
}
);
unicode = 989448;
}
{
glyphname = "e-sp";
layers = (
{
background = {
shapes = (
{
closed = 1;
nodes = (
(1222,738,l),
(367,0,l),
(251,116,l),
(972,738,l),
(251,1374,l),
(367,1490,l)
);
},
{
closed = 1;
nodes = (
(1850,738,l),
(995,0,l),
(879,116,l),
(1600,738,l),
(879,1374,l),
(995,1490,l)
);
}
);
};
layerId = m01;
shapes = (
{
closed = 0;
nodes = (
(303,1433,l,{
"Letterink-NibData" = {
MainAxisWidth = 110;
MinorAxisWidth = 105;
ValidForParentMainAxisWidth = 30;
ValidForParentMinorAxisWidth = 15;
};
"Letterink-NibStyleId" = 1;
}),
(572,1234,o),
(837,992,o),
(1055,746,c,{
"Letterink-NibData" = {
MainAxisWidth = 110;
MinorAxisWidth = 105;
ValidForParentMainAxisWidth = 30;
ValidForParentMinorAxisWidth = 15;
};
"Letterink-NibStyleId" = 1;
}),
(851,505,o),
(586,288,o),
(311,74,c,{
"Letterink-NibData" = {
MainAxisWidth = 110;
MinorAxisWidth = 105;
ValidForParentMainAxisWidth = 30;
ValidForParentMinorAxisWidth = 15;
};
"Letterink-NibStyleId" = 1;
})
);
},
{
closed = 0;
nodes = (
(938,1433,l,{
"Letterink-NibData" = {
MainAxisWidth = 110;
MinorAxisWidth = 105;
ValidForParentMainAxisWidth = 30;
ValidForParentMinorAxisWidth = 15;
};
"Letterink-NibStyleId" = 1;
}),
(1251,1189,o),
(1491,975,o),
(1680,764,c,{
"Letterink-NibData" = {
MainAxisWidth = 110;
MinorAxisWidth = 105;
ValidForParentMainAxisWidth = 30;
ValidForParentMinorAxisWidth = 15;
};
"Letterink-NibStyleId" = 1;
}),
(1513,571,o),
(1229,310,o),
(938,74,c,{
"Letterink-NibData" = {
MainAxisWidth = 110;
MinorAxisWidth = 105;
ValidForParentMainAxisWidth = 30;
ValidForParentMinorAxisWidth = 15;
};
"Letterink-NibStyleId" = 1;
})
);
}
);
width = 2000;
}
);
unicode = 989449;
}
{
glyphname = "en-sp";
layers = (
{
background = {
shapes = (
{
closed = 1;
nodes = (
(1081,73,l),
(1081,1417,l),
(919,1417,l),
(919,73,l)
);
},
{
closed = 1;
nodes = (
(1672,669,l),
(1672,821,l),
(328,821,l),
(328,669,l)
);
}
);
};
layerId = m01;
shapes = (
{
closed = 0;
nodes = (
(368,741,l,{
"Letterink-NibData" = {
AngleInDegrees = -42.84229;
MainAxisWidth = 110;
MinorAxisWidth = 105;
ValidForParentMainAxisWidth = 30;
ValidForParentMinorAxisWidth = 15;
};
"Letterink-NibStyleId" = 1;
}),
(872,713,o),
(1282,721,o),
(1619,754,c,{
"Letterink-NibData" = {
AngleInDegrees = -17.2797;
MainAxisWidth = 110;
MinorAxisWidth = 105;
ValidForParentMainAxisWidth = 30;
ValidForParentMinorAxisWidth = 15;
};
"Letterink-NibStyleId" = 1;
})
);
},
{
closed = 0;
nodes = (
(993,1377,l,{
"Letterink-NibData" = {
AngleInDegrees = 229.48578;
MainAxisWidth = 110;
MinorAxisWidth = 105;
ValidForParentMainAxisWidth = 30;
ValidForParentMinorAxisWidth = 15;
};
"Letterink-NibStyleId" = 1;
}),
(1017,969,o),
(1013,551,o),
(993,129,c,{
"Letterink-NibData" = {
AngleInDegrees = 231.77087;
MainAxisWidth = 110;
MinorAxisWidth = 105;
ValidForParentMainAxisWidth = 30;
ValidForParentMinorAxisWidth = 15;
};
"Letterink-NibStyleId" = 1;
})
);
}
);
width = 2000;
}
);
unicode = 989450;
}
{
glyphname = "esun-sp";
layers = (
{
background = {
shapes = (
{
attr = {
strokeHeight = 176;
strokeWidth = 186;
};
closed = 0;
nodes = (
(430,1425,l),
(733,725,o),
(1677,884,o),
(1709,1234,cs),
(1731,1481,o),
(1269,1498,o),
(1157,1191,c),
(837,311,l),
(725,4,o),
(263,21,o),
(285,268,cs),
(317,618,o),
(1261,777,o),
(1564,77,c)
);
}
);
};
layerId = m01;
shapes = (
{
closed = 0;
nodes = (
(406,1425,l,{
"Letterink-NibData" = {
AngleInDegrees = 261.5444;
MainAxisWidth = 110;
MinorAxisWidth = 105;
ValidForParentMainAxisWidth = 30;
ValidForParentMinorAxisWidth = 15;
};
"Letterink-NibStyleId" = 1;
}),
(471,1070,o),
(1428,617,o),
(1668,1171,cs,{
"Letterink-NibData" = {
AngleInDegrees = 25.47196;
MainAxisWidth = 110;
MinorAxisWidth = 105;
ValidForParentMainAxisWidth = 30;
ValidForParentMinorAxisWidth = 15;
};
"Letterink-NibStyleId" = 1;
}),
(1806,1490,o),
(1205,1635,o),
(1055,1023,c,{
"Letterink-NibData" = {
AngleInDegrees = 197.50169;
MainAxisWidth = 110;
MinorAxisWidth = 105;
ValidForParentMainAxisWidth = 30;
ValidForParentMinorAxisWidth = 15;
};
"Letterink-NibStyleId" = 1;
}),
(810,293,l,{
"Letterink-NibData" = {
AngleInDegrees = 200.14073;
MainAxisWidth = 110;
MinorAxisWidth = 105;
ValidForParentMainAxisWidth = 30;
ValidForParentMinorAxisWidth = 15;
};
"Letterink-NibStyleId" = 1;
}),
(699,64,o),
(316,-23,o),
(269,248,cs,{
"Letterink-NibData" = {
AngleInDegrees = 37.42199;
MainAxisWidth = 110;
MinorAxisWidth = 105;
ValidForParentMainAxisWidth = 30;
ValidForParentMinorAxisWidth = 15;
};
"Letterink-NibStyleId" = 1;
}),
(195,671,o),
(1325,735,o),
(1542,78,c,{
"Letterink-NibData" = {
AngleInDegrees = 240.5295;
MainAxisWidth = 110;
MinorAxisWidth = 105;
ValidForParentMainAxisWidth = 30;
ValidForParentMinorAxisWidth = 15;
};
"Letterink-NibStyleId" = 1;
})
);
}
);
width = 2000;
}
);
unicode = 989451;
}
{
glyphname = "ijo-sp";
layers = (
{
background = {
shapes = (
{
closed = 1;
nodes = (
(1358,-20,o),
(1711,272,o),
(1711,744,cs),
(1711,1217,o),
(1358,1510,o),
(976,1510,cs),
(594,1510,o),
(241,1217,o),
(241,744,cs),
(241,272,o),
(594,-20,o),
(976,-20,cs)
);
},
{
closed = 1;
nodes = (
(708,156,o),
(426,364,o),
(426,744,cs),
(426,1126,o),
(708,1334,o),
(976,1334,cs),
(1242,1334,o),
(1526,1126,o),
(1526,744,cs),
(1526,364,o),
(1242,156,o),
(976,156,cs)
);
}
);
};
layerId = m01;
shapes = (
{
closed = 1;
nodes = (
(1328,65,o),
(1614,368,o),
(1614,742,cs,{
"Letterink-NibData" = {
AngleInDegrees = 37.49637;
MainAxisWidth = 110;
MinorAxisWidth = 105;
ValidForParentMainAxisWidth = 30;
ValidForParentMinorAxisWidth = 15;
};
}),
(1614,1114,o),
(1328,1417,o),
(977,1417,cs,{
"Letterink-NibData" = {
AngleInDegrees = 125.27353;
MainAxisWidth = 110;
MinorAxisWidth = 105;
ValidForParentMainAxisWidth = 30;
ValidForParentMinorAxisWidth = 15;
};
}),
(624,1417,o),
(339,1114,o),
(339,742,cs,{
"Letterink-NibData" = {
AngleInDegrees = 222.73672;
MainAxisWidth = 110;
MinorAxisWidth = 105;
ValidForParentMainAxisWidth = 30;
ValidForParentMinorAxisWidth = 15;
};
}),
(339,368,o),
(624,65,o),
(977,65,cs,{
"Letterink-NibData" = {
AngleInDegrees = 312.76495;
MainAxisWidth = 110;
MinorAxisWidth = 105;
ValidForParentMainAxisWidth = 30;
ValidForParentMinorAxisWidth = 15;
};
})
);
}
);
width = 2000;
}
);
unicode = 989452;
}
{
glyphname = "ike-sp";
layers = (
{
background = {
shapes = (
{
closed = 1;
nodes = (
(1745,784,o),
(1413,1117,o),
(1001,1117,cs),
(590,1117,o),
(255,784,o),
(255,373,c),
(440,373,l),
(440,691,o),
(680,942,o),
(1001,942,cs),
(1321,942,o),
(1560,693,o),
(1560,373,c),
(1745,373,l)
);
}
);
};
layerId = m01;
shapes = (
{
closed = 0;
nodes = (
(348,381,l,{
"Letterink-NibData" = {
MainAxisWidth = 110;
MinorAxisWidth = 105;
ValidForParentMainAxisWidth = 30;
ValidForParentMinorAxisWidth = 15;
};
"Letterink-NibStyleId" = 1;
}),
(444,1192,o),
(1524,1280,o),
(1681,379,c,{
"Letterink-NibData" = {
MainAxisWidth = 110;
MinorAxisWidth = 105;
ValidForParentMainAxisWidth = 30;
ValidForParentMinorAxisWidth = 15;
};
"Letterink-NibStyleId" = 1;
})
);
}
);
width = 2000;
}
);
unicode = 989453;
}
{
glyphname = "ilo-sp";
layers = (
{
background = {
shapes = (
{
closed = 1;
nodes = (
(1093,1315,l),
(1093,882,l),
(1445,882,l),
(1445,1315,l)
);
},
{
closed = 1;
nodes = (
(368,1490,l),
(1631,1490,l),
(1631,707,l),
(1093,706,l),
(1093,0,l),
(907,0,l),
(907,706,l),
(368,707,l)
);
},
{
closed = 1;
nodes = (
(907,882,l),
(907,1315,l),
(554,1315,l),
(554,882,l)
);
}
);
};
layerId = m01;
shapes = (
{
closed = 0;
nodes = (
(1023,1384,l,{
"Letterink-NibData" = {
MainAxisWidth = 110;
MinorAxisWidth = 105;
ValidForParentMainAxisWidth = 30;
ValidForParentMinorAxisWidth = 15;
};
"Letterink-NibStyleId" = 1;
}),
(552,1384,o),
(482,1376,o),
(482,1080,cs,{
"Letterink-NibData" = {
AngleInDegrees = 228.53917;
MainAxisWidth = 110;
MinorAxisWidth = 105;
ValidForParentMainAxisWidth = 30;
ValidForParentMinorAxisWidth = 15;
};
"Letterink-NibStyleId" = 1;
}),
(482,781,o),
(618,781,o),
(986,781,cs,{
"Letterink-NibData" = {
AngleInDegrees = -36.98362;
MainAxisWidth = 110;
MinorAxisWidth = 105;
ValidForParentMainAxisWidth = 30;
ValidForParentMinorAxisWidth = 15;
};
"Letterink-NibStyleId" = 1;
}),
(1404,781,o),
(1520,798,o),
(1531,1076,cs,{
"Letterink-NibData" = {
AngleInDegrees = 39.92186;
MainAxisWidth = 110;
MinorAxisWidth = 105;
ValidForParentMainAxisWidth = 30;
ValidForParentMinorAxisWidth = 15;
};
"Letterink-NibStyleId" = 1;
}),
(1542,1364,o),
(1466,1376,o),
(1043,1377,c,{
"Letterink-NibData" = {
AngleInDegrees = 222.2737;
MainAxisWidth = 110;
MinorAxisWidth = 105;
ValidForParentMainAxisWidth = 30;
ValidForParentMinorAxisWidth = 15;
};
"Letterink-NibStyleId" = 1;
}),
(1004,59,l,{
"Letterink-NibData" = {
AngleInDegrees = 219.05319;
MainAxisWidth = 110;
MinorAxisWidth = 105;
ValidForParentMainAxisWidth = 30;
ValidForParentMinorAxisWidth = 15;
};
"Letterink-NibStyleId" = 1;
})
);
}
);
width = 2000;
}
);
unicode = 989454;
}
{
glyphname = "insa-sp";
layers = (
{
background = {
shapes = (
{
closed = 1;
nodes = (
(1405,1034,l),
(1405,631,l),
(594,631,l),
(594,1034,l),
(408,1034,l),
(408,456,l),
(1591,456,l),
(1591,1034,l)
);
},
{
closed = 1;
nodes = (
(1098,765,o),
(1170,832,o),
(1170,915,cs),
(1170,998,o),
(1098,1065,o),
(1011,1065,cs),
(925,1065,o),
(853,998,o),
(853,915,cs),
(853,832,o),
(925,765,o),
(1011,765,cs)
);
}
);
};
layerId = m01;
shapes = (
{
closed = 0;
nodes = (
(486,1030,l,{
"Letterink-NibData" = {
AngleInDegrees = 224.60648;
MainAxisWidth = 110;
MinorAxisWidth = 105;
ValidForParentMainAxisWidth = 30;
ValidForParentMinorAxisWidth = 15;
};
"Letterink-NibStyleId" = 1;
}),
(460,856,o),
(456,685,o),
(485,520,c,{
"Letterink-NibData" = {
AngleInDegrees = -36.12989;
MainAxisWidth = 110;
MinorAxisWidth = 105;
ValidForParentMainAxisWidth = 30;
ValidForParentMinorAxisWidth = 15;
};
"Letterink-NibStyleId" = 1;
}),
(835,493,o),
(1177,500,o),
(1514,531,c,{
"Letterink-NibData" = {
AngleInDegrees = 40.91908;
MainAxisWidth = 110;
MinorAxisWidth = 105;
ValidForParentMainAxisWidth = 30;
ValidForParentMinorAxisWidth = 15;
};
"Letterink-NibStyleId" = 1;
}),
(1540,697,o),
(1546,860,o),
(1524,1026,c,{
"Letterink-NibData" = {
AngleInDegrees = 43.41185;
MainAxisWidth = 110;
MinorAxisWidth = 105;
ValidForParentMainAxisWidth = 30;
ValidForParentMinorAxisWidth = 15;
};
"Letterink-NibStyleId" = 1;
})
);
},
{
closed = 0;
nodes = (
(1006,930,l,{
"Letterink-NibData" = {
MainAxisWidth = 220;
MinorAxisWidth = 235;
ValidForParentMainAxisWidth = 30;
ValidForParentMinorAxisWidth = 15;
};
}),
(1020,911,l,{
"Letterink-NibData" = {
MainAxisWidth = 220;
MinorAxisWidth = 235;
ValidForParentMainAxisWidth = 30;
ValidForParentMinorAxisWidth = 15;
};
})
);
}
);
width = 2000;
}
);
unicode = 989455;
}
{
glyphname = "jaki-sp";
layers = (
{
background = {
shapes = (
{
attr = {
strokeWidth = 150;
};
closed = 0;
nodes = (
(1526,1448,l),
(708,1374,o),
(380,1262,o),
(642,989,cs),
(957,661,o),
(1561,586,o),
(1492,911,cs),
(1412,1289,o),
(304,1113,o),
(535,719,cs),
(725,395,o),
(1403,41,o),
(1403,353,cs),
(1403,670,o),
(708,609,o),
(516,73,cs)
);
}
);
};
layerId = m01;
shapes = (
{
closed = 0;
nodes = (
(1526,1448,l,{
"Letterink-NibData" = {
AngleInDegrees = 139.17125;
MainAxisWidth = 110;
MinorAxisWidth = 105;
ValidForParentMainAxisWidth = 30;
ValidForParentMinorAxisWidth = 15;
};
}),
(708,1374,o),
(380,1262,o),
(642,989,cs,{
"Letterink-NibData" = {
AngleInDegrees = 272.03088;
MainAxisWidth = 110;
MinorAxisWidth = 105;
ValidForParentMainAxisWidth = 30;
ValidForParentMinorAxisWidth = 15;
};
}),
(957,661,o),
(1561,586,o),
(1492,911,cs,{
"Letterink-NibData" = {
AngleInDegrees = 67.31248;
MainAxisWidth = 110;
MinorAxisWidth = 105;
ValidForParentMainAxisWidth = 30;
ValidForParentMinorAxisWidth = 15;
};
}),
(1412,1289,o),
(304,1113,o),
(535,719,cs,{
"Letterink-NibData" = {
AngleInDegrees = 257.66293;
MainAxisWidth = 110;
MinorAxisWidth = 105;
ValidForParentMainAxisWidth = 30;
ValidForParentMinorAxisWidth = 15;
};
}),
(725,395,o),
(1403,41,o),
(1403,353,cs,{
"Letterink-NibData" = {
AngleInDegrees = 60.47559;
MainAxisWidth = 110;
MinorAxisWidth = 105;
ValidForParentMainAxisWidth = 30;
ValidForParentMinorAxisWidth = 15;
};
}),
(1403,670,o),
(708,609,o),
(516,73,cs,{
"Letterink-NibData" = {
AngleInDegrees = 205.10236;
MainAxisWidth = 110;
MinorAxisWidth = 105;
ValidForParentMainAxisWidth = 30;
ValidForParentMinorAxisWidth = 15;
};
})
);
}
);
width = 2000;
}
);
unicode = 989456;
}
{
glyphname = "jan-sp";
layers = (
{
background = {
shapes = (
{
closed = 1;
nodes = (
(1291,329,o),
(1558,550,o),
(1558,908,cs),
(1558,1268,o),
(1291,1490,o),
(1000,1490,cs),
(710,1490,o),
(442,1268,o),
(442,908,cs),
(442,550,o),
(710,329,o),
(1000,329,cs)
);
},
{
closed = 1;
nodes = (
(796,505,o),
(627,621,o),
(627,908,cs),
(627,1198,o),
(796,1314,o),
(1000,1314,cs),
(1202,1314,o),
(1373,1198,o),
(1373,908,cs),
(1373,621,o),
(1202,505,o),
(1000,505,cs)
);
},
{
closed = 1;
nodes = (
(1641,116,l),
(1245,512,l),
(1135,391,l),
(1531,-5,l)
);
},
{
closed = 1;
nodes = (
(865,391,l),
(755,512,l),
(359,116,l),
(469,-5,l)
);
}
);
};
layerId = m01;
shapes = (
{
closed = 1;
nodes = (
(1252,417,o),
(1461,636,o),
(1461,906,cs,{
"Letterink-NibData" = {
AngleInDegrees = 42.38833;
MainAxisWidth = 110;
MinorAxisWidth = 105;
ValidForParentMainAxisWidth = 30;
ValidForParentMinorAxisWidth = 15;
};
"Letterink-NibStyleId" = 1;
}),
(1461,1175,o),
(1252,1394,o),
(996,1394,cs,{
"Letterink-NibData" = {
AngleInDegrees = 130.61902;
MainAxisWidth = 110;
MinorAxisWidth = 105;
ValidForParentMainAxisWidth = 30;
ValidForParentMinorAxisWidth = 15;
};
"Letterink-NibStyleId" = 1;
}),
(739,1394,o),
(531,1175,o),
(531,906,cs,{
"Letterink-NibData" = {
AngleInDegrees = 226.4232;
MainAxisWidth = 110;
MinorAxisWidth = 105;
ValidForParentMainAxisWidth = 30;
ValidForParentMinorAxisWidth = 15;
};
"Letterink-NibStyleId" = 1;
}),
(531,636,o),
(739,417,o),
(996,417,cs,{
"Letterink-NibData" = {
AngleInDegrees = -33.64001;
MainAxisWidth = 110;
MinorAxisWidth = 105;
ValidForParentMainAxisWidth = 30;
ValidForParentMinorAxisWidth = 15;
};
"Letterink-NibStyleId" = 1;
})
);
},
{
closed = 0;
nodes = (
(429,81,l,{
"Letterink-NibData" = {
MainAxisWidth = 110;
MinorAxisWidth = 105;
ValidForParentMainAxisWidth = 30;
ValidForParentMinorAxisWidth = 15;
};
}),
(558,254,o),
(718,410,o),
(766,457,c,{
"Letterink-NibData" = {
MainAxisWidth = 110;
MinorAxisWidth = 115;
ValidForParentMainAxisWidth = 30;
ValidForParentMinorAxisWidth = 15;
};
})
);
},
{
closed = 0;
nodes = (
(1575,70,l,{
"Letterink-NibData" = {
AngleInDegrees = 87.48528;
MainAxisWidth = 110;
MinorAxisWidth = 105;
ValidForParentMainAxisWidth = 30;
ValidForParentMinorAxisWidth = 15;
};
}),
(1463,212,o),
(1354,359,o),
(1221,459,c,{
"Letterink-NibData" = {
AngleInDegrees = 82.20495;
MainAxisWidth = 110;
MinorAxisWidth = 115;
ValidForParentMainAxisWidth = 30;
ValidForParentMinorAxisWidth = 15;
};
})
);
}
);
width = 2000;
}
);
unicode = 989457;
}
{
glyphname = "jelo-sp";
layers = (
{
background = {
shapes = (
{
closed = 1;
nodes = (
(1203,708,o),
(1345,852,o),
(1345,1053,cs),
(1345,1254,o),
(1203,1400,o),
(1001,1400,cs),
(799,1400,o),
(657,1254,o),
(657,1053,cs),
(657,852,o),
(799,708,o),
(1001,708,cs)
);
},
{
closed = 1;
nodes = (
(899,868,o),
(827,944,o),
(827,1053,cs),
(827,1162,o),
(899,1240,o),
(1001,1240,cs),
(1104,1240,o),
(1175,1162,o),
(1175,1053,cs),
(1175,944,o),
(1104,868,o),
(1001,868,cs)
);
},
{
closed = 1;
nodes = (
(750,955,l),
(750,1152,l),
(469,1152,l),
(469,955,l)
);
},
{
closed = 1;
nodes = (
(1531,955,l),
(1531,1152,l),
(1275,1152,l),
(1275,955,l)
);
},
{
closed = 1;
nodes = (
(1099,1330,l),
(1099,1626,l),
(902,1626,l),
(902,1330,l)
);
},
{
closed = 1;
nodes = (
(1315.732,231,l),
(684.268,231,l),
(1000,574.055,l)
);
},
{
closed = 1;
nodes = (
(895,728,l),
(275.732,55,l),
(1724.268,55,l),
(1105,728,l)
);
}
);
};
layerId = m01;
shapes = (
{
closed = 1;
nodes = (
(1141,797,o),
(1257,913,o),
(1257,1056,cs,{
"Letterink-NibData" = {
AngleInDegrees = 53.93744;
MainAxisWidth = 110;
MinorAxisWidth = 105;
ValidForParentMainAxisWidth = 30;
ValidForParentMinorAxisWidth = 15;
};
"Letterink-NibStyleId" = 1;
}),
(1257,1198,o),
(1141,1313,o),
(1000,1313,cs,{
"Letterink-NibData" = {
AngleInDegrees = 133.14661;
MainAxisWidth = 110;
MinorAxisWidth = 105;
ValidForParentMainAxisWidth = 30;
ValidForParentMinorAxisWidth = 15;
};
"Letterink-NibStyleId" = 1;
}),
(860,1313,o),
(744,1198,o),
(744,1056,cs,{
"Letterink-NibData" = {
AngleInDegrees = 233.26491;
MainAxisWidth = 110;
MinorAxisWidth = 105;
ValidForParentMainAxisWidth = 30;
ValidForParentMinorAxisWidth = 15;
};
"Letterink-NibStyleId" = 1;
}),
(744,913,o),
(860,797,o),
(1000,797,cs,{
"Letterink-NibData" = {
AngleInDegrees = -40.91355;
MainAxisWidth = 110;
MinorAxisWidth = 105;
ValidForParentMainAxisWidth = 30;
ValidForParentMinorAxisWidth = 15;
};
"Letterink-NibStyleId" = 1;
})
);
},
{
closed = 0;
nodes = (
(538,1058,l,{
"Letterink-NibData" = {
AngleInDegrees = -38.11456;
MainAxisWidth = 110;
MinorAxisWidth = 105;
ValidForParentMainAxisWidth = 30;
ValidForParentMinorAxisWidth = 15;
};
"Letterink-NibStyleId" = 1;
}),
(727,1062,l,{
"Letterink-NibData" = {
AngleInDegrees = 310.92307;
MainAxisWidth = 110;
MinorAxisWidth = 105;
ValidForParentMainAxisWidth = 30;
ValidForParentMinorAxisWidth = 15;
};
"Letterink-NibStyleId" = 1;
})
);
},
{
closed = 0;
nodes = (
(1009,1594,l,{
"Letterink-NibData" = {
AngleInDegrees = 220.91403;
MainAxisWidth = 110;
MinorAxisWidth = 105;
ValidForParentMainAxisWidth = 30;
ValidForParentMinorAxisWidth = 15;
};
"Letterink-NibStyleId" = 1;
}),
(1003,1338,l,{
"Letterink-NibData" = {
AngleInDegrees = 208.68842;
MainAxisWidth = 110;
MinorAxisWidth = 105;
ValidForParentMainAxisWidth = 30;
ValidForParentMinorAxisWidth = 15;
};
"Letterink-NibStyleId" = 1;
})
);
},
{
closed = 0;
nodes = (
(1522,1042,l,{
"Letterink-NibData" = {
AngleInDegrees = 130.05557;
MainAxisWidth = 110;
MinorAxisWidth = 105;
ValidForParentMainAxisWidth = 30;
ValidForParentMinorAxisWidth = 15;
};
"Letterink-NibStyleId" = 1;
}),
(1276,1048,l,{
"Letterink-NibData" = {
MainAxisWidth = 110;
MinorAxisWidth = 105;
ValidForParentMainAxisWidth = 30;
ValidForParentMinorAxisWidth = 15;
};
"Letterink-NibStyleId" = 1;
})
);
},
{
closed = 1;
nodes = (
(998,755,l,{
"Letterink-NibData" = {
AngleInDegrees = 272.29428;
MainAxisWidth = 110;
MinorAxisWidth = 105;
ValidForParentMainAxisWidth = 30;
ValidForParentMinorAxisWidth = 15;
};
"Letterink-NibStyleId" = 1;
}),
(1563,120,l,{
"Letterink-NibData" = {
AngleInDegrees = 129.54594;
MainAxisWidth = 110;
MinorAxisWidth = 105;
ValidForParentMainAxisWidth = 30;
ValidForParentMinorAxisWidth = 15;
};
"Letterink-NibStyleId" = 1;
}),
(425,109,l,{
"Letterink-NibData" = {
MainAxisWidth = 110;
MinorAxisWidth = 105;
ValidForParentMainAxisWidth = 30;
ValidForParentMinorAxisWidth = 15;
};
"Letterink-NibStyleId" = 1;
})
);
}
);
width = 2000;
}
);
unicode = 989458;
}
{
glyphname = "jo-sp";
layers = (
{
background = {
shapes = (
{
closed = 1;
nodes = (
(1211,745,o),
(1384,918,o),
(1384,1130,cs),
(1384,1341,o),
(1211,1514,o),
(1000,1514,cs),
(788,1514,o),
(615,1341,o),
(615,1130,cs),
(615,918,o),
(788,745,o),
(1000,745,cs)
);
},
{
closed = 1;
nodes = (
(867,921,o),
(800,988,o),
(800,1130,cs),
(800,1271,o),
(867,1338,o),
(1000,1338,cs),
(1132,1338,o),
(1199,1271,o),
(1199,1130,cs),
(1199,988,o),
(1132,921,o),
(1000,921,cs)
);
},
{
closed = 1;
nodes = (
(650,725,ls),
(575,646,o),
(535,548,o),
(535,439,cs),
(535,419,ls),
(535,278,o),
(610,128,o),
(764,45,cs),
(788,32,ls),
(855,-4,o),
(927,-24,o),
(999,-24,cs),
(1072,-24,o),
(1145,-6,o),
(1212,32,cs),
(1235,45,ls),
(1385,130,o),
(1464,303,o),
(1464,494,cs),
(1464,605,l),
(971,605,l),
(971,430,l),
(1278,430,l),
(1278,353,o),
(1235,255,o),
(1139,197,cs),
(1095,171,o),
(1047,158,o),
(999,158,cs),
(952,158,o),
(905,171,o),
(861,197,cs),
(765,254,o),
(721,365,o),
(721,473,cs),
(721,559,o),
(774,650,o),
(871,732,cs),
(987,830,l),
(790,872,l)
);
}
);
};
layerId = m01;
shapes = (
{
closed = 1;
nodes = (
(1159,827,o),
(1287,960,o),
(1287,1124,cs,{
"Letterink-NibData" = {
AngleInDegrees = 30.21391;
MainAxisWidth = 110;
MinorAxisWidth = 105;
ValidForParentMainAxisWidth = 30;
ValidForParentMinorAxisWidth = 15;
};
}),
(1287,1287,o),
(1159,1420,o),
(1000,1420,cs,{
"Letterink-NibData" = {
AngleInDegrees = 131.41815;
MainAxisWidth = 110;
MinorAxisWidth = 105;
ValidForParentMainAxisWidth = 30;
ValidForParentMinorAxisWidth = 15;
};
}),
(841,1420,o),
(713,1287,o),
(713,1124,cs,{
"Letterink-NibData" = {
AngleInDegrees = 230.03218;
MainAxisWidth = 110;
MinorAxisWidth = 105;
ValidForParentMainAxisWidth = 30;
ValidForParentMinorAxisWidth = 15;
};
}),
(713,960,o),
(841,827,o),
(1000,827,cs,{
"Letterink-NibData" = {
AngleInDegrees = -31.50682;
MainAxisWidth = 110;
MinorAxisWidth = 105;
ValidForParentMainAxisWidth = 30;
ValidForParentMinorAxisWidth = 15;
};
})
);
},
{
closed = 0;
nodes = (
(873,847,l,{
"Letterink-NibData" = {
AngleInDegrees = 178.38232;
MainAxisWidth = 110;
MinorAxisWidth = 105;
ValidForParentMainAxisWidth = 30;
ValidForParentMinorAxisWidth = 15;
};
}),
(751,759,o),
(655,670,o),
(651,449,cs,{
"Letterink-NibData" = {
AngleInDegrees = 225.14615;
MainAxisWidth = 110;
MinorAxisWidth = 105;
ValidForParentMainAxisWidth = 30;
ValidForParentMinorAxisWidth = 15;
};
}),
(647,228,o),
(803,80,o),
(996,77,cs,{
"Letterink-NibData" = {
AngleInDegrees = -39.17011;
MainAxisWidth = 110;
MinorAxisWidth = 105;
ValidForParentMainAxisWidth = 30;
ValidForParentMinorAxisWidth = 15;
};
}),
(1217,74,o),
(1376,217,o),
(1374,529,c,{
"Letterink-NibData" = {
AngleInDegrees = 123.07742;
MainAxisWidth = 110;
MinorAxisWidth = 105;
ValidForParentMainAxisWidth = 30;
ValidForParentMinorAxisWidth = 15;
};
}),
(1060,529,l,{
"Letterink-NibData" = {
AngleInDegrees = 139.5423;
MainAxisWidth = 110;
MinorAxisWidth = 105;
ValidForParentMainAxisWidth = 30;
ValidForParentMinorAxisWidth = 15;
};
})
);
}
);
width = 2000;
}
);
unicode = 989459;
}
{
glyphname = "kala-sp";
layers = (
{
background = {
shapes = (
{
closed = 1;
nodes = (
(558,593,o),
(828,1099,o),
(1235,1099,cs),
(1447,1099,o),
(1657,960,o),
(1657,745,cs),
(1657,530,o),
(1447,392,o),
(1235,392,cs),
(828,392,o),
(558,897,o),
(297,1243,c),
(149,1137,l),
(399,806,o),
(712,217,o),
(1235,217,cs),
(1550,217,o),
(1843,435,o),
(1843,745,cs),
(1843,1055,o),
(1550,1274,o),
(1235,1274,cs),
(712,1274,o),
(399,684,o),
(149,353,c),
(297,247,l)
);
}
);
};
layerId = m01;
shapes = (
{
closed = 0;
nodes = (
(290,1130,l,{
"Letterink-NibData" = {
MainAxisWidth = 110;
MinorAxisWidth = 105;
ValidForParentMainAxisWidth = 30;
ValidForParentMinorAxisWidth = 15;
};
}),
(503,774,o),
(825,308,o),
(1250,308,c,{
"Letterink-NibData" = {
MainAxisWidth = 110;
MinorAxisWidth = 105;
ValidForParentMainAxisWidth = 30;
ValidForParentMinorAxisWidth = 15;
};
}),
(1934,352,o),
(1914,1189,o),
(1240,1200,c,{
"Letterink-NibData" = {
MainAxisWidth = 110;
MinorAxisWidth = 105;
ValidForParentMainAxisWidth = 30;
ValidForParentMinorAxisWidth = 15;
};
}),
(833,1202,o),
(351,507,o),
(266,361,cs,{
"Letterink-NibData" = {
MainAxisWidth = 110;
MinorAxisWidth = 105;
ValidForParentMainAxisWidth = 30;
ValidForParentMinorAxisWidth = 15;
};
})
);
}
);
width = 2000;
}
);
unicode = 989460;
}
{
glyphname = "kalama-sp";
layers = (
{
background = {
shapes = (
{
closed = 1;
nodes = (
(908,1023,l),
(1093,1023,l),
(1093,1567,l),
(908,1567,l)
);
},
{
closed = 1;
nodes = (
(1247,1023,l),
(1378,892,l),
(1763,1277,l),
(1632,1407,l)
);
},
{
closed = 1;
nodes = (
(238,1277,l),
(623,892,l),
(754,1023,l),
(369,1407,l)
);
},
{
attr = {
strokeHeight = 176;
strokeWidth = 186;
};
closed = 1;
nodes = (
(1550,314,o),
(1305,91,o),
(1001,91,cs),
(696,91,o),
(450,314,o),
(450,717,c),
(1550,717,l)
);
}
);
};
layerId = m01;
shapes = (
{
closed = 0;
nodes = (
(336,1300,l,{
"Letterink-NibData" = {
AngleInDegrees = 269.74054;
MainAxisWidth = 110;
MinorAxisWidth = 105;
ValidForParentMainAxisWidth = 30;
ValidForParentMinorAxisWidth = 15;
};
}),
(459,1215,o),
(574,1112,o),
(678,979,c,{
"Letterink-NibData" = {
AngleInDegrees = 261.87378;
MainAxisWidth = 110;
MinorAxisWidth = 105;
ValidForParentMainAxisWidth = 30;
ValidForParentMinorAxisWidth = 15;
};
})
);
},
{
closed = 0;
nodes = (
(989,1510,l,{
"Letterink-NibData" = {
AngleInDegrees = 242.00385;
MainAxisWidth = 110;
MinorAxisWidth = 105;
ValidForParentMainAxisWidth = 30;
ValidForParentMinorAxisWidth = 15;
};
}),
(1025,1365,o),
(1014,1228,o),
(997,1059,c,{
"Letterink-NibData" = {
AngleInDegrees = 206.87796;
MainAxisWidth = 110;
MinorAxisWidth = 105;
ValidForParentMainAxisWidth = 30;
ValidForParentMinorAxisWidth = 15;
};
})
);
},
{
closed = 0;
nodes = (
(1334,975,l,{
"Letterink-NibData" = {
AngleInDegrees = 162.36131;
MainAxisWidth = 110;
MinorAxisWidth = 105;
ValidForParentMainAxisWidth = 30;
ValidForParentMinorAxisWidth = 15;
};
}),
(1466,1078,o),
(1548,1163,o),
(1658,1300,c,{
"Letterink-NibData" = {
AngleInDegrees = 172.88368;
MainAxisWidth = 110;
MinorAxisWidth = 105;
ValidForParentMainAxisWidth = 30;
ValidForParentMinorAxisWidth = 15;
};
})
);
},
{
closed = 1;
nodes = (
(1550,314,o),
(1305,91,o),
(1001,91,cs,{
"Letterink-NibData" = {
MainAxisWidth = 110;
MinorAxisWidth = 105;
ValidForParentMainAxisWidth = 30;
ValidForParentMinorAxisWidth = 15;
};
"Letterink-NibStyleId" = 1;
}),
(696,91,o),
(450,314,o),
(450,717,c,{
"Letterink-NibData" = {
MainAxisWidth = 110;
MinorAxisWidth = 105;
ValidForParentMainAxisWidth = 30;
ValidForParentMinorAxisWidth = 15;
};
"Letterink-NibStyleId" = 1;
}),
(1550,717,l,{
"Letterink-NibData" = {
MainAxisWidth = 110;
MinorAxisWidth = 105;
ValidForParentMainAxisWidth = 30;
ValidForParentMinorAxisWidth = 15;
};
"Letterink-NibStyleId" = 1;
})
);
}
);
width = 2000;
}
);
unicode = 989461;
}
{
glyphname = "kama-sp";
layers = (
{
background = {
shapes = (
{
closed = 1;
nodes = (
(663,1330,l),
(663,176,l),
(335,176,l),
(335,0,l),
(848,0,l),
(848,1151,l),
(1406,427,l),
(1071,124,l),
(1201,0,l),
(1666,427,l),
(842,1490,l)
);
}
);
};
layerId = m01;
shapes = (
{
closed = 0;
nodes = (
(427,76,l,{
"Letterink-NibData" = {
AngleInDegrees = -31.84199;
MainAxisWidth = 110;
MinorAxisWidth = 105;
ValidForParentMainAxisWidth = 30;
ValidForParentMinorAxisWidth = 15;
};
}),
(755,85,l,{
"Letterink-NibData" = {
AngleInDegrees = 51.22749;
MainAxisWidth = 110;
MinorAxisWidth = 105;
ValidForParentMainAxisWidth = 30;
ValidForParentMinorAxisWidth = 15;
};
}),
(811,1329,l,{
"Letterink-NibData" = {
AngleInDegrees = 258.06586;
MainAxisWidth = 110;
MinorAxisWidth = 105;
ValidForParentMainAxisWidth = 30;
ValidForParentMinorAxisWidth = 15;
};
}),
(1552,462,l,{
"Letterink-NibData" = {
AngleInDegrees = 185.09853;
MainAxisWidth = 110;
MinorAxisWidth = 105;
ValidForParentMainAxisWidth = 30;
ValidForParentMinorAxisWidth = 15;
};
}),
(1191,114,l,{
"Letterink-NibData" = {
AngleInDegrees = 178.24374;
MainAxisWidth = 110;
MinorAxisWidth = 105;
ValidForParentMainAxisWidth = 30;
ValidForParentMinorAxisWidth = 15;
};
})
);
}
);
width = 2000;
}
);
unicode = 989462;
}
{
glyphname = "kasi-sp";
layers = (
{
background = {
shapes = (
{
closed = 1;
nodes = (
(677,901,o),
(870,831,o),
(904,560,c),
(678,574,o),
(485,644,o),
(451,915,c)
);
},
{
closed = 1;
nodes = (
(212,424,o),
(755,369,o),
(1092,385,c),
(1143,1051,o),
(600,1106,o),
(263,1090,c)
);
},
{
closed = 1;
nodes = (
(1515,850,o),
(1322,780,o),
(1096,766,c),
(1130,1037,o),
(1323,1107,o),
(1549,1121,c)
);
},
{
closed = 1;
nodes = (
(1400,1312,o),
(857,1257,o),
(908,591,c),
(1245,575,o),
(1788,630,o),
(1737,1296,c)
);
},
{
closed = 1;
nodes = (
(908,136,l),
(1094,136,l),
(1094,1351,l),
(908,1351,l)
);
}
);
};
layerId = m01;
shapes = (
{
closed = 0;
nodes = (
(1001,182,l,{
"Letterink-NibData" = {
AngleInDegrees = 215.57088;
MainAxisWidth = 110;
MinorAxisWidth = 105;
ValidForParentMainAxisWidth = 30;
ValidForParentMinorAxisWidth = 15;
};
}),
(984,542,o),
(992,925,o),
(1004,1311,c,{
"Letterink-NibData" = {
AngleInDegrees = 226.0836;
MainAxisWidth = 110;
MinorAxisWidth = 105;
ValidForParentMainAxisWidth = 30;
ValidForParentMinorAxisWidth = 15;
};
})
);
},
{
closed = 1;
nodes = (
(1035,907,o),
(1272,1234,o),
(1661,1205,c,{
"Letterink-NibData" = {
MainAxisWidth = 110;
MinorAxisWidth = 105;
ValidForParentMainAxisWidth = 30;
ValidForParentMinorAxisWidth = 15;
};
}),
(1654,780,o),
(1362,654,o),
(1013,660,c,{
"Letterink-NibData" = {
MainAxisWidth = 110;
MinorAxisWidth = 105;
ValidForParentMainAxisWidth = 30;
ValidForParentMinorAxisWidth = 15;
};
})
);
},
{
closed = 1;
nodes = (
(640,479,o),
(375,584,o),
(361,992,c,{
"Letterink-NibData" = {
MainAxisWidth = 110;
MinorAxisWidth = 105;
ValidForParentMainAxisWidth = 30;
ValidForParentMinorAxisWidth = 15;
};
}),
(762,1061,o),
(969,747,o),
(980,463,c,{
"Letterink-NibData" = {
MainAxisWidth = 110;
MinorAxisWidth = 105;
ValidForParentMainAxisWidth = 30;
ValidForParentMinorAxisWidth = 15;
};
})
);
}
);
width = 2000;
}
);
unicode = 989463;
}
{
glyphname = "ken-sp";
layers = (
{
background = {
shapes = (
{
closed = 1;
nodes = (
(643,0,l),
(643,1490,l),
(453,1490,l),
(453,0,l)
);
},
{
closed = 1;
nodes = (
(1361,1006,o),
(1110,839,o),
(602,839,c),
(602,664,l),
(1182,664,o),
(1547,904,o),
(1547,1490,c),
(1361,1490,l)
);
},
{
closed = 1;
nodes = (
(1547,0,l),
(1547,598,o),
(1182,839,o),
(602,839,c),
(602,664,l),
(1110,664,o),
(1361,496,o),
(1361,0,c)
);
}
);
};
layerId = m01;
shapes = (
{
closed = 0;
nodes = (
(545,1434,l,{
"Letterink-NibData" = {
AngleInDegrees = 228.59116;
MainAxisWidth = 110;
MinorAxisWidth = 105;
ValidForParentMainAxisWidth = 30;
ValidForParentMinorAxisWidth = 15;
};
}),
(578,970,o),
(583,509,o),
(558,53,c,{
"Letterink-NibData" = {
AngleInDegrees = 207.3591;
MainAxisWidth = 110;
MinorAxisWidth = 105;
ValidForParentMainAxisWidth = 30;
ValidForParentMinorAxisWidth = 15;
};
})
);
},
{
closed = 0;
nodes = (
(1464,1451,l,{
"Letterink-NibData" = {
AngleInDegrees = 196.47621;
MainAxisWidth = 110;
MinorAxisWidth = 105;
ValidForParentMainAxisWidth = 30;
ValidForParentMinorAxisWidth = 15;
};
}),
(1464,1118,o),
(1157,740,o),
(629,755,c,{
"Letterink-NibData" = {
AngleInDegrees = 310.22003;
MainAxisWidth = 110;
MinorAxisWidth = 105;
ValidForParentMainAxisWidth = 30;
ValidForParentMinorAxisWidth = 15;
};
}),
(1353,748,o),
(1485,214,o),
(1464,56,cs,{
"Letterink-NibData" = {
AngleInDegrees = 238.42963;
MainAxisWidth = 110;
MinorAxisWidth = 105;
ValidForParentMainAxisWidth = 30;
ValidForParentMinorAxisWidth = 15;
};
})
);
}
);
width = 2000;
}
);
unicode = 989464;
}
{
glyphname = "kepeken-sp";
layers = (
{
background = {
shapes = (
{
closed = 1;
nodes = (
(1490,921,l),
(1138,921,l),
(1138,1315,l),
(1490,1315,l)
);
},
{
closed = 1;
nodes = (
(952,745,l),
(952,512,l),
(1138,512,l),
(1138,745,l),
(1676,746,l),
(1676,1490,l),
(413,1490,l),
(413,746,l)
);
},
{
closed = 1;
nodes = (
(599,1315,l),
(952,1315,l),
(952,921,l),
(599,921,l)
);
},
{
closed = 1;
nodes = (
(293,637,l),
(163,507,l),
(462,0,l),
(737,0,l),
(737,333,o),
(840,507,o),
(1046,507,cs),
(1252,507,o),
(1355,337,o),
(1355,11,cs),
(1355,0,l),
(1541,0,l),
(1541,11,ls),
(1541,438,o),
(1376,658,o),
(1046,658,cs),
(766,658,o),
(605,498,o),
(562,187,c),
(551,187,l)
);
}
);
};
layerId = m01;
shapes = (
{
closed = 0;
nodes = (
(275,528,l,{
"Letterink-NibData" = {
AngleInDegrees = 265.01343;
MainAxisWidth = 110;
MinorAxisWidth = 105;
ValidForParentMainAxisWidth = 30;
ValidForParentMinorAxisWidth = 15;
};
}),
(583,79,l,{
"Letterink-NibData" = {
MainAxisWidth = 110;
MinorAxisWidth = 105;
ValidForParentMainAxisWidth = 30;
ValidForParentMinorAxisWidth = 15;
};
}),
(643,276,o),
(711,572,o),
(1035,572,c,{
"Letterink-NibData" = {
AngleInDegrees = 310.62283;
MainAxisWidth = 110;
MinorAxisWidth = 105;
ValidForParentMainAxisWidth = 30;
ValidForParentMinorAxisWidth = 15;
};
}),
(1320,572,o),
(1459,298,o),
(1458,79,cs,{
"Letterink-NibData" = {
AngleInDegrees = 223.35265;
MainAxisWidth = 110;
MinorAxisWidth = 105;
ValidForParentMainAxisWidth = 30;
ValidForParentMinorAxisWidth = 15;
};
})
);
},
{
closed = 1;
nodes = (
(492,1226,o),
(492,1033,o),
(509,839,c,{
"Letterink-NibData" = {
AngleInDegrees = 308.89395;
MainAxisWidth = 110;
MinorAxisWidth = 105;
ValidForParentMainAxisWidth = 30;
ValidForParentMinorAxisWidth = 15;
};
}),
(935,814,o),
(1268,827,o),
(1575,853,c,{
"Letterink-NibData" = {
AngleInDegrees = 48.58149;
MainAxisWidth = 110;
MinorAxisWidth = 105;
ValidForParentMainAxisWidth = 30;
ValidForParentMinorAxisWidth = 15;
};
}),
(1592,1045,o),
(1589,1237,o),
(1563,1431,c,{
"Letterink-NibData" = {
AngleInDegrees = 122.66337;
MainAxisWidth = 110;
MinorAxisWidth = 105;
ValidForParentMainAxisWidth = 30;
ValidForParentMinorAxisWidth = 15;
};
}),
(1216,1451,o),
(869,1446,o),
(520,1418,c,{
"Letterink-NibData" = {
AngleInDegrees = 221.09975;
MainAxisWidth = 110;
MinorAxisWidth = 105;
ValidForParentMainAxisWidth = 30;
ValidForParentMinorAxisWidth = 15;
};
})
);
},
{
closed = 0;
nodes = (
(1052,1403,l,{
"Letterink-NibData" = {
MainAxisWidth = 110;
MinorAxisWidth = 105;
ValidForParentMainAxisWidth = 30;
ValidForParentMinorAxisWidth = 15;
};
}),
(1014,1146,o),
(1016,878,o),
(1025,608,c,{
"Letterink-NibData" = {
MainAxisWidth = 110;
MinorAxisWidth = 105;
ValidForParentMainAxisWidth = 30;
ValidForParentMinorAxisWidth = 15;
};
})
);
}
);
width = 2000;
}
);
unicode = 989465;
}
{
glyphname = "kili-sp";
layers = (
{
background = {
shapes = (
{
closed = 1;
nodes = (
(746,1208,ls),
(468,1366,o),
(243,1238,o),
(298,767,cs),
(348,337,o),
(562,82,o),
(1000,82,cs),
(1438,82,o),
(1652,337,o),
(1702,767,cs),
(1757,1238,o),
(1532,1366,o),
(1254,1208,cs),
(1000,1064,l)
);
},
{
closed = 1;
nodes = (
(42,1384,o),
(418,1593,o),
(827,1354,cs),
(1000,1253,l),
(1173,1354,ls),
(1582,1593,o),
(1958,1384,o),
(1878,767,cs),
(1805,207,o),
(1460,-94,o),
(1000,-94,cs),
(540,-94,o),
(195,207,o),
(122,767,cs)
);
},
{
closed = 1;
nodes = (
(1089,1592,l),
(1089,1186,l),
(903,1186,l),
(903,1592,l)
);
}
);
};
layerId = m01;
shapes = (
{
closed = 1;
nodes = (
(829,1228,o),
(594,1359,o),
(468,1350,c,{
"Letterink-NibData" = {
AngleInDegrees = 146.04245;
MainAxisWidth = 110;
MinorAxisWidth = 105;
ValidForParentMainAxisWidth = 30;
ValidForParentMinorAxisWidth = 15;
};
}),
(98,1321,o),
(-85,47,o),
(1005,2,c,{
"Letterink-NibData" = {
AngleInDegrees = 311.00302;
MainAxisWidth = 110;
MinorAxisWidth = 105;
ValidForParentMainAxisWidth = 30;
ValidForParentMinorAxisWidth = 15;
};
}),
(2086,35,o),
(1867,1232,o),
(1601,1338,c,{
"Letterink-NibData" = {
AngleInDegrees = 113.71482;
MainAxisWidth = 110;
MinorAxisWidth = 105;
ValidForParentMainAxisWidth = 30;
ValidForParentMinorAxisWidth = 15;
};
}),
(1495,1379,o),
(1191,1316,o),
(1009,1159,c,{
"Letterink-NibData" = {
AngleInDegrees = 88.66884;
MainAxisWidth = 76.76939;
MinorAxisWidth = 105;
ValidForParentMainAxisWidth = 30;
ValidForParentMinorAxisWidth = 15;
};
})
);
},
{
closed = 0;
nodes = (
(1013,1551,l,{
"Letterink-NibData" = {
AngleInDegrees = 218.58918;
MainAxisWidth = 137.29777;
MinorAxisWidth = 105;
ValidForParentMainAxisWidth = 30;
ValidForParentMinorAxisWidth = 15;
};
}),
(989,1445,o),
(991,1332,o),
(1001,1216,c,{
"Letterink-NibData" = {
MainAxisWidth = 110;
MinorAxisWidth = 105;
ValidForParentMainAxisWidth = 30;
ValidForParentMinorAxisWidth = 15;
};
})
);
}
);
width = 2000;
}
);
unicode = 989466;
}
{
glyphname = "kiwen-sp";
layers = (
{
background = {
shapes = (
{
closed = 1;
nodes = (
(1245,1365,l),
(1635,903,l),
(1000,215,l),
(364,903,l),
(752,1365,l)
);
},
{
closed = 1;
nodes = (
(123,898,l),
(1000,-52,l),
(1877,898,l),
(1335,1540,l),
(662,1540,l)
);
}
);
};
layerId = m01;
shapes = (
{
closed = 1;
nodes = (
(538,1303,o),
(387,1109,o),
(247,899,c,{
"Letterink-NibData" = {
AngleInDegrees = 253.02782;
MainAxisWidth = 110;
MinorAxisWidth = 105;
ValidForParentMainAxisWidth = 30;
ValidForParentMinorAxisWidth = 15;
};
}),
(489,595,o),
(738,334,o),
(991,90,c,{
"Letterink-NibData" = {
MainAxisWidth = 110;
MinorAxisWidth = 105;
ValidForParentMainAxisWidth = 30;
ValidForParentMinorAxisWidth = 15;
};
}),
(1257,335,o),
(1511,600,o),
(1746,901,c,{
"Letterink-NibData" = {
AngleInDegrees = 75.05314;
MainAxisWidth = 110;
MinorAxisWidth = 105;
ValidForParentMainAxisWidth = 30;
ValidForParentMinorAxisWidth = 15;
};
}),
(1621,1105,o),
(1479,1282,o),
(1321,1440,c,{
"Letterink-NibData" = {
AngleInDegrees = 121.09401;
MainAxisWidth = 110;
MinorAxisWidth = 105;
ValidForParentMainAxisWidth = 30;
ValidForParentMinorAxisWidth = 15;
};
}),
(1121,1473,o),
(918,1478,o),
(712,1462,c,{
"Letterink-NibData" = {
AngleInDegrees = 142.17975;
MainAxisWidth = 110;
MinorAxisWidth = 105;
ValidForParentMainAxisWidth = 30;
ValidForParentMinorAxisWidth = 15;
};
})
);
}
);
width = 2000;
}
);
unicode = 989467;
}
{
glyphname = "kon-sp";
layers = (
{
background = {
shapes = (
{
closed = 1;
nodes = (
(712,577,ls),
(880,277,o),
(876,238,o),
(659,26,c),
(781,-106,l),
(1050,155,o),
(1067,308,o),
(866,667,cs),
(728,913,ls),
(560,1213,o),
(564,1252,o),
(781,1464,c),
(659,1596,l),
(390,1335,o),
(373,1182,o),
(574,823,cs)
);
},
{
closed = 1;
nodes = (
(1272,577,ls),
(1440,277,o),
(1436,238,o),
(1219,26,c),
(1341,-106,l),
(1610,155,o),
(1627,308,o),
(1426,667,cs),
(1288,913,ls),
(1120,1213,o),
(1124,1252,o),
(1341,1464,c),
(1219,1596,l),
(950,1335,o),
(933,1182,o),
(1134,823,cs)
);
}
);
};
layerId = m01;
shapes = (
{
closed = 0;
nodes = (
(667,1483,l,{
"Letterink-NibData" = {
MainAxisWidth = 110;
MinorAxisWidth = 105;
ValidForParentMainAxisWidth = 30;
ValidForParentMinorAxisWidth = 15;
};
}),
(557,1335,o),
(518,1085,o),
(717,747,cs,{
"Letterink-NibData" = {
MainAxisWidth = 110;
MinorAxisWidth = 105;
ValidForParentMainAxisWidth = 30;
ValidForParentMinorAxisWidth = 15;
};
}),
(916,409,o),
(959,183,o),
(763,-5,cs,{
"Letterink-NibData" = {
MainAxisWidth = 110;
MinorAxisWidth = 105;
ValidForParentMainAxisWidth = 30;
ValidForParentMinorAxisWidth = 15;
};
})
);
},
{
closed = 0;
nodes = (
(1226,1481,l,{
"Letterink-NibData" = {
MainAxisWidth = 110;
MinorAxisWidth = 105;
ValidForParentMainAxisWidth = 30;
ValidForParentMinorAxisWidth = 15;
};
}),
(1086,1333,o),
(1066,1036,o),
(1276,745,cs,{
"Letterink-NibData" = {
MainAxisWidth = 110;
MinorAxisWidth = 105;
ValidForParentMainAxisWidth = 30;
ValidForParentMinorAxisWidth = 15;
};
}),
(1532,391,o),
(1552,181,o),
(1322,-7,cs,{
"Letterink-NibData" = {
MainAxisWidth = 110;
MinorAxisWidth = 105;
ValidForParentMainAxisWidth = 30;
ValidForParentMinorAxisWidth = 15;
};
})
);
}
);
width = 2000;
}
);
unicode = 989469;
}
{
glyphname = "kule-sp";
layers = (
{
background = {
shapes = (
{
closed = 1;
nodes = (
(347,568,l),
(1652,568,l),
(1652,733,l),
(347,733,l)
);
},
{
closed = 1;
nodes = (
(1701,0,l),
(1091,1490,l),
(912,1490,l),
(299,0,l)
);
},
{
closed = 1;
nodes = (
(993,1246,l),
(1007,1246,l),
(1435,167,l),
(568,167,l)
);
}
);
};
layerId = m01;
shapes = (
{
closed = 1;
nodes = (
(789,987,o),
(621,544,o),
(456,99,c,{
"Letterink-NibData" = {
MainAxisWidth = 110;
MinorAxisWidth = 105;
ValidForParentMainAxisWidth = 30;
ValidForParentMinorAxisWidth = 15;
};
}),
(843,87,o),
(1227,87,o),
(1610,111,c,{
"Letterink-NibData" = {
MainAxisWidth = 110;
MinorAxisWidth = 105;
ValidForParentMainAxisWidth = 30;
ValidForParentMinorAxisWidth = 15;
};
}),
(1421,553,o),
(1227,990,o),
(996,1387,c,{
"Letterink-NibData" = {
MainAxisWidth = 110;
MinorAxisWidth = 105;
ValidForParentMainAxisWidth = 30;
ValidForParentMinorAxisWidth = 15;
};
})
);
},
{
closed = 0;
nodes = (
(436,649,l,{
"Letterink-NibData" = {
MainAxisWidth = 110;
MinorAxisWidth = 105;
ValidForParentMainAxisWidth = 30;
ValidForParentMinorAxisWidth = 15;
};
}),
(803,687,o),
(1185,705,o),
(1586,691,c,{
"Letterink-NibData" = {
MainAxisWidth = 110;
MinorAxisWidth = 105;
ValidForParentMainAxisWidth = 30;
ValidForParentMinorAxisWidth = 15;
};
})
);
}
);
width = 2000;
}
);
unicode = 989470;
}
{
glyphname = "kute-sp";
layers = (
{
background = {
shapes = (
{
attr = {
strokeHeight = 176;
strokeWidth = 186;
};
closed = 0;
nodes = (
(622,1118,l),
(622,1469,o),
(1171,1519,o),
(1309,1153,cs),
(1438,811,o),
(1248,60,o),
(819,60,c)
);
},
{
attr = {
strokeHeight = 176;
strokeWidth = 186;
};
closed = 0;
nodes = (
(840,543,l),
(943,658,o),
(1038,767,o),
(964,957,c)
);
}
);
};
layerId = m01;
shapes = (
{
closed = 0;
nodes = (
(840,543,l,{
"Letterink-NibData" = {
MainAxisWidth = 110;
MinorAxisWidth = 105;
ValidForParentMainAxisWidth = 30;
ValidForParentMinorAxisWidth = 15;
};
"Letterink-NibStyleId" = 1;
}),
(943,658,o),
(1038,767,o),
(964,957,c,{
"Letterink-NibData" = {
MainAxisWidth = 110;
MinorAxisWidth = 105;
ValidForParentMainAxisWidth = 30;
ValidForParentMinorAxisWidth = 15;
};
"Letterink-NibStyleId" = 1;
})
);
},
{
closed = 0;
nodes = (
(622,1118,l,{
"Letterink-NibData" = {
MainAxisWidth = 110;
MinorAxisWidth = 105;
ValidForParentMainAxisWidth = 30;
ValidForParentMinorAxisWidth = 15;
};
"Letterink-NibStyleId" = 1;
}),
(622,1469,o),
(1171,1519,o),
(1309,1153,cs,{
"Letterink-NibData" = {
MainAxisWidth = 110;
MinorAxisWidth = 105;
ValidForParentMainAxisWidth = 30;
ValidForParentMinorAxisWidth = 15;
};
"Letterink-NibStyleId" = 1;
}),
(1438,811,o),
(1248,60,o),
(819,60,c,{
"Letterink-NibData" = {
MainAxisWidth = 110;
MinorAxisWidth = 105;
ValidForParentMainAxisWidth = 30;
ValidForParentMinorAxisWidth = 15;
};
"Letterink-NibStyleId" = 1;
})
);
}
);
width = 2000;
}
);
unicode = 989472;
}
{
glyphname = "la-sp";
layers = (
{
background = {
shapes = (
{
closed = 1;
nodes = (
(971.253,1257.5,o),
(1161.5,1021.497,o),
(1161.5,745,c),
(1161.5,468.503,o),
(971.253,232.5,o),
(653,232.5,c),
(653,57.5,l),
(1070.547,57.5,o),
(1346.5,392.897,o),
(1346.5,745,c),
(1346.5,1097.103,o),
(1070.547,1432.5,o),
(653,1432.5,c),
(653,1257.5,l)
);
}
);
};
layerId = m01;
shapes = (
{
closed = 0;
nodes = (
(712,1334,l,{
"Letterink-NibData" = {
MainAxisWidth = 110;
MinorAxisWidth = 105;
ValidForParentMainAxisWidth = 30;
ValidForParentMinorAxisWidth = 15;
};
}),
(933,1334,o),
(1261,1123,o),
(1249,737,cs,{
"Letterink-NibData" = {
MainAxisWidth = 110;
MinorAxisWidth = 105;
ValidForParentMainAxisWidth = 30;
ValidForParentMinorAxisWidth = 15;
};
}),
(1237,351,o),
(933,152,o),
(737,146,cs,{
"Letterink-NibData" = {
MainAxisWidth = 110;
MinorAxisWidth = 105;
ValidForParentMainAxisWidth = 30;
ValidForParentMinorAxisWidth = 15;
};
})
);
}
);
width = 2000;
}
);
unicode = 989473;
}
{
glyphname = "lape-sp";
layers = (
{
background = {
shapes = (
{
closed = 1;
nodes = (
(1665,313,o),
(1873,480,o),
(1873,744,cs),
(1873,1010,o),
(1665,1177,o),
(1449,1177,cs),
(1233,1177,o),
(1025,1010,o),
(1025,744,cs),
(1025,480,o),
(1233,313,o),
(1449,313,cs)
);
},
{
closed = 1;
nodes = (
(1333,489,o),
(1210,580,o),
(1210,744,cs),
(1210,910,o),
(1333,1001,o),
(1449,1001,cs),
(1565,1001,o),
(1688,910,o),
(1688,744,cs),
(1688,580,o),
(1565,489,o),
(1449,489,cs)
);
},
{
closed = 1;
nodes = (
(1106,656,l),
(1106,832,l),
(126,832,l),
(126,656,l)
);
}
);
};
layerId = m01;
shapes = (
{
closed = 0;
nodes = (
(200,745,l,{
"Letterink-NibData" = {
MainAxisWidth = 110;
MinorAxisWidth = 105;
ValidForParentMainAxisWidth = 30;
ValidForParentMinorAxisWidth = 15;
};
}),
(492,732,o),
(788,726,o),
(1098,759,c,{
"Letterink-NibData" = {
MainAxisWidth = 110;
MinorAxisWidth = 105;
ValidForParentMainAxisWidth = 30;
ValidForParentMinorAxisWidth = 15;
};
}),
(1098,1146,o),
(1786,1262,o),
(1784,751,cs,{
"Letterink-NibData" = {
MainAxisWidth = 110;
MinorAxisWidth = 105;
ValidForParentMainAxisWidth = 30;
ValidForParentMinorAxisWidth = 15;
};
}),
(1781,252,o),
(1100,354,o),
(1102,711,cs,{
"Letterink-NibData" = {
MainAxisWidth = 110;
MinorAxisWidth = 105;
ValidForParentMainAxisWidth = 30;
ValidForParentMinorAxisWidth = 15;
};
})
);
}
);
width = 2000;
}
);
unicode = 989474;
}
{
glyphname = "laso-sp";
layers = (
{
background = {
shapes = (
{
closed = 1;
nodes = (
(677,1093,o),
(870,1023,o),
(904,752,c),
(678,766,o),
(485,836,o),
(451,1107,c)
);
},
{
closed = 1;
nodes = (
(212,616,o),
(755,561,o),
(1092,577,c),
(1143,1243,o),
(600,1298,o),
(263,1282,c)
);
},
{
closed = 1;
nodes = (
(1515,1146,o),
(1322,1076,o),
(1096,1062,c),
(1130,1333,o),
(1323,1403,o),
(1549,1417,c)
);
},
{
closed = 1;
nodes = (
(1400,1608,o),
(857,1553,o),
(908,887,c),
(1245,871,o),
(1788,926,o),
(1737,1592,c)
);
},
{
closed = 1;
nodes = (
(908,643,l),
(1094,643,l),
(1094,1506,l),
(908,1506,l)
);
},
{
closed = 1;
nodes = (
(1315.732,231,l),
(684.268,231,l),
(1000,574.055,l)
);
},
{
closed = 1;
nodes = (
(275.732,55,l),
(1724.268,55,l),
(1000,841.945,l)
);
}
);
};
layerId = m01;
shapes = (
{
closed = 1;
nodes = (
(646,334,o),
(815,520,o),
(995,679,c,{
"Letterink-NibData" = {
MainAxisWidth = 110;
MinorAxisWidth = 105;
ValidForParentMainAxisWidth = 30;
ValidForParentMinorAxisWidth = 15;
};
}),
(1209,515,o),
(1392,327,o),
(1561,129,c,{
"Letterink-NibData" = {
MainAxisWidth = 110;
MinorAxisWidth = 105;
ValidForParentMainAxisWidth = 30;
ValidForParentMinorAxisWidth = 15;
};
}),
(1201,99,o),
(843,104,o),
(485,132,c,{
"Letterink-NibData" = {
MainAxisWidth = 110;
MinorAxisWidth = 105;
ValidForParentMainAxisWidth = 30;
ValidForParentMinorAxisWidth = 15;
};
})
);
},
{
closed = 0;
nodes = (
(1003,1457,l,{
"Letterink-NibData" = {
MainAxisWidth = 110;
MinorAxisWidth = 105;
ValidForParentMainAxisWidth = 30;
ValidForParentMinorAxisWidth = 15;
};
}),
(978,1183,o),
(985,917,o),
(983,649,c,{
"Letterink-NibData" = {
MainAxisWidth = 110;
MinorAxisWidth = 105;
ValidForParentMainAxisWidth = 30;
ValidForParentMinorAxisWidth = 15;
};
})
);
},
{
closed = 1;
nodes = (
(1070,1221,o),
(1218,1519,o),
(1642,1519,c,{
"Letterink-NibData" = {
MainAxisWidth = 110;
MinorAxisWidth = 105;
ValidForParentMainAxisWidth = 30;
ValidForParentMinorAxisWidth = 15;
};
}),
(1660,1166,o),
(1353,962,o),
(1029,977,c,{
"Letterink-NibData" = {
MainAxisWidth = 110;
MinorAxisWidth = 105;
ValidForParentMainAxisWidth = 30;
ValidForParentMinorAxisWidth = 15;
};
})
);
},
{
closed = 1;
nodes = (
(653,796,o),
(337,982,o),
(350,1308,c,{
"Letterink-NibData" = {
MainAxisWidth = "110";
MinorAxisWidth = "105";
ValidForParentMainAxisWidth = "30";
ValidForParentMinorAxisWidth = "15";
};
}),
(749,1331,o),
(896,1079,o),
(937,806,c,{
"Letterink-NibData" = {
MainAxisWidth = "110";
MinorAxisWidth = "105";
ValidForParentMainAxisWidth = "30";
ValidForParentMinorAxisWidth = "15";
};
})
);
}
);
width = 2000;
}
);
unicode = 989475;
}
{
glyphname = "lawa-sp";
layers = (
{
background = {
shapes = (
{
closed = 1;
nodes = (
(1259,-20,o),
(1529,272,o),
(1529,744,cs),
(1529,1217,o),
(1259,1510,o),
(912,1510,cs),
(565,1510,o),
(293,1217,o),
(293,744,cs),
(293,272,o),
(565,-20,o),
(912,-20,cs)
);
},
{
closed = 1;
nodes = (
(669,156,o),
(479,364,o),
(479,744,cs),
(479,1126,o),
(669,1334,o),
(912,1334,cs),
(1153,1334,o),
(1343,1127,o),
(1343,744,cs),
(1343,363,o),
(1153,156,o),
(912,156,cs)
);
},
{
closed = 1;
nodes = (
(384,952,l),
(1816,952,l),
(1816,1117,l),
(384,1117,l)
);
}
);
};
layerId = m01;
shapes = (
{
closed = 1;
nodes = (
(577,1442,o),
(407,1201,o),
(407,747,cs,{
"Letterink-NibData" = {
MainAxisWidth = 110;
MinorAxisWidth = 105;
ValidForParentMainAxisWidth = 30;
ValidForParentMinorAxisWidth = 15;
};
}),
(407,-179,o),
(1435,-140,o),
(1435,766,cs,{
"Letterink-NibData" = {
MainAxisWidth = 110;
MinorAxisWidth = 105;
ValidForParentMainAxisWidth = 30;
ValidForParentMinorAxisWidth = 15;
};
}),
(1435,1201,o),
(1184,1442,o),
(896,1442,cs,{
"Letterink-NibData" = {
MainAxisWidth = 110;
MinorAxisWidth = 105;
ValidForParentMainAxisWidth = 30;
ValidForParentMinorAxisWidth = 15;
};
})
);
},
{
closed = 0;
nodes = (
(1769,1033,l,{
"Letterink-NibData" = {
MainAxisWidth = 110;
MinorAxisWidth = 105;
ValidForParentMainAxisWidth = 30;
ValidForParentMinorAxisWidth = 15;
};
}),
(501,1032,l,{
"Letterink-NibData" = {
MainAxisWidth = 110;
MinorAxisWidth = 105;
ValidForParentMainAxisWidth = 30;
ValidForParentMinorAxisWidth = 15;
};
})
);
}
);
width = 2000;
}
);
unicode = 989476;
}
{
glyphname = "len-sp";
layers = (
{
background = {
shapes = (
{
closed = 1;
nodes = (
(594,1315,l),
(594,642,l),
(1405,642,l),
(1405,1315,l)
);
},
{
closed = 1;
nodes = (
(408,1490,l),
(1591,1490,l),
(1591,0,l),
(1405,0,l),
(1405,467,l),
(1093,466,l),
(1093,0,l),
(907,0,l),
(907,466,l),
(594,467,l),
(594,0,l),
(408,0,l)
);
}
);
};
layerId = m01;
shapes = (
{
closed = 0;
nodes = (
(500,93,l,{
"Letterink-NibData" = {
MainAxisWidth = 110;
MinorAxisWidth = 105;
ValidForParentMainAxisWidth = 30;
ValidForParentMinorAxisWidth = 15;
};
}),
(464,546,o),
(474,943,o),
(506,1378,c,{
"Letterink-NibData" = {
MainAxisWidth = 110;
MinorAxisWidth = 105;
ValidForParentMainAxisWidth = 30;
ValidForParentMinorAxisWidth = 15;
};
}),
(856,1419,o),
(1191,1416,o),
(1515,1389,c,{
"Letterink-NibData" = {
MainAxisWidth = 110;
MinorAxisWidth = 105;
ValidForParentMainAxisWidth = 30;
ValidForParentMinorAxisWidth = 15;
};
}),
(1559,936,o),
(1528,526,o),
(1507,75,c,{
"Letterink-NibData" = {
MainAxisWidth = 110;
MinorAxisWidth = 105;
ValidForParentMainAxisWidth = 30;
ValidForParentMinorAxisWidth = 15;
};
})
);
},
{
closed = 0;
nodes = (
(503,565,l,{
"Letterink-NibData" = {
MainAxisWidth = 110;
MinorAxisWidth = 105;
ValidForParentMainAxisWidth = 30;
ValidForParentMinorAxisWidth = 15;
};
}),
(834,526,o),
(1165,522,o),
(1499,561,c,{
"Letterink-NibData" = {
MainAxisWidth = 110;
MinorAxisWidth = 105;
ValidForParentMainAxisWidth = 30;
ValidForParentMinorAxisWidth = 15;
};
})
);
},
{
closed = 0;
nodes = (
(1006,511,l,{
"Letterink-NibData" = {
MainAxisWidth = 110;
MinorAxisWidth = 105;
ValidForParentMainAxisWidth = 30;
ValidForParentMinorAxisWidth = 15;
};
}),
(1015,380,o),
(1014,230,o),
(1008,66,c,{
"Letterink-NibData" = {
MainAxisWidth = 110;
MinorAxisWidth = 105;
ValidForParentMainAxisWidth = 30;
ValidForParentMinorAxisWidth = 15;
};
})
);
}
);
width = 2000;
}
);
unicode = 989477;
}
{
glyphname = "lete-sp";
layers = (
{
background = {
shapes = (
{
closed = 1;
nodes = (
(844,660,l),
(552,146,l),
(704,54,l),
(1001,575,l),
(1297,54,l),
(1449,146,l),
(1157,660,l),
(1745,652,l),
(1745,837,l),
(1156,829,l),
(1449,1344,l),
(1297,1436,l),
(1001,915,l),
(704,1436,l),
(552,1344,l),
(845,829,l),
(255,837,l),
(255,652,l)
);
}
);
};
layerId = m01;
shapes = (
{
closed = 0;
nodes = (
(287,726,l,{
"Letterink-NibData" = {
MainAxisWidth = 110;
MinorAxisWidth = 105;
ValidForParentMainAxisWidth = 30;
ValidForParentMinorAxisWidth = 15;
};
}),
(1712,763,l,{
"Letterink-NibData" = {
MainAxisWidth = 110;
MinorAxisWidth = 105;
ValidForParentMainAxisWidth = 30;
ValidForParentMinorAxisWidth = 15;
};
})
);
},
{
closed = 0;
nodes = (
(666,1363,l,{
"Letterink-NibData" = {
MainAxisWidth = 110;
MinorAxisWidth = 105;
ValidForParentMainAxisWidth = 30;
ValidForParentMinorAxisWidth = 15;
};
}),
(1374,128,l,{
"Letterink-NibData" = {
MainAxisWidth = 110;
MinorAxisWidth = 105;
ValidForParentMainAxisWidth = 30;
ValidForParentMinorAxisWidth = 15;
};
})
);
},
{
closed = 0;
nodes = (
(1336,1367,l,{
"Letterink-NibData" = {
MainAxisWidth = 110;
MinorAxisWidth = 105;
ValidForParentMainAxisWidth = 30;
ValidForParentMinorAxisWidth = 15;
};
}),
(651,134,l,{
"Letterink-NibData" = {
MainAxisWidth = 110;
MinorAxisWidth = 105;
ValidForParentMainAxisWidth = 30;
ValidForParentMinorAxisWidth = 15;
};
})
);
}
);
width = 2000;
}
);
unicode = 989478;
}
{
glyphname = "li-sp";
layers = (
{
background = {
shapes = (
{
closed = 1;
nodes = (
(1501,738,l),
(646,0,l),
(530,116,l),
(1251,738,l),
(530,1374,l),
(646,1490,l)
);
}
);
};
layerId = m01;
shapes = (
{
closed = 0;
nodes = (
(649,1382,l,{
"Letterink-NibData" = {
MainAxisWidth = 110;
MinorAxisWidth = 105;
ValidForParentMainAxisWidth = 30;
ValidForParentMinorAxisWidth = 15;
};
}),
(912,1187,o),
(1153,975,o),
(1376,752,c,{
"Letterink-NibData" = {
MainAxisWidth = 110;
MinorAxisWidth = 105;
ValidForParentMainAxisWidth = 30;
ValidForParentMinorAxisWidth = 15;
};
}),
(1141,508,o),
(897,299,o),
(649,105,c,{
"Letterink-NibData" = {
MainAxisWidth = 110;
MinorAxisWidth = 105;
ValidForParentMainAxisWidth = 30;
ValidForParentMinorAxisWidth = 15;
};
})
);
}
);
width = 2000;
}
);
unicode = 989479;
}
{
glyphname = "lili-sp";
layers = (
{
background = {
shapes = (
{
closed = 1;
nodes = (
(554,1009,l),
(934,481,l),
(1066,481,l),
(1445,1009,l),
(1259,1009,l),
(1000,641,l),
(740,1009,l)
);
}
);
};
layerId = m01;
shapes = (
{
closed = 0;
nodes = (
(677,955,l,{
"Letterink-NibData" = {
MainAxisWidth = 110;
MinorAxisWidth = 105;
ValidForParentMainAxisWidth = 30;
ValidForParentMinorAxisWidth = 15;
};
}),
(798,832,o),
(941,678,o),
(1012,537,c,{
"Letterink-NibData" = {
MainAxisWidth = 110;
MinorAxisWidth = 105;
ValidForParentMainAxisWidth = 30;
ValidForParentMinorAxisWidth = 15;
};
}),
(1074,686,o),
(1193,837,o),
(1320,957,c,{
"Letterink-NibData" = {
MainAxisWidth = 110;
MinorAxisWidth = 105;
ValidForParentMainAxisWidth = 30;
ValidForParentMinorAxisWidth = 15;
};
})
);
}
);
width = 2000;
}
);
unicode = 989480;
}
{
glyphname = "linja-sp";
layers = (
{
background = {
shapes = (
{
closed = 1;
nodes = (
(1437,398,o),
(1590,415,o),
(1851,684,c),
(1719,806,l),
(1507,589,o),
(1468,585,o),
(1168,753,cs),
(922,891,ls),
(563,1092,o),
(410,1075,o),
(149,806,c),
(281,684,l),
(493,901,o),
(532,905,o),
(832,737,cs),
(1078,599,ls)
);
}
);
};
layerId = m01;
shapes = (
{
closed = 0;
nodes = (
(244,768,l,{
"Letterink-NibData" = {
MainAxisWidth = 110;
MinorAxisWidth = 105;
ValidForParentMainAxisWidth = 30;
ValidForParentMinorAxisWidth = 15;
};
}),
(314,858,o),
(418,953,o),
(559,953,cs,{
"Letterink-NibData" = {
MainAxisWidth = 110;
MinorAxisWidth = 105;
ValidForParentMainAxisWidth = 30;
ValidForParentMinorAxisWidth = 15;
};
}),
(767,953,o),
(1221,538,o),
(1448,538,cs,{
"Letterink-NibData" = {
MainAxisWidth = 110;
MinorAxisWidth = 105;
ValidForParentMainAxisWidth = 30;
ValidForParentMinorAxisWidth = 15;
};
}),
(1566,538,o),
(1739,683,o),
(1760,714,c,{
"Letterink-NibData" = {
MainAxisWidth = 110;
MinorAxisWidth = 105;
ValidForParentMainAxisWidth = 30;
ValidForParentMinorAxisWidth = 15;
};
})
);
}
);
width = 2000;
}
);
unicode = 989481;
}
{
glyphname = "lipu-sp";
layers = (
{
background = {
shapes = (
{
closed = 1;
nodes = (
(408,0,l),
(1591,0,l),
(1591,1490,l),
(408,1490,l)
);
},
{
closed = 1;
nodes = (
(1405,1315,l),
(1405,175,l),
(594,175,l),
(594,1315,l)
);
}
);
};
layerId = m01;
shapes = (
{
closed = 1;
nodes = (
(1517,1403,l,{
"Letterink-NibData" = {
MainAxisWidth = 110;
MinorAxisWidth = 105;
ValidForParentMainAxisWidth = 30;
ValidForParentMinorAxisWidth = 15;
};
}),
(1508,88,l,{
"Letterink-NibData" = {
MainAxisWidth = 110;
MinorAxisWidth = 105;
ValidForParentMainAxisWidth = 30;
ValidForParentMinorAxisWidth = 15;
};
}),
(488,91,l,{
"Letterink-NibData" = {
MainAxisWidth = 110;
MinorAxisWidth = 105;
ValidForParentMainAxisWidth = 30;
ValidForParentMinorAxisWidth = 15;
};
}),
(513,1394,l,{
"Letterink-NibData" = {
MainAxisWidth = 110;
MinorAxisWidth = 105;
ValidForParentMainAxisWidth = 30;
ValidForParentMinorAxisWidth = 15;
};
})
);
}
);
width = 2000;
}
);
unicode = 989482;
}
{
glyphname = "loje-sp";
layers = (
{
background = {
shapes = (
{
closed = 1;
nodes = (
(1612,1515,l),
(1612,1516,l),
(435,1516,l),
(435,1515,l),
(255,1515,l),
(255,1104,o),
(590,771,o),
(1001,771,cs),
(1413,771,o),
(1745,1104,o),
(1745,1515,c)
);
},
{
closed = 1;
nodes = (
(1535,1341,l),
(1466,1109,o),
(1260,946,o),
(1001,946,cs),
(741,946,o),
(535,1110,o),
(465,1341,c)
);
},
{
closed = 1;
nodes = (
(1315.732,231,l),
(684.268,231,l),
(1000,702,l)
);
},
{
closed = 1;
nodes = (
(895,880,l),
(275.732,55,l),
(1724.268,55,l),
(1105,880,l)
);
}
);
};
layerId = m01;
shapes = (
{
closed = 1;
nodes = (
(1595,1444,l,{
"Letterink-NibData" = {
MainAxisWidth = 110;
MinorAxisWidth = 105;
ValidForParentMainAxisWidth = 30;
ValidForParentMinorAxisWidth = 15;
};
}),
(1595,1177,o),
(1418,879,o),
(1016,872,cs,{
"Letterink-NibData" = {
MainAxisWidth = 110;
MinorAxisWidth = 105;
ValidForParentMainAxisWidth = 30;
ValidForParentMinorAxisWidth = 15;
};
}),
(614,865,o),
(382,1218,o),
(360,1434,c,{
"Letterink-NibData" = {
MainAxisWidth = 110;
MinorAxisWidth = 105;
ValidForParentMainAxisWidth = 30;
ValidForParentMinorAxisWidth = 15;
};
})
);
},
{
closed = 1;
nodes = (
(1579,133,l,{
"Letterink-NibData" = {
MainAxisWidth = 110;
MinorAxisWidth = 105;
ValidForParentMainAxisWidth = 30;
ValidForParentMinorAxisWidth = 15;
};
}),
(1219,105,o),
(819,106,o),
(406,117,c,{
"Letterink-NibData" = {
MainAxisWidth = 110;
MinorAxisWidth = 105;
ValidForParentMainAxisWidth = 30;
ValidForParentMinorAxisWidth = 15;
};
}),
(1011,851,l,{
"Letterink-NibData" = {
MainAxisWidth = 110;
MinorAxisWidth = 105;
ValidForParentMainAxisWidth = 30;
ValidForParentMinorAxisWidth = 15;
};
})
);
}
);
width = 2000;
}
);
unicode = 989483;
}
{
glyphname = "lon-sp";
layers = (
{
background = {
shapes = (
{
closed = 1;
nodes = (
(375,631,l),
(375,456,l),
(1625,456,l),
(1625,631,l)
);
},
{
closed = 1;
nodes = (
(1086,885,o),
(1158,952,o),
(1158,1035,cs),
(1158,1118,o),
(1086,1185,o),
(999,1185,cs),
(913,1185,o),
(841,1118,o),
(841,1035,cs),
(841,952,o),
(913,885,o),
(999,885,cs)
);
}
);
};
layerId = m01;
shapes = (
{
closed = 0;
nodes = (
(411,538,l,{
"Letterink-NibData" = {
MainAxisWidth = 110;
MinorAxisWidth = 105;
ValidForParentMainAxisWidth = 30;
ValidForParentMinorAxisWidth = 15;
};
}),
(806,582,o),
(1201,563,o),
(1598,548,c,{
"Letterink-NibData" = {
MainAxisWidth = 110;
MinorAxisWidth = 105;
ValidForParentMainAxisWidth = 30;
ValidForParentMinorAxisWidth = 15;
};
})
);
},
{
closed = 0;
nodes = (
(993,1059,l,{
"Letterink-NibData" = {
MainAxisWidth = 270;
MinorAxisWidth = 235;
ValidForParentMainAxisWidth = 30;
ValidForParentMinorAxisWidth = 15;
};
}),
(1004,1039,l,{
"Letterink-NibData" = {
MainAxisWidth = 270;
MinorAxisWidth = 235;
ValidForParentMainAxisWidth = 30;
ValidForParentMinorAxisWidth = 15;
};
})
);
}
);
width = 2000;
}
);
unicode = 989484;
}
{
glyphname = "luka-sp";
layers = (
{
background = {
shapes = (
{
closed = 1;
nodes = (
(406,771,l),
(276,641,l),
(645,0,l),
(920,0,l),
(920,856,l),
(920,1189,o),
(1023,1363,o),
(1229,1363,c),
(1435,1363,o),
(1538,1193,o),
(1538,867,c),
(1538,0,l),
(1724,0,l),
(1724,867,l),
(1724,1294,o),
(1559,1514,o),
(1229,1514,c),
(899,1514,o),
(734,1292,o),
(734,861,c),
(734,187,l)
);
}
);
};
layerId = m01;
shapes = (
{
closed = 0;
nodes = (
(1638,65,l,{
"Letterink-NibData" = {
MainAxisWidth = 110;
MinorAxisWidth = 105;
ValidForParentMainAxisWidth = 30;
ValidForParentMinorAxisWidth = 15;
};
}),
(1699,490,o),
(1683,1466,o),
(1250,1462,cs,{
"Letterink-NibData" = {
MainAxisWidth = 110;
MinorAxisWidth = 105;
ValidForParentMainAxisWidth = 30;
ValidForParentMinorAxisWidth = 15;
};
}),
(786,1458,o),
(767,578,o),
(812,87,cs,{
"Letterink-NibData" = {
MainAxisWidth = 110;
MinorAxisWidth = 105;
ValidForParentMainAxisWidth = 30;
ValidForParentMinorAxisWidth = 15;
};
})
);
},
{
closed = 0;
nodes = (
(384,640,l,{
"Letterink-NibData" = {
MainAxisWidth = 110;
MinorAxisWidth = 105;
ValidForParentMainAxisWidth = 30;
ValidForParentMinorAxisWidth = 15;
};
}),
(504,439,o),
(644,268,o),
(796,116,c,{
"Letterink-NibData" = {
MainAxisWidth = 110;
MinorAxisWidth = 105;
ValidForParentMainAxisWidth = 30;
ValidForParentMinorAxisWidth = 15;
};
})
);
}
);
width = 2000;
}
);
unicode = 989485;
}
{
glyphname = "lukin-sp";
layers = (
{
background = {
shapes = (
{
closed = 1;
nodes = (
(1392,244,o),
(1700,464,o),
(1700,744,cs),
(1700,1024,o),
(1392,1244,o),
(1001,1244,cs),
(608,1244,o),
(300,1024,o),
(300,744,cs),
(300,464,o),
(608,244,o),
(1001,244,cs)
);
},
{
closed = 1;
nodes = (
(699,418,o),
(486,553,o),
(486,746,cs),
(486,936,o),
(699,1069,o),
(1001,1069,cs),
(1302,1069,o),
(1514,936,o),
(1514,746,cs),
(1514,553,o),
(1302,418,o),
(1001,419,cs)
);
},
{
closed = 1;
nodes = (
(1088,595,o),
(1160,662,o),
(1160,745,cs),
(1160,828,o),
(1088,895,o),
(1001,895,cs),
(915,895,o),
(843,828,o),
(843,745,cs),
(843,662,o),
(915,595,o),
(1001,595,cs)
);
}
);
};
layerId = m01;
shapes = (
{
closed = 1;
nodes = (
(372,962,o),
(643,1153,o),
(986,1153,cs,{
"Letterink-NibData" = {
MainAxisWidth = 110;
MinorAxisWidth = 105;
ValidForParentMainAxisWidth = 30;
ValidForParentMinorAxisWidth = 15;
};
}),
(1319,1153,o),
(1620,963,o),
(1620,749,cs,{
"Letterink-NibData" = {
MainAxisWidth = 110;
MinorAxisWidth = 105;
ValidForParentMainAxisWidth = 30;
ValidForParentMinorAxisWidth = 15;
};
}),
(1620,535,o),
(1328,325,o),
(1000,325,cs,{
"Letterink-NibData" = {
MainAxisWidth = 110;
MinorAxisWidth = 105;
ValidForParentMainAxisWidth = 30;
ValidForParentMinorAxisWidth = 15;
};
}),
(677,325,o),
(372,509,o),
(372,738,cs,{
"Letterink-NibData" = {
MainAxisWidth = 110;
MinorAxisWidth = 105;
ValidForParentMainAxisWidth = 30;
ValidForParentMinorAxisWidth = 15;
};
})
);
},
{
closed = 0;
nodes = (
(987,762,l,{
"Letterink-NibData" = {
MainAxisWidth = 270;
MinorAxisWidth = 255;
ValidForParentMainAxisWidth = 30;
ValidForParentMinorAxisWidth = 15;
};
}),
(997,750,l,{
"Letterink-NibData" = {
MainAxisWidth = 270;
MinorAxisWidth = 255;
ValidForParentMainAxisWidth = 30;
ValidForParentMinorAxisWidth = 15;
};
})
);
}
);
width = 2000;
}
);
unicode = 989486;
}
{
glyphname = "lupa-sp";
layers = (
{
background = {
shapes = (
{
closed = 1;
nodes = (
(1230,-20,o),
(1546,119,o),
(1546,530,cs),
(1546,1490,l),
(1356,1490,l),
(1356,530,ls),
(1356,234,o),
(1118,152,o),
(993,152,cs),
(877,152,o),
(644,234,o),
(644,530,cs),
(644,1490,l),
(454,1490,l),
(454,530,ls),
(454,119,o),
(755,-20,o),
(993,-20,cs)
);
}
);
};
layerId = m01;
shapes = (
{
closed = 0;
nodes = (
(524,1428,l,{
"Letterink-NibData" = {
MainAxisWidth = 110;
MinorAxisWidth = 105;
ValidForParentMainAxisWidth = 30;
ValidForParentMinorAxisWidth = 15;
};
}),
(463,313,o),
(618,70,o),
(1015,70,c,{
"Letterink-NibData" = {
MainAxisWidth = 110;
MinorAxisWidth = 105;
ValidForParentMainAxisWidth = 30;
ValidForParentMinorAxisWidth = 15;
};
}),
(1399,70,o),
(1529,219,o),
(1466,1439,c,{
"Letterink-NibData" = {
MainAxisWidth = 110;
MinorAxisWidth = 105;
ValidForParentMainAxisWidth = 30;
ValidForParentMinorAxisWidth = 15;
};
})
);
}
);
width = 2000;
}
);
unicode = 989487;
}
{
glyphname = "ma-sp";
layers = (
{
background = {
shapes = (
{
closed = 1;
nodes = (
(1382,-20,o),
(1735,272,o),
(1735,744,cs),
(1735,1217,o),
(1382,1510,o),
(1000,1510,cs),
(618,1510,o),
(265,1217,o),
(265,744,cs),
(265,272,o),
(618,-20,o),
(1000,-20,cs)
);
},
{
closed = 1;
nodes = (
(732,156,o),
(450,364,o),
(450,744,cs),
(450,1126,o),
(732,1334,o),
(1000,1334,cs),
(1266,1334,o),
(1550,1126,o),
(1550,744,cs),
(1550,364,o),
(1266,156,o),
(1000,156,cs)
);
},
{
closed = 1;
nodes = (
(907,110,l),
(1093,110,l),
(1093,1425,l),
(907,1425,l)
);
},
{
closed = 1;
nodes = (
(365,656,l),
(1640,656,l),
(1640,832,l),
(365,832,l)
);
}
);
};
layerId = m01;
shapes = (
{
closed = 1;
nodes = (
(1358,58,o),
(1648,363,o),
(1648,739,cs,{
"Letterink-NibData" = {
MainAxisWidth = 110;
MinorAxisWidth = 105;
ValidForParentMainAxisWidth = 30;
ValidForParentMinorAxisWidth = 15;
};
}),
(1648,1114,o),
(1358,1419,o),
(1000,1419,cs,{
"Letterink-NibData" = {
MainAxisWidth = 110;
MinorAxisWidth = 105;
ValidForParentMainAxisWidth = 30;
ValidForParentMinorAxisWidth = 15;
};
}),
(641,1419,o),
(351,1114,o),
(351,739,cs,{
"Letterink-NibData" = {
MainAxisWidth = 110;
MinorAxisWidth = 105;
ValidForParentMainAxisWidth = 30;
ValidForParentMinorAxisWidth = 15;
};
}),
(351,363,o),
(641,58,o),
(1000,58,cs,{
"Letterink-NibData" = {
MainAxisWidth = 110;
MinorAxisWidth = 105;
ValidForParentMainAxisWidth = 30;
ValidForParentMinorAxisWidth = 15;
};
})
);
},
{
closed = 0;
nodes = (
(996,1380,l,{
"Letterink-NibData" = {
MainAxisWidth = 110;
MinorAxisWidth = 105;
ValidForParentMainAxisWidth = 30;
ValidForParentMinorAxisWidth = 15;
};
}),
(969,917,o),
(973,508,o),
(993,126,c,{
"Letterink-NibData" = {
MainAxisWidth = 110;
MinorAxisWidth = 105;
ValidForParentMainAxisWidth = 30;
ValidForParentMinorAxisWidth = 15;
};
})
);
},
{
closed = 0;
nodes = (
(391,736,l,{
"Letterink-NibData" = {
MainAxisWidth = 110;
MinorAxisWidth = 105;
ValidForParentMainAxisWidth = 30;
ValidForParentMinorAxisWidth = 15;
};
}),
(776,779,o),
(1183,776,o),
(1603,740,c,{
"Letterink-NibData" = {
MainAxisWidth = 110;
MinorAxisWidth = 105;
ValidForParentMainAxisWidth = 30;
ValidForParentMinorAxisWidth = 15;
};
})
);
}
);
width = 2000;
}
);
unicode = 989488;
}
{
glyphname = "mama-sp";
layers = (
{
background = {
shapes = (
{
closed = 1;
nodes = (
(1264,411,o),
(1516,601,o),
(1516,941,cs),
(1516,1284,o),
(1264,1475,o),
(1000,1475,cs),
(735,1475,o),
(484,1285,o),
(484,941,cs),
(484,600,o),
(734,411,o),
(1000,411,cs)
);
},
{
closed = 1;
nodes = (
(814,586,o),
(670,694,o),
(670,941,cs),
(670,1191,o),
(815,1300,o),
(1000,1300,cs),
(1184,1300,o),
(1330,1190,o),
(1330,941,cs),
(1330,695,o),
(1184,586,o),
(1000,586,cs)
);
},
{
closed = 1;
nodes = (
(825,586,o),
(689,445,o),
(689,275,cs),
(689,103,o),
(825,-34,o),
(1000,-34,cs),
(1175,-34,o),
(1311,103,o),
(1311,275,cs),
(1311,445,o),
(1175,586,o),
(1000,586,cs)
);
},
{
closed = 1;
nodes = (
(1081,411,o),
(1125,365,o),
(1125,275,cs),
(1125,184,o),
(1082,141,o),
(1000,141,cs),
(918,141,o),
(875,184,o),
(875,275,cs),
(875,365,o),
(919,411,o),
(1000,411,cs)
);
}
);
};
layerId = m01;
shapes = (
{
closed = 1;
nodes = (
(762,1390,o),
(578,1192,o),
(582,942,cs,{
"Letterink-NibData" = {
MainAxisWidth = 110;
MinorAxisWidth = 105;
ValidForParentMainAxisWidth = 30;
ValidForParentMinorAxisWidth = 15;
};
}),
(586,696,o),
(765,503,o),
(990,503,cs,{
"Letterink-NibData" = {
MainAxisWidth = 110;
MinorAxisWidth = 105;
ValidForParentMainAxisWidth = 30;
ValidForParentMinorAxisWidth = 15;
};
}),
(1231,503,o),
(1420,677,o),
(1420,898,cs,{
"Letterink-NibData" = {
MainAxisWidth = 110;
MinorAxisWidth = 105;
ValidForParentMainAxisWidth = 30;
ValidForParentMinorAxisWidth = 15;
};
}),
(1420,1175,o),
(1235,1392,o),
(999,1391,cs,{
"Letterink-NibData" = {
MainAxisWidth = 110;
MinorAxisWidth = 105;
ValidForParentMainAxisWidth = 30;
ValidForParentMinorAxisWidth = 15;
};
})
);
},
{
closed = 1;
nodes = (
(882,26,o),
(762,132,o),
(764,267,cs,{
"Letterink-NibData" = {
MainAxisWidth = "110";
MinorAxisWidth = "105";
ValidForParentMainAxisWidth = "30";
ValidForParentMinorAxisWidth = "15";
};
}),
(766,399,o),
(884,503,o),
(995,503,cs,{
"Letterink-NibData" = {
MainAxisWidth = "110";
MinorAxisWidth = "105";
ValidForParentMainAxisWidth = "30";
ValidForParentMinorAxisWidth = "15";
};
}),
(1113,503,o),
(1226,410,o),
(1226,291,cs,{
"Letterink-NibData" = {
MainAxisWidth = "110";
MinorAxisWidth = "105";
ValidForParentMainAxisWidth = "30";
ValidForParentMinorAxisWidth = "15";
};
}),
(1226,142,o),
(1115,25,o),
(999,26,cs,{
"Letterink-NibData" = {
MainAxisWidth = "110";
MinorAxisWidth = "105";
ValidForParentMainAxisWidth = "30";
ValidForParentMinorAxisWidth = "15";
};
})
);
}
);
width = 2000;
}
);
unicode = 989489;
}
{
glyphname = "mani-sp";
layers = (
{
background = {
shapes = (
{
closed = 1;
nodes = (
(1781,1392,o),
(1711,1287,o),
(1546,1222,c),
(1614,1060,l),
(1846,1150,o),
(1966,1331,o),
(1971,1584,c),
(1785,1588,l)
);
},
{
closed = 1;
nodes = (
(29,1584,l),
(34,1331,o),
(154,1150,o),
(386,1060,c),
(454,1222,l),
(289,1287,o),
(219,1392,o),
(215,1588,c)
);
},
{
attr = {
strokeHeight = 176;
strokeWidth = 186;
};
closed = 1;
nodes = (
(1547,1251,l),
(1530,532,l),
(1530,187,o),
(1305,-74,o),
(1005,-76,cs),
(705,-78,o),
(480,187,o),
(480,532,c),
(480,1251,l)
);
}
);
};
layerId = m01;
shapes = (
{
closed = 1;
nodes = (
(1542,1262,l,{
"Letterink-NibData" = {
MainAxisWidth = 110;
MinorAxisWidth = 105;
ValidForParentMainAxisWidth = 30;
ValidForParentMinorAxisWidth = 15;
};
}),
(1633,510,o),
(1537,-81,o),
(1019,-81,c,{
"Letterink-NibData" = {
MainAxisWidth = 110;
MinorAxisWidth = 105;
ValidForParentMainAxisWidth = 30;
ValidForParentMinorAxisWidth = 15;
};
}),
(525,-95,o),
(379,405,o),
(474,1261,c,{
"Letterink-NibData" = {
MainAxisWidth = 110;
MinorAxisWidth = 105;
ValidForParentMainAxisWidth = 30;
ValidForParentMinorAxisWidth = 15;
};
})
);
},
{
closed = 0;
nodes = (
(1890,1510,l,{
"Letterink-NibData" = {
MainAxisWidth = 110;
MinorAxisWidth = 105;
ValidForParentMainAxisWidth = 30;
ValidForParentMinorAxisWidth = 15;
};
}),
(1874,1323,o),
(1789,1189,o),
(1588,1139,c,{
"Letterink-NibData" = {
MainAxisWidth = 110;
MinorAxisWidth = 105;
ValidForParentMainAxisWidth = 30;
ValidForParentMinorAxisWidth = 15;
};
})
);
},
{
closed = 0;
nodes = (
(121,1518,l,{
"Letterink-NibData" = {
MainAxisWidth = 110;
MinorAxisWidth = 105;
ValidForParentMainAxisWidth = 30;
ValidForParentMinorAxisWidth = 15;
};
}),
(158,1279,o),
(271,1178,o),
(429,1152,c,{
"Letterink-NibData" = {
MainAxisWidth = 110;
MinorAxisWidth = 105;
ValidForParentMainAxisWidth = 30;
ValidForParentMinorAxisWidth = 15;
};
})
);
}
);
width = 2000;
}
);
unicode = 989490;
}
{
glyphname = "meli-sp";
layers = (
{
background = {
shapes = (
{
closed = 1;
nodes = (
(1252,614,o),
(1450,812,o),
(1450,1064,cs),
(1450,1316,o),
(1252,1514,o),
(1000,1514,cs),
(748,1514,o),
(550,1316,o),
(550,1064,cs),
(550,812,o),
(748,614,o),
(1000,614,cs)
);
},
{
closed = 1;
nodes = (
(846,789,o),
(725,910,o),
(725,1064,cs),
(725,1218,o),
(846,1339,o),
(1000,1339,cs),
(1154,1339,o),
(1275,1218,o),
(1275,1064,cs),
(1275,910,o),
(1154,789,o),
(1000,789,cs)
);
},
{
closed = 1;
nodes = (
(916,720,l),
(918,0,l),
(1080,0,l),
(1082,720,l)
);
},
{
closed = 1;
nodes = (
(699,278,l),
(1299,280,l),
(1299,442,l),
(699,444,l)
);
}
);
};
layerId = m01;
shapes = (
{
closed = 1;
nodes = (
(1195,682,o),
(1354,850,o),
(1354,1057,cs,{
"Letterink-NibData" = {
MainAxisWidth = 110;
MinorAxisWidth = 105;
ValidForParentMainAxisWidth = 30;
ValidForParentMinorAxisWidth = 15;
};
}),
(1354,1264,o),
(1195,1432,o),
(999,1432,cs,{
"Letterink-NibData" = {
MainAxisWidth = 110;
MinorAxisWidth = 105;
ValidForParentMainAxisWidth = 30;
ValidForParentMinorAxisWidth = 15;
};
}),
(804,1432,o),
(645,1264,o),
(645,1057,cs,{
"Letterink-NibData" = {
MainAxisWidth = 110;
MinorAxisWidth = 105;
ValidForParentMainAxisWidth = 30;
ValidForParentMinorAxisWidth = 15;
};
}),
(645,850,o),
(804,682,o),
(999,682,cs,{
"Letterink-NibData" = {
MainAxisWidth = 110;
MinorAxisWidth = 105;
ValidForParentMainAxisWidth = 30;
ValidForParentMinorAxisWidth = 15;
};
})
);
},
{
closed = 0;
nodes = (
(1000,650,l,{
"Letterink-NibData" = {
MainAxisWidth = 110;
MinorAxisWidth = 105;
ValidForParentMainAxisWidth = 30;
ValidForParentMinorAxisWidth = 15;
};
}),
(1009,445,o),
(1008,253,o),
(1017,55,c,{
"Letterink-NibData" = {
MainAxisWidth = 110;
MinorAxisWidth = 105;
ValidForParentMainAxisWidth = 30;
ValidForParentMinorAxisWidth = 15;
};
})
);
},
{
closed = 0;
nodes = (
(752,362,l,{
"Letterink-NibData" = {
MainAxisWidth = 110;
MinorAxisWidth = 105;
ValidForParentMainAxisWidth = 30;
ValidForParentMinorAxisWidth = 15;
};
}),
(934,348,o),
(1106,344,o),
(1251,362,c,{
"Letterink-NibData" = {
MainAxisWidth = 110;
MinorAxisWidth = 105;
ValidForParentMainAxisWidth = 30;
ValidForParentMinorAxisWidth = 15;
};
})
);
}
);
width = 2000;
}
);
unicode = 989491;
}
{
glyphname = "mi-sp";
layers = (
{
background = {
shapes = (
{
attr = {
identifier = ID0x12a5fb780;
strokeHeight = 176;
strokePos = "1";
strokeWidth = 186;
};
closed = 1;
nodes = (
(1258,567,o),
(1467,773,o),
(1467,1035,cs),
(1467,1297,o),
(1258,1502,o),
(993,1502,cs),
(728,1502,o),
(520,1297,o),
(520,1035,cs),
(520,773,o),
(728,567,o),
(993,567,cs)
);
},
{
attr = {
identifier = ID0x12a5fb780;
strokeHeight = 176;
strokeWidth = 186;
};
closed = 0;
nodes = (
(982,41,l),
(765,338,o),
(610,697,o),
(613,1035,c)
);
}
);
};
layerId = m01;
shapes = (
{
closed = 1;
nodes = (
(1216,631,o),
(1394,814,o),
(1394,1039,cs,{
"Letterink-NibData" = {
MainAxisWidth = 110;
MinorAxisWidth = 105;
ValidForParentMainAxisWidth = 30;
ValidForParentMinorAxisWidth = 15;
};
}),
(1394,1264,o),
(1216,1447,o),
(996,1447,cs,{
"Letterink-NibData" = {
MainAxisWidth = 110;
MinorAxisWidth = 105;
ValidForParentMainAxisWidth = 30;
ValidForParentMinorAxisWidth = 15;
};
}),
(775,1447,o),
(597,1264,o),
(597,1039,cs,{
"Letterink-NibData" = {
MainAxisWidth = 110;
MinorAxisWidth = 105;
ValidForParentMainAxisWidth = 30;
ValidForParentMinorAxisWidth = 15;
};
}),
(597,814,o),
(775,631,o),
(996,631,cs,{
"Letterink-NibData" = {
MainAxisWidth = 110;
MinorAxisWidth = 105;
ValidForParentMainAxisWidth = 30;
ValidForParentMinorAxisWidth = 15;
};
})
);
},
{
closed = 0;
nodes = (
(597,1014,l,{
"Letterink-NibData" = {
MainAxisWidth = 110;
MinorAxisWidth = 105;
ValidForParentMainAxisWidth = 30;
ValidForParentMinorAxisWidth = 15;
};
}),
(565,624,o),
(801,182,o),
(972,52,c,{
"Letterink-NibData" = {
MainAxisWidth = 110;
MinorAxisWidth = 105;
ValidForParentMainAxisWidth = 30;
ValidForParentMinorAxisWidth = 15;
};
})
);
}
);
width = 2000;
}
);
unicode = 989492;
}
{
glyphname = "mije-sp";
layers = (
{
background = {
shapes = (
{
closed = 1;
nodes = (
(1045,89,o),
(1243,287,o),
(1243,539,cs),
(1243,791,o),
(1045,989,o),
(793,989,cs),
(541,989,o),
(343,791,o),
(343,539,cs),
(343,287,o),
(541,89,o),
(793,89,cs)
);
},
{
closed = 1;
nodes = (
(639,264,o),
(518,385,o),
(518,539,cs),
(518,693,o),
(639,814,o),
(793,814,cs),
(947,814,o),
(1068,693,o),
(1068,539,cs),
(1068,385,o),
(947,264,o),
(793,264,cs)
);
},
{
closed = 1;
nodes = (
(1489,1352,l),
(982,842,l),
(1096,728,l),
(1606,1235,l)
);
},
{
closed = 1;
nodes = (
(1481,1227,l),
(1481,886,l),
(1656,886,l),
(1656,1402,l),
(1140,1402,l),
(1140,1227,l)
);
}
);
};
layerId = m01;
shapes = (
{
closed = 1;
nodes = (
(997,183,o),
(1159,342,o),
(1159,539,cs,{
"Letterink-NibData" = {
MainAxisWidth = 110;
MinorAxisWidth = 105;
ValidForParentMainAxisWidth = 30;
ValidForParentMinorAxisWidth = 15;
};
}),
(1159,736,o),
(997,895,o),
(798,895,cs,{
"Letterink-NibData" = {
MainAxisWidth = 110;
MinorAxisWidth = 105;
ValidForParentMainAxisWidth = 30;
ValidForParentMinorAxisWidth = 15;
};
}),
(599,895,o),
(437,736,o),
(437,539,cs,{
"Letterink-NibData" = {
MainAxisWidth = 110;
MinorAxisWidth = 105;
ValidForParentMainAxisWidth = 30;
ValidForParentMinorAxisWidth = 15;
};
}),
(437,342,o),
(599,183,o),
(798,183,cs,{
"Letterink-NibData" = {
MainAxisWidth = 110;
MinorAxisWidth = 105;
ValidForParentMainAxisWidth = 30;
ValidForParentMinorAxisWidth = 15;
};
})
);
},
{
closed = 0;
nodes = (
(1063,819,l,{
"Letterink-NibData" = {
MainAxisWidth = 110;
MinorAxisWidth = 105;
ValidForParentMainAxisWidth = 30;
ValidForParentMinorAxisWidth = 15;
};
}),
(1515,1276,l,{
"Letterink-NibData" = {
MainAxisWidth = 110;
MinorAxisWidth = 105;
ValidForParentMainAxisWidth = 30;
ValidForParentMinorAxisWidth = 15;
};
})
);
},
{
closed = 0;
nodes = (
(1195,1316,l,{
"Letterink-NibData" = {
MainAxisWidth = 110;
MinorAxisWidth = 105;
ValidForParentMainAxisWidth = 30;
ValidForParentMinorAxisWidth = 15;
};
}),
(1559,1321,l,{
"Letterink-NibData" = {
MainAxisWidth = 110;
MinorAxisWidth = 105;
ValidForParentMainAxisWidth = 30;
ValidForParentMinorAxisWidth = 15;
};
}),
(1561,962,l,{
"Letterink-NibData" = {
MainAxisWidth = 110;
MinorAxisWidth = 105;
ValidForParentMainAxisWidth = 30;
ValidForParentMinorAxisWidth = 15;
};
})
);
}
);
width = 2000;
}
);
unicode = 989493;
}
{
glyphname = "moku-sp";
layers = (
{
background = {
shapes = (
{
closed = 1;
nodes = (
(281,771,l),
(151,641,l),
(520,0,l),
(795,0,l),
(795,333,o),
(898,507,o),
(1104,507,cs),
(1310,507,o),
(1413,337,o),
(1413,11,cs),
(1413,0,l),
(1599,0,l),
(1599,11,ls),
(1599,438,o),
(1434,658,o),
(1104,658,cs),
(824,658,o),
(663,498,o),
(620,187,c),
(609,187,l)
);
},
{
attr = {
strokeHeight = 176;
strokeWidth = 186;
};
closed = 1;
nodes = (
(1594,828,o),
(1371,605,o),
(1095,605,cs),
(818,605,o),
(594,828,o),
(594,1231,c),
(1594,1231,l)
);
}
);
};
layerId = m01;
shapes = (
{
closed = 0;
nodes = (
(266,636,l,{
"Letterink-NibData" = {
MainAxisWidth = 110;
MinorAxisWidth = 105;
ValidForParentMainAxisWidth = 30;
ValidForParentMinorAxisWidth = 15;
};
"Letterink-NibStyleId" = 1;
}),
(645,52,l,{
"Letterink-NibData" = {
MainAxisWidth = 110;
MinorAxisWidth = 105;
ValidForParentMainAxisWidth = 30;
ValidForParentMinorAxisWidth = 15;
};
"Letterink-NibStyleId" = 1;
}),
(645,358,o),
(821,579,o),
(1091,579,cs,{
"Letterink-NibData" = {
MainAxisWidth = 110;
MinorAxisWidth = 105;
ValidForParentMainAxisWidth = 30;
ValidForParentMinorAxisWidth = 15;
};
"Letterink-NibStyleId" = 1;
}),
(1446,579,o),
(1506,265,o),
(1512,77,cs,{
"Letterink-NibData" = {
MainAxisWidth = 110;
MinorAxisWidth = 105;
ValidForParentMainAxisWidth = 30;
ValidForParentMinorAxisWidth = 15;
};
"Letterink-NibStyleId" = 1;
})
);
},
{
closed = 1;
nodes = (
(1590,803,o),
(1367,580,o),
(1091,580,cs,{
"Letterink-NibData" = {
MainAxisWidth = 110;
MinorAxisWidth = 105;
ValidForParentMainAxisWidth = 30;
ValidForParentMinorAxisWidth = 15;
};
"Letterink-NibStyleId" = 1;
}),
(814,580,o),
(590,803,o),
(590,1206,c,{
"Letterink-NibData" = {
MainAxisWidth = 110;
MinorAxisWidth = 105;
ValidForParentMainAxisWidth = 30;
ValidForParentMinorAxisWidth = 15;
};
"Letterink-NibStyleId" = 1;
}),
(955,1222,o),
(1289,1222,o),
(1590,1206,c,{
"Letterink-NibData" = {
MainAxisWidth = 110;
MinorAxisWidth = 105;
ValidForParentMainAxisWidth = 30;
ValidForParentMinorAxisWidth = 15;
};
"Letterink-NibStyleId" = 1;
})
);
}
);
width = 2000;
}
);
unicode = 989494;
}
{
glyphname = "moli-sp";
layers = (
{
background = {
shapes = (
{
closed = 1;
nodes = (
(966,839,l),
(834,963,l),
(484,613,l),
(616,489,l)
);
},
{
closed = 1;
nodes = (
(1442,-20,o),
(1789,316,o),
(1789,744,cs),
(1789,1173,o),
(1442,1510,o),
(1001,1510,cs),
(559,1510,o),
(211,1173,o),
(211,744,cs),
(211,316,o),
(559,-20,o),
(1001,-20,cs)
);
},
{
closed = 1;
nodes = (
(646,156,o),
(396,399,o),
(396,744,cs),
(396,1090,o),
(646,1334,o),
(1001,1334,cs),
(1355,1334,o),
(1604,1090,o),
(1604,744,cs),
(1604,399,o),
(1355,156,o),
(1001,156,cs)
);
},
{
closed = 1;
nodes = (
(616,963,l),
(484,839,l),
(834,489,l),
(966,613,l)
);
},
{
closed = 1;
nodes = (
(1515,839,l),
(1383,963,l),
(1033,613,l),
(1165,489,l)
);
},
{
closed = 1;
nodes = (
(1165,963,l),
(1033,839,l),
(1383,489,l),
(1515,613,l)
);
}
);
};
layerId = m01;
shapes = (
{
closed = 1;
nodes = (
(1379,64,o),
(1685,366,o),
(1685,739,cs,{
"Letterink-NibData" = {
MainAxisWidth = 110;
MinorAxisWidth = 105;
ValidForParentMainAxisWidth = 30;
ValidForParentMinorAxisWidth = 15;
};
}),
(1685,1111,o),
(1379,1413,o),
(1001,1413,cs,{
"Letterink-NibData" = {
MainAxisWidth = 110;
MinorAxisWidth = 105;
ValidForParentMainAxisWidth = 30;
ValidForParentMinorAxisWidth = 15;
};
}),
(622,1413,o),
(316,1111,o),
(316,739,cs,{
"Letterink-NibData" = {
MainAxisWidth = 110;
MinorAxisWidth = 105;
ValidForParentMainAxisWidth = 30;
ValidForParentMinorAxisWidth = 15;
};
}),
(316,366,o),
(622,64,o),
(1001,64,cs,{
"Letterink-NibData" = {
MainAxisWidth = 110;
MinorAxisWidth = 105;
ValidForParentMainAxisWidth = 30;
ValidForParentMinorAxisWidth = 15;
};
})
);
},
{
closed = 0;
nodes = (
(601,869,l,{
"Letterink-NibData" = {
MainAxisWidth = 110;
MinorAxisWidth = 105;
ValidForParentMainAxisWidth = 30;
ValidForParentMinorAxisWidth = 15;
};
}),
(856,584,l,{
"Letterink-NibData" = {
MainAxisWidth = 110;
MinorAxisWidth = 105;
ValidForParentMainAxisWidth = 30;
ValidForParentMinorAxisWidth = 15;
};
})
);
},
{
closed = 0;
nodes = (
(863,879,l,{
"Letterink-NibData" = {
MainAxisWidth = 110;
MinorAxisWidth = 105;
ValidForParentMainAxisWidth = 30;
ValidForParentMinorAxisWidth = 15;
};
}),
(596,586,l,{
"Letterink-NibData" = {
MainAxisWidth = 110;
MinorAxisWidth = 105;
ValidForParentMainAxisWidth = 30;
ValidForParentMinorAxisWidth = 15;
};
})
);
},
{
closed = 0;
nodes = (
(1151,874,l,{
"Letterink-NibData" = {
MainAxisWidth = 110;
MinorAxisWidth = 105;
ValidForParentMainAxisWidth = 30;
ValidForParentMinorAxisWidth = 15;
};
}),
(1411,594,l,{
"Letterink-NibData" = {
MainAxisWidth = 110;
MinorAxisWidth = 105;
ValidForParentMainAxisWidth = 30;
ValidForParentMinorAxisWidth = 15;
};
})
);
},
{
closed = 0;
nodes = (
(1399,865,l,{
"Letterink-NibData" = {
MainAxisWidth = 110;
MinorAxisWidth = 105;
ValidForParentMainAxisWidth = 30;
ValidForParentMinorAxisWidth = 15;
};
}),
(1165,613,l,{
"Letterink-NibData" = {
MainAxisWidth = 110;
MinorAxisWidth = 105;
ValidForParentMainAxisWidth = 30;
ValidForParentMinorAxisWidth = 15;
};
})
);
}
);
width = 2000;
}
);
unicode = 989495;
}
{
glyphname = "monsi-sp";
layers = (
{
background = {
shapes = (
{
closed = 1;
nodes = (
(1540,1490,l),
(837,1490,l),
(837,0,l),
(1540,0,l),
(1540,175,l),
(1023,175,l),
(1023,1315,l),
(1540,1315,l)
);
},
{
closed = 1;
nodes = (
(671,595,o),
(743,662,o),
(743,745,cs),
(743,828,o),
(671,895,o),
(584,895,cs),
(498,895,o),
(426,828,o),
(426,745,cs),
(426,662,o),
(498,595,o),
(584,595,cs)
);
}
);
};
layerId = m01;
shapes = (
{
closed = 0;
nodes = (
(1463,1408,l,{
"Letterink-NibData" = {
MainAxisWidth = 110;
MinorAxisWidth = 105;
ValidForParentMainAxisWidth = 30;
ValidForParentMinorAxisWidth = 15;
};
}),
(1292,1433,o),
(1115,1433,o),
(927,1406,c,{
"Letterink-NibData" = {
MainAxisWidth = 110;
MinorAxisWidth = 105;
ValidForParentMainAxisWidth = 30;
ValidForParentMinorAxisWidth = 15;
};
}),
(889,960,o),
(890,523,o),
(932,94,c,{
"Letterink-NibData" = {
MainAxisWidth = 110;
MinorAxisWidth = 105;
ValidForParentMainAxisWidth = 30;
ValidForParentMinorAxisWidth = 15;
};
}),
(1119,55,o),
(1307,48,o),
(1498,78,c,{
"Letterink-NibData" = {
MainAxisWidth = 110;
MinorAxisWidth = 105;
ValidForParentMainAxisWidth = 30;
ValidForParentMinorAxisWidth = 15;
};
})
);
},
{
closed = 0;
nodes = (
(572,756,l,{
"Letterink-NibData" = {
MainAxisWidth = 270;
MinorAxisWidth = 235;
ValidForParentMainAxisWidth = 30;
ValidForParentMinorAxisWidth = 15;
};
}),
(583,747,l,{
"Letterink-NibData" = {
MainAxisWidth = 270;
MinorAxisWidth = 235;
ValidForParentMainAxisWidth = 30;
ValidForParentMinorAxisWidth = 15;
};
})
);
}
);
width = 2000;
}
);
unicode = 989496;
}
{
glyphname = "mu-sp";
layers = (
{
background = {
shapes = (
{
closed = 1;
nodes = (
(691,832,o),
(843,984,o),
(843,1169,cs),
(843,1354,o),
(691,1507,o),
(500,1507,cs),
(309,1507,o),
(157,1354,o),
(157,1169,cs),
(157,984,o),
(309,832,o),
(500,832,cs)
);
},
{
closed = 1;
nodes = (
(402,1007,o),
(343,1066,o),
(343,1169,cs),
(343,1272,o),
(402,1332,o),
(500,1332,cs),
(598,1332,o),
(657,1272,o),
(657,1169,cs),
(657,1066,o),
(598,1007,o),
(500,1007,cs)
);
},
{
closed = 1;
nodes = (
(1691,832,o),
(1843,984,o),
(1843,1169,cs),
(1843,1354,o),
(1691,1507,o),
(1500,1507,cs),
(1309,1507,o),
(1157,1354,o),
(1157,1169,cs),
(1157,984,o),
(1309,832,o),
(1500,832,cs)
);
},
{
closed = 1;
nodes = (
(1402,1007,o),
(1343,1066,o),
(1343,1169,cs),
(1343,1272,o),
(1402,1332,o),
(1500,1332,cs),
(1598,1332,o),
(1657,1272,o),
(1657,1169,cs),
(1657,1066,o),
(1598,1007,o),
(1500,1007,cs)
);
},
{
closed = 1;
nodes = (
(1593,921,o),
(1343,1177,o),
(1000,1177,cs),
(657,1177,o),
(407,921,o),
(407,580,cs),
(407,239,o),
(657,-17,o),
(1000,-17,cs),
(1343,-17,o),
(1593,239,o),
(1593,580,cs)
);
},
{
closed = 1;
nodes = (
(593,841,o),
(751,1002,o),
(1000,1002,cs),
(1249,1002,o),
(1407,841,o),
(1407,580,cs),
(1407,319,o),
(1249,158,o),
(1000,158,cs),
(751,158,o),
(593,319,o),
(593,580,cs)
);
},
{
closed = 1;
nodes = (
(1087,195,o),
(1159,262,o),
(1159,345,cs),
(1159,428,o),
(1087,495,o),
(1000,495,cs),
(914,495,o),
(842,428,o),
(842,345,cs),
(842,262,o),
(914,195,o),
(1000,195,cs)
);
}
);
};
layerId = m01;
shapes = (
{
closed = 1;
nodes = (
(355,1420,o),
(241,1319,o),
(245,1190,cs,{
"Letterink-NibData" = {
MainAxisWidth = 110;
MinorAxisWidth = 105;
ValidForParentMainAxisWidth = 30;
ValidForParentMinorAxisWidth = 15;
};
}),
(249,1048,o),
(354,936,o),
(483,936,cs,{
"Letterink-NibData" = {
MainAxisWidth = 110;
MinorAxisWidth = 105;
ValidForParentMainAxisWidth = 30;
ValidForParentMinorAxisWidth = 15;
};
}),
(623,936,o),
(742,1039,o),
(752,1170,cs,{
"Letterink-NibData" = {
MainAxisWidth = 110;
MinorAxisWidth = 105;
ValidForParentMainAxisWidth = 30;
ValidForParentMinorAxisWidth = 15;
};
}),
(763,1310,o),
(653,1420,o),
(503,1420,cs,{
"Letterink-NibData" = {
MainAxisWidth = 110;
MinorAxisWidth = 105;
ValidForParentMainAxisWidth = 30;
ValidForParentMinorAxisWidth = 15;
};
})
);
},
{
closed = 1;
nodes = (
(1354,1417,o),
(1242,1312,o),
(1255,1194,cs,{
"Letterink-NibData" = {
MainAxisWidth = 110;
MinorAxisWidth = 105;
ValidForParentMainAxisWidth = 30;
ValidForParentMinorAxisWidth = 15;
};
}),
(1274,1028,o),
(1371,906,o),
(1476,915,cs,{
"Letterink-NibData" = {
MainAxisWidth = 110;
MinorAxisWidth = 105;
ValidForParentMainAxisWidth = 30;
ValidForParentMinorAxisWidth = 15;
};
}),
(1655,931,o),
(1795,1039,o),
(1794,1161,cs,{
"Letterink-NibData" = {
MainAxisWidth = 110;
MinorAxisWidth = 105;
ValidForParentMainAxisWidth = 30;
ValidForParentMinorAxisWidth = 15;
};
}),
(1793,1327,o),
(1668,1446,o),
(1510,1431,cs,{
"Letterink-NibData" = {
MainAxisWidth = 110;
MinorAxisWidth = 105;
ValidForParentMainAxisWidth = 30;
ValidForParentMinorAxisWidth = 15;
};
})
);
},
{
closed = 1;
nodes = (
(737,1097,o),
(513,880,o),
(507,603,cs,{
"Letterink-NibData" = {
MainAxisWidth = 110;
MinorAxisWidth = 105;
ValidForParentMainAxisWidth = 30;
ValidForParentMinorAxisWidth = 15;
};
}),
(500,294,o),
(715,59,o),
(996,71,cs,{
"Letterink-NibData" = {
MainAxisWidth = 110;
MinorAxisWidth = 105;
ValidForParentMainAxisWidth = 30;
ValidForParentMinorAxisWidth = 15;
};
}),
(1275,82,o),
(1497,301,o),
(1501,568,cs,{
"Letterink-NibData" = {
MainAxisWidth = 110;
MinorAxisWidth = 105;
ValidForParentMainAxisWidth = 30;
ValidForParentMinorAxisWidth = 15;
};
}),
(1506,864,o),
(1292,1097,o),
(1015,1097,cs,{
"Letterink-NibData" = {
MainAxisWidth = 110;
MinorAxisWidth = 105;
ValidForParentMainAxisWidth = 30;
ValidForParentMinorAxisWidth = 15;
};
})
);
},
{
closed = 0;
nodes = (
(997,356,l,{
"Letterink-NibData" = {
MainAxisWidth = 270;
MinorAxisWidth = 235;
ValidForParentMainAxisWidth = 30;
ValidForParentMinorAxisWidth = 15;
};
}),
(1007,341,l,{
"Letterink-NibData" = {
MainAxisWidth = 270;
MinorAxisWidth = 235;
ValidForParentMainAxisWidth = 30;
ValidForParentMinorAxisWidth = 15;
};
})
);
}
);
width = 2000;
}
);
unicode = 989497;
}
{
glyphname = "mun-sp";
layers = (
{
background = {
shapes = (
{
closed = 1;
nodes = (
(708,30,o),
(631,43,o),
(559,68,c),
(834,172,o),
(1030,436,o),
(1030,745,c),
(1030,1054,o),
(834,1318,o),
(559,1422,c),
(631,1447,o),
(708,1460,o),
(792,1460,c),
(1195,1460,o),
(1502,1153,o),
(1502,745,c),
(1502,337,o),
(1195,30,o),
(792,30,c)
);
},
{
closed = 1;
nodes = (
(309,1293,l),
(617,1288,o),
(844,1058,o),
(844,745,c),
(844,432,o),
(617,202,o),
(309,197,c),
(309,-6,l),
(448,-94,o),
(615,-146,o),
(792,-146,c),
(1287,-146,o),
(1688,255,o),
(1688,745,c),
(1688,1235,o),
(1287,1636,o),
(792,1636,c),
(615,1636,o),
(448,1584,o),
(309,1496,c)
);
}
);
};
layerId = m01;
shapes = (
{
closed = 1;
nodes = (
(1137,1044,o),
(1145,434,o),
(402,68,c,{
"Letterink-NibData" = {
MainAxisWidth = 110;
MinorAxisWidth = 105;
ValidForParentMainAxisWidth = 30;
ValidForParentMinorAxisWidth = 15;
};
}),
(786,-246,o),
(1597,8,o),
(1597,748,c,{
"Letterink-NibData" = {
MainAxisWidth = 110;
MinorAxisWidth = 105;
ValidForParentMainAxisWidth = 30;
ValidForParentMinorAxisWidth = 15;
};
}),
(1597,1425,o),
(820,1666,o),
(430,1433,c,{
"Letterink-NibData" = {
MainAxisWidth = 110;
MinorAxisWidth = 105;
ValidForParentMainAxisWidth = 30;
ValidForParentMinorAxisWidth = 15;
};
})
);
}
);
width = 2000;
}
);
unicode = 989498;
}
{
glyphname = "musi-sp";
layers = (
{
background = {
shapes = (
{
closed = 1;
nodes = (
(691,968,o),
(843,1120,o),
(843,1305,cs),
(843,1490,o),
(691,1643,o),
(500,1643,cs),
(309,1643,o),
(157,1490,o),
(157,1305,cs),
(157,1120,o),
(309,968,o),
(500,968,cs)
);
},
{
closed = 1;
nodes = (
(402,1143,o),
(343,1202,o),
(343,1305,cs),
(343,1408,o),
(402,1468,o),
(500,1468,cs),
(598,1468,o),
(657,1408,o),
(657,1305,cs),
(657,1202,o),
(598,1143,o),
(500,1143,cs)
);
},
{
closed = 1;
nodes = (
(1691,968,o),
(1843,1120,o),
(1843,1305,cs),
(1843,1490,o),
(1691,1643,o),
(1500,1643,cs),
(1309,1643,o),
(1157,1490,o),
(1157,1305,cs),
(1157,1120,o),
(1309,968,o),
(1500,968,cs)
);
},
{
closed = 1;
nodes = (
(1402,1143,o),
(1343,1202,o),
(1343,1305,cs),
(1343,1408,o),
(1402,1468,o),
(1500,1468,cs),
(1598,1468,o),
(1657,1408,o),
(1657,1305,cs),
(1657,1202,o),
(1598,1143,o),
(1500,1143,cs)
);
},
{
closed = 1;
nodes = (
(1407,500,ls),
(1407,239,o),
(1249,78,o),
(1000,78,cs),
(751,78,o),
(593,239,o),
(593,500,cs),
(593,1030,l),
(407,1030,l),
(407,500,ls),
(407,159,o),
(657,-97,o),
(1000,-97,cs),
(1343,-97,o),
(1593,159,o),
(1593,500,cs),
(1593,1030,l),
(1407,1030,l)
);
}
);
};
layerId = m01;
shapes = (
{
closed = 1;
nodes = (
(661,1050,o),
(781,1168,o),
(781,1313,cs,{
"Letterink-NibData" = {
MainAxisWidth = 110;
MinorAxisWidth = 105;
ValidForParentMainAxisWidth = 30;
ValidForParentMinorAxisWidth = 15;
};
}),
(781,1458,o),
(661,1576,o),
(513,1576,cs,{
"Letterink-NibData" = {
MainAxisWidth = 110;
MinorAxisWidth = 105;
ValidForParentMainAxisWidth = 30;
ValidForParentMinorAxisWidth = 15;
};
}),
(365,1576,o),
(245,1458,o),
(245,1313,cs,{
"Letterink-NibData" = {
MainAxisWidth = 110;
MinorAxisWidth = 105;
ValidForParentMainAxisWidth = 30;
ValidForParentMinorAxisWidth = 15;
};
}),
(245,1168,o),
(365,1050,o),
(513,1050,cs,{
"Letterink-NibData" = {
MainAxisWidth = 110;
MinorAxisWidth = 105;
ValidForParentMainAxisWidth = 30;
ValidForParentMinorAxisWidth = 15;
};
})
);
},
{
closed = 1;
nodes = (
(1653,1054,o),
(1770,1167,o),
(1770,1306,cs,{
"Letterink-NibData" = {
MainAxisWidth = 110;
MinorAxisWidth = 105;
ValidForParentMainAxisWidth = 30;
ValidForParentMinorAxisWidth = 15;
};
}),
(1770,1444,o),
(1653,1557,o),
(1510,1557,cs,{
"Letterink-NibData" = {
MainAxisWidth = 110;
MinorAxisWidth = 105;
ValidForParentMainAxisWidth = 30;
ValidForParentMinorAxisWidth = 15;
};
}),
(1366,1557,o),
(1249,1444,o),
(1249,1306,cs,{
"Letterink-NibData" = {
MainAxisWidth = 110;
MinorAxisWidth = 105;
ValidForParentMainAxisWidth = 30;
ValidForParentMinorAxisWidth = 15;
};
}),
(1249,1167,o),
(1366,1054,o),
(1510,1054,cs,{
"Letterink-NibData" = {
MainAxisWidth = 110;
MinorAxisWidth = 105;
ValidForParentMainAxisWidth = 30;
ValidForParentMinorAxisWidth = 15;
};
})
);
},
{
closed = 0;
nodes = (
(489,1022,l,{
"Letterink-NibData" = {
MainAxisWidth = 110;
MinorAxisWidth = 105;
ValidForParentMainAxisWidth = 30;
ValidForParentMinorAxisWidth = 15;
};
}),
(473,661,o),
(510,-9,o),
(1001,-1,cs,{
"Letterink-NibData" = {
MainAxisWidth = 110;
MinorAxisWidth = 105;
ValidForParentMainAxisWidth = 30;
ValidForParentMinorAxisWidth = 15;
};
}),
(1553,8,o),
(1539,742,o),
(1541,1027,cs,{
"Letterink-NibData" = {
MainAxisWidth = 110;
MinorAxisWidth = 105;
ValidForParentMainAxisWidth = 30;
ValidForParentMinorAxisWidth = 15;
};
})
);
}
);
width = 2000;
}
);
unicode = 989499;
}
{
glyphname = "mute-sp";
layers = (
{
background = {
shapes = (
{
closed = 1;
nodes = (
(495,1490,l),
(495,0,l),
(685,0,l),
(685,1490,l)
);
},
{
closed = 1;
nodes = (
(905,1490,l),
(905,0,l),
(1095,0,l),
(1095,1490,l)
);
},
{
closed = 1;
nodes = (
(1315,1490,l),
(1315,0,l),
(1505,0,l),
(1505,1490,l)
);
}
);
};
layerId = m01;
shapes = (
{
closed = 0;
nodes = (
(595,1460,l,{
"Letterink-NibData" = {
MainAxisWidth = 110;
MinorAxisWidth = 105;
ValidForParentMainAxisWidth = 30;
ValidForParentMinorAxisWidth = 15;
};
}),
(595,1038,o),
(618,512,o),
(580,21,c,{
"Letterink-NibData" = {
MainAxisWidth = 110;
MinorAxisWidth = 105;
ValidForParentMainAxisWidth = 30;
ValidForParentMinorAxisWidth = 15;
};
})
);
},
{
closed = 0;
nodes = (
(1006,1462,l,{
"Letterink-NibData" = {
MainAxisWidth = 110;
MinorAxisWidth = 105;
ValidForParentMainAxisWidth = 30;
ValidForParentMinorAxisWidth = 15;
};
}),
(1018,1018,o),
(1002,533,o),
(997,17,c,{
"Letterink-NibData" = {
MainAxisWidth = 110;
MinorAxisWidth = 105;
ValidForParentMainAxisWidth = 30;
ValidForParentMinorAxisWidth = 15;
};
})
);
},
{
closed = 0;
nodes = (
(1418,1469,l,{
"Letterink-NibData" = {
MainAxisWidth = 110;
MinorAxisWidth = 105;
ValidForParentMainAxisWidth = 30;
ValidForParentMinorAxisWidth = 15;
};
}),
(1399,1003,o),
(1437,511,o),
(1401,29,c,{
"Letterink-NibData" = {
MainAxisWidth = 110;
MinorAxisWidth = 105;
ValidForParentMainAxisWidth = 30;
ValidForParentMinorAxisWidth = 15;
};
})
);
}
);
width = 2000;
}
);
unicode = 989500;
}
{
glyphname = "nanpa-sp";
layers = (
{
background = {
shapes = (
{
closed = 1;
nodes = (
(1345,0,l),
(1329,1490,l),
(1178,1490,l),
(1192,0,l)
);
},
{
closed = 1;
nodes = (
(1740,411,l),
(1740,561,l),
(243,561,l),
(243,411,l)
);
},
{
closed = 1;
nodes = (
(821,0,l),
(805,1490,l),
(654,1490,l),
(670,0,l)
);
},
{
closed = 1;
nodes = (
(1740,927,l),
(1740,1079,l),
(243,1079,l),
(243,927,l)
);
}
);
};
layerId = m01;
shapes = (
{
closed = 0;
nodes = (
(725,1443,l,{
"Letterink-NibData" = {
MainAxisWidth = 110;
MinorAxisWidth = 105;
ValidForParentMainAxisWidth = 30;
ValidForParentMinorAxisWidth = 15;
};
}),
(752,970,o),
(761,506,o),
(752,56,c,{
"Letterink-NibData" = {
MainAxisWidth = 110;
MinorAxisWidth = 105;
ValidForParentMainAxisWidth = 30;
ValidForParentMinorAxisWidth = 15;
};
})
);
},
{
closed = 0;
nodes = (
(1257,1441,l,{
"Letterink-NibData" = {
MainAxisWidth = 110;
MinorAxisWidth = 105;
ValidForParentMainAxisWidth = 30;
ValidForParentMinorAxisWidth = 15;
};
}),
(1284,982,o),
(1287,528,o),
(1267,81,c,{
"Letterink-NibData" = {
MainAxisWidth = 110;
MinorAxisWidth = 105;
ValidForParentMainAxisWidth = 30;
ValidForParentMinorAxisWidth = 15;
};
})
);
},
{
closed = 0;
nodes = (
(297,1010,l,{
"Letterink-NibData" = {
MainAxisWidth = 110;
MinorAxisWidth = 105;
ValidForParentMainAxisWidth = 30;
ValidForParentMinorAxisWidth = 15;
};
}),
(770,1032,o),
(1237,1031,o),
(1698,1009,c,{
"Letterink-NibData" = {
MainAxisWidth = 110;
MinorAxisWidth = 105;
ValidForParentMainAxisWidth = 30;
ValidForParentMinorAxisWidth = 15;
};
})
);
},
{
closed = 0;
nodes = (
(300,495,l,{
"Letterink-NibData" = {
MainAxisWidth = 110;
MinorAxisWidth = 105;
ValidForParentMainAxisWidth = 30;
ValidForParentMinorAxisWidth = 15;
};
}),
(785,479,o),
(1245,481,o),
(1685,503,c,{
"Letterink-NibData" = {
MainAxisWidth = 110;
MinorAxisWidth = 105;
ValidForParentMainAxisWidth = 30;
ValidForParentMinorAxisWidth = 15;
};
})
);
}
);
width = 2000;
}
);
unicode = 989501;
}
{
glyphname = "nasa-sp";
layers = (
{
background = {
shapes = (
{
closed = 1;
nodes = (
(773,202,o),
(544,444,o),
(544,798,cs),
(544,1188,o),
(797,1331,o),
(1048,1330,cs),
(1295,1328,o),
(1457,1191,o),
(1455,966,cs),
(1453,728,o),
(1262,623,o),
(1113,622,cs),
(974,622,o),
(883,717,o),
(883,873,cs),
(883,958,o),
(930,1002,o),
(1022,1002,cs),
(1087,1002,o),
(1121,963,o),
(1121,875,c),
(1307,875,l),
(1307,1041,o),
(1183,1177,o),
(1022,1177,cs),
(841,1177,o),
(697,1043,o),
(697,873,cs),
(697,637,o),
(880,446,o),
(1115,448,cs),
(1330,449,o),
(1639,622,o),
(1641,964,cs),
(1643,1280,o),
(1380,1502,o),
(1050,1504,cs),
(726,1507,o),
(358,1290,o),
(358,798,cs),
(358,371,o),
(649,65,o),
(948,-79,c),
(1028,79,l)
);
}
);
};
layerId = m01;
shapes = (
{
closed = 0;
nodes = (
(1195,890,l,{
"Letterink-NibData" = {
MainAxisWidth = 110;
MinorAxisWidth = 105;
ValidForParentMainAxisWidth = 30;
ValidForParentMinorAxisWidth = 15;
};
}),
(1195,1118,o),
(811,1131,o),
(804,909,c,{
"Letterink-NibData" = {
MainAxisWidth = 110;
MinorAxisWidth = 105;
ValidForParentMainAxisWidth = 30;
ValidForParentMinorAxisWidth = 15;
};
}),
(764,383,o),
(1563,419,o),
(1555,927,cs,{
"Letterink-NibData" = {
MainAxisWidth = 110;
MinorAxisWidth = 105;
ValidForParentMainAxisWidth = 30;
ValidForParentMinorAxisWidth = 15;
};
}),
(1546,1490,o),
(636,1617,o),
(456,939,cs,{
"Letterink-NibData" = {
MainAxisWidth = 110;
MinorAxisWidth = 105;
ValidForParentMainAxisWidth = 30;
ValidForParentMinorAxisWidth = 15;
};
}),
(335,483,o),
(804,66,o),
(955,18,cs,{
"Letterink-NibData" = {
MainAxisWidth = 110;
MinorAxisWidth = 105;
ValidForParentMainAxisWidth = 30;
ValidForParentMinorAxisWidth = 15;
};
})
);
}
);
width = 2000;
}
);
unicode = 989502;
}
{
glyphname = "nasin-sp";
layers = (
{
background = {
shapes = (
{
closed = 1;
nodes = (
(1093,1514,l),
(907,1514,l),
(907,0,l),
(1093,0,l)
);
},
{
closed = 1;
nodes = (
(1000,1188,l),
(334,522,l),
(466,398,l),
(1000,932,l),
(1534,398,l),
(1666,522,l)
);
}
);
};
layerId = m01;
shapes = (
{
closed = 0;
nodes = (
(1004,1470,l,{
"Letterink-NibData" = {
MainAxisWidth = 110;
MinorAxisWidth = 105;
ValidForParentMainAxisWidth = 30;
ValidForParentMinorAxisWidth = 15;
};
}),
(1024,988,o),
(1029,504,o),
(1007,20,c,{
"Letterink-NibData" = {
MainAxisWidth = 110;
MinorAxisWidth = 105;
ValidForParentMainAxisWidth = 30;
ValidForParentMinorAxisWidth = 15;
};
})
);
},
{
closed = 0;
nodes = (
(461,524,l,{
"Letterink-NibData" = {
MainAxisWidth = 110;
MinorAxisWidth = 105;
ValidForParentMainAxisWidth = 30;
ValidForParentMinorAxisWidth = 15;
};
}),
(653,697,o),
(842,873,o),
(1007,1078,c,{
"Letterink-NibData" = {
MainAxisWidth = 110;
MinorAxisWidth = 105;
ValidForParentMainAxisWidth = 30;
ValidForParentMinorAxisWidth = 15;
};
}),
(1168,872,o),
(1352,686,o),
(1542,505,c,{
"Letterink-NibData" = {
MainAxisWidth = 110;
MinorAxisWidth = 105;
ValidForParentMainAxisWidth = 30;
ValidForParentMinorAxisWidth = 15;
};
})
);
}
);
width = 2000;
}
);
unicode = 989503;
}
{
glyphname = "nena-sp";
layers = (
{
background = {
shapes = (
{
closed = 1;
nodes = (
(755,1514,o),
(454,1375,o),
(454,964,cs),
(454,4,l),
(644,4,l),
(644,964,ls),
(644,1260,o),
(877,1342,o),
(993,1342,cs),
(1118,1342,o),
(1356,1260,o),
(1356,964,cs),
(1356,4,l),
(1546,4,l),
(1546,964,ls),
(1546,1375,o),
(1230,1514,o),
(993,1514,cs)
);
}
);
};
layerId = m01;
shapes = (
{
closed = 0;
nodes = (
(1466,53,l,{
"Letterink-NibData" = {
MainAxisWidth = "110";
MinorAxisWidth = "105";
ValidForParentMainAxisWidth = "30";
ValidForParentMinorAxisWidth = "15";
};
}),
(1591,1300,o),
(1265,1439,o),
(988,1439,c,{
"Letterink-NibData" = {
MainAxisWidth = "110";
MinorAxisWidth = "105";
ValidForParentMainAxisWidth = "30";
ValidForParentMinorAxisWidth = "15";
};
}),
(683,1446,o),
(452,1223,o),
(552,62,c,{
"Letterink-NibData" = {
MainAxisWidth = "110";
MinorAxisWidth = "105";
ValidForParentMainAxisWidth = "30";
ValidForParentMinorAxisWidth = "15";
};
})
);
}
);
width = 2000;
}
);
unicode = 989504;
}
{
glyphname = "ni-sp";
layers = (
{
background = {
shapes = (
{
closed = 1;
nodes = (
(1000,0,l),
(1652,652,l),
(1536,768,l),
(1326,557,ls),
(1224,454,o),
(1097,296,o),
(1019,193,c),
(1051,221,l),
(1068,304,o),
(1083,387,o),
(1083,470,cs),
(1083,1514,l),
(917,1514,l),
(917,470,ls),
(917,387,o),
(932,304,o),
(949,221,c),
(981,193,l),
(903,296,o),
(776,454,o),
(674,557,cs),
(464,768,l),
(348,652,l)
);
}
);
};
layerId = m01;
shapes = (
{
closed = 0;
nodes = (
(1000,1467,l,{
"Letterink-NibData" = {
MainAxisWidth = 110;
MinorAxisWidth = 105;
ValidForParentMainAxisWidth = 30;
ValidForParentMinorAxisWidth = 15;
};
}),
(1014,980,o),
(1018,519,o),
(1003,116,c,{
"Letterink-NibData" = {
MainAxisWidth = 110;
MinorAxisWidth = 105;
ValidForParentMainAxisWidth = 30;
ValidForParentMinorAxisWidth = 15;
};
})
);
},
{
closed = 0;
nodes = (
(445,682,l,{
"Letterink-NibData" = {
MainAxisWidth = 110;
MinorAxisWidth = 105;
ValidForParentMainAxisWidth = 30;
ValidForParentMinorAxisWidth = 15;
};
}),
(699,452,o),
(928,232,o),
(998,81,c,{
"Letterink-NibData" = {
MainAxisWidth = 110;
MinorAxisWidth = 105;
ValidForParentMainAxisWidth = 30;
ValidForParentMinorAxisWidth = 15;
};
}),
(1091,269,o),
(1337,469,o),
(1550,666,c,{
"Letterink-NibData" = {
MainAxisWidth = 110;
MinorAxisWidth = 105;
ValidForParentMainAxisWidth = 30;
ValidForParentMinorAxisWidth = 15;
};
})
);
}
);
width = 2000;
}
);
unicode = 989505;
}
{
glyphname = "nimi-sp";
layers = (
{
background = {
shapes = (
{
closed = 1;
nodes = (
(250,500,ls),
(250,353,o),
(358,245,o),
(505,245,cs),
(1495,245,ls),
(1642,245,o),
(1750,353,o),
(1750,500,cs),
(1750,990,ls),
(1750,1137,o),
(1642,1245,o),
(1495,1245,cs),
(505,1245,ls),
(358,1245,o),
(250,1137,o),
(250,990,cs)
);
},
{
closed = 1;
nodes = (
(436,1035,o),
(466,1070,o),
(505,1070,cs),
(1495,1070,ls),
(1534,1070,o),
(1564,1035,o),
(1564,990,cs),
(1564,500,ls),
(1564,455,o),
(1534,420,o),
(1495,420,cs),
(505,420,ls),
(466,420,o),
(436,455,o),
(436,500,cs),
(436,990,ls)
);
}
);
};
layerId = m01;
shapes = (
{
closed = 1;
nodes = (
(402,1168,o),
(337,1111,o),
(337,746,c,{
"Letterink-NibData" = {
MainAxisWidth = 110;
MinorAxisWidth = 105;
ValidForParentMainAxisWidth = 30;
ValidForParentMinorAxisWidth = 15;
};
}),
(337,413,o),
(410,327,o),
(998,327,c,{
"Letterink-NibData" = {
MainAxisWidth = 110;
MinorAxisWidth = 105;
ValidForParentMainAxisWidth = 30;
ValidForParentMinorAxisWidth = 15;
};
}),
(1611,327,o),
(1684,355,o),
(1684,745,c,{
"Letterink-NibData" = {
MainAxisWidth = 110;
MinorAxisWidth = 105;
ValidForParentMainAxisWidth = 30;
ValidForParentMinorAxisWidth = 15;
};
}),
(1684,1119,o),
(1519,1168,o),
(1026,1168,c,{
"Letterink-NibData" = {
MainAxisWidth = 110;
MinorAxisWidth = 105;
ValidForParentMainAxisWidth = 30;
ValidForParentMinorAxisWidth = 15;
};
})
);
}
);
width = 2000;
}
);
unicode = 989506;
}
{
glyphname = "noka-sp";
layers = (
{
background = {
shapes = (
{
closed = 1;
nodes = (
(935,507,l),
(1157,501,ls),
(1321,502,o),
(1387,448,o),
(1387,338,cs),
(1387,229,o),
(1322,175,o),
(1159,175,cs),
(613,175,l),
(613,1490,l),
(427,1490,l),
(427,0,l),
(1159,0,ls),
(1391,0,o),
(1573,149,o),
(1573,338,cs),
(1573,527,o),
(1391,676,o),
(1159,676,cs),
(1121,677,l),
(1121,1490,l),
(935,1490,l)
);
}
);
};
layerId = m01;
shapes = (
{
closed = 0;
nodes = (
(503,1408,l,{
"Letterink-NibData" = {
MainAxisWidth = 110;
MinorAxisWidth = 105;
ValidForParentMainAxisWidth = 30;
ValidForParentMinorAxisWidth = 15;
};
}),
(518,109,l,{
"Letterink-NibData" = {
MainAxisWidth = 110;
MinorAxisWidth = 105;
ValidForParentMainAxisWidth = 30;
ValidForParentMinorAxisWidth = 15;
};
}),
(1103,100,l,{
"Letterink-NibData" = {
MainAxisWidth = 110;
MinorAxisWidth = 105;
ValidForParentMainAxisWidth = 30;
ValidForParentMinorAxisWidth = 15;
};
}),
(1233,100,o),
(1475,136,o),
(1479,332,cs,{
"Letterink-NibData" = {
MainAxisWidth = 110;
MinorAxisWidth = 105;
ValidForParentMainAxisWidth = 30;
ValidForParentMinorAxisWidth = 15;
};
}),
(1483,528,o),
(1243,601,o),
(1064,599,c,{
"Letterink-NibData" = {
MainAxisWidth = 110;
MinorAxisWidth = 105;
ValidForParentMainAxisWidth = 30;
ValidForParentMinorAxisWidth = 15;
};
}),
(1064,1438,l,{
"Letterink-NibData" = {
MainAxisWidth = 110;
MinorAxisWidth = 105;
ValidForParentMainAxisWidth = 30;
ValidForParentMinorAxisWidth = 15;
};
})
);
}
);
width = 2000;
}
);
unicode = 989507;
}
{
glyphname = "o-sp";
layers = (
{
background = {
shapes = (
{
closed = 1;
nodes = (
(1216,-24,o),
(1353,106,o),
(1353,294,cs),
(1353,482,o),
(1216,612,o),
(1000,612,cs),
(783,612,o),
(646,482,o),
(646,294,cs),
(646,106,o),
(783,-24,o),
(1000,-24,cs)
);
},
{
closed = 1;
nodes = (
(885,105,o),
(821,185,o),
(821,295,cs),
(821,405,o),
(885,483,o),
(1000,483,cs),
(1114,483,o),
(1178,406,o),
(1178,295,cs),
(1178,184,o),
(1114,105,o),
(1000,105,cs)
);
},
{
closed = 1;
nodes = (
(905,1490,l),
(905,803,l),
(1095,803,l),
(1095,1490,l)
);
}
);
};
layerId = m01;
shapes = (
{
closed = 0;
nodes = (
(988,1473,l,{
"Letterink-NibData" = {
MainAxisWidth = 110;
MinorAxisWidth = 105;
ValidForParentMainAxisWidth = 30;
ValidForParentMinorAxisWidth = 15;
};
}),
(1012,1240,o),
(1018,1024,o),
(1006,825,c,{
"Letterink-NibData" = {
MainAxisWidth = 110;
MinorAxisWidth = 105;
ValidForParentMainAxisWidth = 30;
ValidForParentMinorAxisWidth = 15;
};
})
);
},
{
closed = 1;
nodes = (
(1137,30,o),
(1258,143,o),
(1258,283,cs,{
"Letterink-NibData" = {
MainAxisWidth = 110;
MinorAxisWidth = 105;
ValidForParentMainAxisWidth = 30;
ValidForParentMinorAxisWidth = 15;
};
}),
(1258,423,o),
(1137,536,o),
(989,536,cs,{
"Letterink-NibData" = {
MainAxisWidth = 110;
MinorAxisWidth = 105;
ValidForParentMainAxisWidth = 30;
ValidForParentMinorAxisWidth = 15;
};
}),
(841,536,o),
(721,423,o),
(721,283,cs,{
"Letterink-NibData" = {
MainAxisWidth = 110;
MinorAxisWidth = 105;
ValidForParentMainAxisWidth = 30;
ValidForParentMinorAxisWidth = 15;
};
}),
(721,143,o),
(841,30,o),
(989,30,cs,{
"Letterink-NibData" = {
MainAxisWidth = 110;
MinorAxisWidth = 105;
ValidForParentMainAxisWidth = 30;
ValidForParentMinorAxisWidth = 15;
};
})
);
}
);
width = 2000;
}
);
unicode = 989508;
}
{
glyphname = "olin-sp";
layers = (
{
background = {
shapes = (
{
closed = 1;
nodes = (
(1454,432,ls),
(1562,540,o),
(1564,721,o),
(1453,830,cs),
(1341,937,o),
(1169,935,o),
(1060,827,cs),
(1000,768,l),
(939,827,ls),
(829,933,o),
(655,937,o),
(544,827,cs),
(436,721,o),
(435,541,o),
(544,432,cs),
(1000,-24,l)
);
},
{
closed = 1;
nodes = (
(657,545,ls),
(610,592,o),
(609,666,o),
(656,713,cs),
(703,759,o),
(779,759,o),
(828,712,cs),
(1001,545,l),
(1172,713,ls),
(1219,760,o),
(1293,761,o),
(1342,715,cs),
(1389,668,o),
(1388,593,o),
(1341,545,cs),
(1000,203,l)
);
},
{
closed = 1;
nodes = (
(1454,1002,ls),
(1562,1110,o),
(1565,1290,o),
(1453,1398,cs),
(1342,1506,o),
(1170,1504,o),
(1061,1396,cs),
(1001,1337,l),
(940,1396,ls),
(830,1502,o),
(656,1506,o),
(545,1396,cs),
(437,1290,o),
(436,1110,o),
(545,1001,cs),
(1001,545,l)
);
},
{
closed = 1;
nodes = (
(658,1114,ls),
(611,1161,o),
(610,1235,o),
(657,1282,cs),
(704,1328,o),
(780,1328,o),
(829,1281,cs),
(1002,1114,l),
(1173,1282,ls),
(1220,1328,o),
(1295,1329,o),
(1342,1283,cs),
(1390,1237,o),
(1389,1163,o),
(1341,1115,cs),
(1001,772,l)
);
}
);
};
layerId = m01;
shapes = (
{
closed = 1;
nodes = (
(632,967,o),
(494,1216,o),
(554,1337,cs,{
"Letterink-NibData" = {
MainAxisWidth = 110;
MinorAxisWidth = 105;
ValidForParentMainAxisWidth = 30;
ValidForParentMinorAxisWidth = 15;
};
"Letterink-NibStyleId" = 1;
}),
(609,1449,o),
(790,1471,o),
(989,1271,c,{
"Letterink-NibData" = {
MainAxisWidth = 110;
MinorAxisWidth = 105;
ValidForParentMainAxisWidth = 30;
ValidForParentMinorAxisWidth = 15;
};
"Letterink-NibStyleId" = 1;
}),
(1188,1471,o),
(1369,1449,o),
(1424,1337,cs,{
"Letterink-NibData" = {
MainAxisWidth = 110;
MinorAxisWidth = 105;
ValidForParentMainAxisWidth = 30;
ValidForParentMinorAxisWidth = 15;
};
"Letterink-NibStyleId" = 1;
}),
(1484,1216,o),
(1346,967,o),
(989,728,c,{
"Letterink-NibData" = {
MainAxisWidth = 110;
MinorAxisWidth = 105;
ValidForParentMainAxisWidth = 30;
ValidForParentMinorAxisWidth = 15;
};
"Letterink-NibStyleId" = 1;
})
);
},
{
closed = 1;
nodes = (
(632,383,o),
(494,632,o),
(554,753,cs,{
"Letterink-NibData" = {
MainAxisWidth = 110;
MinorAxisWidth = 105;
ValidForParentMainAxisWidth = 30;
ValidForParentMinorAxisWidth = 15;
};
"Letterink-NibStyleId" = 1;
}),
(609,865,o),
(790,887,o),
(989,687,c,{
"Letterink-NibData" = {
MainAxisWidth = 110;
MinorAxisWidth = 105;
ValidForParentMainAxisWidth = 30;
ValidForParentMinorAxisWidth = 15;
};
"Letterink-NibStyleId" = 1;
}),
(1188,887,o),
(1369,865,o),
(1424,753,cs,{
"Letterink-NibData" = {
MainAxisWidth = 110;
MinorAxisWidth = 105;
ValidForParentMainAxisWidth = 30;
ValidForParentMinorAxisWidth = 15;
};
"Letterink-NibStyleId" = 1;
}),
(1484,632,o),
(1346,383,o),
(989,144,c,{
"Letterink-NibData" = {
MainAxisWidth = 110;
MinorAxisWidth = 105;
ValidForParentMainAxisWidth = 30;
ValidForParentMinorAxisWidth = 15;
};
"Letterink-NibStyleId" = 1;
})
);
}
);
width = 2000;
}
);
unicode = 989509;
}
{
glyphname = "ona-sp";
layers = (
{
background = {
shapes = (
{
attr = {
identifier = ID0x12d8f2100;
strokeHeight = 176;
strokePos = "1";
strokeWidth = 186;
};
closed = 1;
nodes = (
(878,464,o),
(1084,256,o),
(1346,256,cs),
(1608,256,o),
(1813,464,o),
(1813,729,cs),
(1813,994,o),
(1608,1203,o),
(1346,1203,cs),
(1084,1203,o),
(878,994,o),
(878,729,cs)
);
},
{
attr = {
identifier = ID0x12d8f2100;
strokeHeight = 176;
strokeWidth = 186;
};
closed = 0;
nodes = (
(1346,349,l),
(1008,346,o),
(649,501,o),
(352,718,c)
);
}
);
};
layerId = m01;
shapes = (
{
closed = 1;
nodes = (
(941,524,o),
(1124,346,o),
(1349,346,cs,{
"Letterink-NibData" = {
MainAxisWidth = 110;
MinorAxisWidth = 105;
ValidForParentMainAxisWidth = 30;
ValidForParentMinorAxisWidth = 15;
};
"Letterink-NibStyleId" = 1;
}),
(1574,346,o),
(1757,524,o),
(1757,745,cs,{
"Letterink-NibData" = {
MainAxisWidth = 110;
MinorAxisWidth = 105;
ValidForParentMainAxisWidth = 30;
ValidForParentMinorAxisWidth = 15;
};
"Letterink-NibStyleId" = 1;
}),
(1757,965,o),
(1574,1143,o),
(1349,1143,cs,{
"Letterink-NibData" = {
MainAxisWidth = 110;
MinorAxisWidth = 105;
ValidForParentMainAxisWidth = 30;
ValidForParentMinorAxisWidth = 15;
};
"Letterink-NibStyleId" = 1;
}),
(1124,1143,o),
(941,965,o),
(941,745,cs,{
"Letterink-NibData" = {
MainAxisWidth = 110;
MinorAxisWidth = 105;
ValidForParentMainAxisWidth = 30;
ValidForParentMinorAxisWidth = 15;
};
"Letterink-NibStyleId" = 1;
})
);
},
{
closed = 0;
nodes = (
(1324,346,l,{
"Letterink-NibData" = {
MainAxisWidth = 110;
MinorAxisWidth = 105;
ValidForParentMainAxisWidth = 30;
ValidForParentMinorAxisWidth = 15;
};
"Letterink-NibStyleId" = 1;
}),
(934,314,o),
(492,550,o),
(362,721,c,{
"Letterink-NibData" = {
MainAxisWidth = 110;
MinorAxisWidth = 105;
ValidForParentMainAxisWidth = 30;
ValidForParentMinorAxisWidth = 15;
};
"Letterink-NibStyleId" = 1;
})
);
}
);
width = 2000;
}
);
unicode = 989510;
}
{
glyphname = "open-sp";
layers = (
{
background = {
shapes = (
{
closed = 1;
nodes = (
(594,1490,l),
(408,1490,l),
(408,0,l),
(1591,0,l),
(1591,1490,l),
(1405,1490,l),
(1405,175,l),
(594,175,l)
);
},
{
closed = 1;
nodes = (
(1591,578,l),
(408,578,l),
(408,0,l),
(594,0,l),
(594,403,l),
(1405,403,l),
(1405,0,l),
(1591,0,l)
);
}
);
};
layerId = m01;
shapes = (
{
closed = 0;
nodes = (
(467,1408,l,{
"Letterink-NibData" = {
MainAxisWidth = 110;
MinorAxisWidth = 105;
ValidForParentMainAxisWidth = 30;
ValidForParentMinorAxisWidth = 15;
};
"Letterink-NibStyleId" = 1;
}),
(437,968,o),
(444,531,o),
(487,95,c,{
"Letterink-NibData" = {
MainAxisWidth = 110;
MinorAxisWidth = 105;
ValidForParentMainAxisWidth = 30;
ValidForParentMinorAxisWidth = 15;
};
"Letterink-NibStyleId" = 1;
}),
(847,69,o),
(1192,65,o),
(1511,94,c,{
"Letterink-NibData" = {
MainAxisWidth = 110;
MinorAxisWidth = 105;
ValidForParentMainAxisWidth = 30;
ValidForParentMinorAxisWidth = 15;
};
"Letterink-NibStyleId" = 1;
}),
(1538,536,o),
(1545,977,o),
(1531,1419,c,{
"Letterink-NibData" = {
MainAxisWidth = 110;
MinorAxisWidth = 105;
ValidForParentMainAxisWidth = 30;
ValidForParentMinorAxisWidth = 15;
};
"Letterink-NibStyleId" = 1;
})
);
},
{
closed = 0;
nodes = (
(486,500,l,{
"Letterink-NibData" = {
MainAxisWidth = 110;
MinorAxisWidth = 105;
ValidForParentMainAxisWidth = 30;
ValidForParentMinorAxisWidth = 15;
};
"Letterink-NibStyleId" = 1;
}),
(817,547,o),
(1153,554,o),
(1494,512,c,{
"Letterink-NibData" = {
MainAxisWidth = 110;
MinorAxisWidth = 105;
ValidForParentMainAxisWidth = 30;
ValidForParentMinorAxisWidth = 15;
};
"Letterink-NibStyleId" = 1;
})
);
}
);
width = 2000;
}
);
unicode = 989511;
}
{
glyphname = "pakala-sp";
layers = (
{
background = {
shapes = (
{
closed = 1;
nodes = (
(408,0,l),
(1591,0,l),
(1591,1490,l),
(408,1490,l)
);
},
{
closed = 1;
nodes = (
(1405,1315,l),
(1405,175,l),
(594,175,l),
(594,1315,l)
);
},
{
closed = 1;
nodes = (
(1321,825,l),
(932,825,l),
(1234,1384,l),
(1090,1454,l),
(678,665,l),
(1067,665,l),
(765,106,l),
(909,36,l)
);
}
);
};
layerId = m01;
shapes = (
{
closed = 1;
nodes = (
(846,1429,o),
(1178,1425,o),
(1496,1411,c,{
"Letterink-NibData" = {
MainAxisWidth = 110;
MinorAxisWidth = 105;
ValidForParentMainAxisWidth = 30;
ValidForParentMinorAxisWidth = 15;
};
"Letterink-NibStyleId" = 1;
}),
(1513,935,o),
(1527,470,o),
(1515,64,c,{
"Letterink-NibData" = {
MainAxisWidth = 110;
MinorAxisWidth = 105;
ValidForParentMainAxisWidth = 30;
ValidForParentMinorAxisWidth = 15;
};
"Letterink-NibStyleId" = 1;
}),
(1206,46,o),
(857,54,o),
(487,76,c,{
"Letterink-NibData" = {
MainAxisWidth = 110;
MinorAxisWidth = 105;
ValidForParentMainAxisWidth = 30;
ValidForParentMinorAxisWidth = 15;
};
"Letterink-NibStyleId" = 1;
}),
(483,546,o),
(481,1010,o),
(487,1411,c,{
"Letterink-NibData" = {
MainAxisWidth = 110;
MinorAxisWidth = 105;
ValidForParentMainAxisWidth = 30;
ValidForParentMinorAxisWidth = 15;
};
"Letterink-NibStyleId" = 1;
})
);
},
{
closed = 0;
nodes = (
(1117,1369,l,{
"Letterink-NibData" = {
MainAxisWidth = 110;
MinorAxisWidth = 105;
ValidForParentMainAxisWidth = 30;
ValidForParentMinorAxisWidth = 15;
};
"Letterink-NibStyleId" = 1;
}),
(784,745,l,{
"Letterink-NibData" = {
MainAxisWidth = 110;
MinorAxisWidth = 105;
ValidForParentMainAxisWidth = 30;
ValidForParentMinorAxisWidth = 15;
};
"Letterink-NibStyleId" = 1;
}),
(1205,745,l,{
"Letterink-NibData" = {
MainAxisWidth = 110;
MinorAxisWidth = 105;
ValidForParentMainAxisWidth = 30;
ValidForParentMinorAxisWidth = 15;
};
"Letterink-NibStyleId" = 1;
}),
(890,116,l,{
"Letterink-NibData" = {
MainAxisWidth = 110;
MinorAxisWidth = 105;
ValidForParentMainAxisWidth = 30;
ValidForParentMinorAxisWidth = 15;
};
"Letterink-NibStyleId" = 1;
})
);
}
);
width = 2000;
}
);
unicode = 989512;
}
{
glyphname = "pali-sp";
layers = (
{
background = {
shapes = (
{
closed = 1;
nodes = (
(1387,507,o),
(1578,714,o),
(1578,1008,cs),
(1578,1304,o),
(1387,1514,o),
(1114,1514,cs),
(841,1514,o),
(650,1304,o),
(650,1008,cs),
(650,714,o),
(841,507,o),
(1114,507,cs)
);
},
{
closed = 1;
nodes = (
(944,667,o),
(810,817,o),
(810,1008,cs),
(810,1202,o),
(944,1354,o),
(1114,1354,cs),
(1284,1354,o),
(1418,1202,o),
(1418,1008,cs),
(1418,817,o),
(1284,667,o),
(1114,667,cs)
);
},
{
closed = 1;
nodes = (
(361,637,l),
(231,507,l),
(530,0,l),
(805,0,l),
(805,333,o),
(908,507,o),
(1114,507,cs),
(1320,507,o),
(1423,337,o),
(1423,11,cs),
(1423,0,l),
(1609,0,l),
(1609,11,ls),
(1609,438,o),
(1444,658,o),
(1114,658,cs),
(834,658,o),
(673,498,o),
(630,187,c),
(619,187,l)
);
}
);
};
layerId = m01;
shapes = (
{
closed = 1;
nodes = (
(1335,575,o),
(1502,764,o),
(1502,997,cs,{
"Letterink-NibData" = {
MainAxisWidth = 110;
MinorAxisWidth = 105;
ValidForParentMainAxisWidth = 30;
ValidForParentMinorAxisWidth = 15;
};
"Letterink-NibStyleId" = 1;
}),
(1502,1229,o),
(1335,1417,o),
(1127,1417,cs,{
"Letterink-NibData" = {
MainAxisWidth = 110;
MinorAxisWidth = 105;
ValidForParentMainAxisWidth = 30;
ValidForParentMinorAxisWidth = 15;
};
"Letterink-NibStyleId" = 1;
}),
(920,1417,o),
(752,1229,o),
(752,997,cs,{
"Letterink-NibData" = {
MainAxisWidth = 110;
MinorAxisWidth = 105;
ValidForParentMainAxisWidth = 30;
ValidForParentMinorAxisWidth = 15;
};
"Letterink-NibStyleId" = 1;
}),
(752,764,o),
(920,575,o),
(1127,575,cs,{
"Letterink-NibData" = {
MainAxisWidth = 110;
MinorAxisWidth = 105;
ValidForParentMainAxisWidth = 30;
ValidForParentMinorAxisWidth = 15;
};
"Letterink-NibStyleId" = 1;
})
);
},
{
closed = 0;
nodes = (
(348,500,l,{
"Letterink-NibData" = {
MainAxisWidth = 110;
MinorAxisWidth = 105;
ValidForParentMainAxisWidth = 30;
ValidForParentMinorAxisWidth = 15;
};
"Letterink-NibStyleId" = 1;
}),
(689,66,l,{
"Letterink-NibData" = {
MainAxisWidth = 110;
MinorAxisWidth = 105;
ValidForParentMainAxisWidth = 30;
ValidForParentMinorAxisWidth = 15;
};
"Letterink-NibStyleId" = 1;
}),
(710,277,o),
(751,540,o),
(1114,544,cs,{
"Letterink-NibData" = {
MainAxisWidth = 110;
MinorAxisWidth = 105;
ValidForParentMainAxisWidth = 30;
ValidForParentMinorAxisWidth = 15;
};
"Letterink-NibStyleId" = 1;
}),
(1466,548,o),
(1533,184,o),
(1520,44,cs,{
"Letterink-NibData" = {
MainAxisWidth = 110;
MinorAxisWidth = 105;
ValidForParentMainAxisWidth = 30;
ValidForParentMinorAxisWidth = 15;
};
"Letterink-NibStyleId" = 1;
})
);
}
);
width = 2000;
}
);
unicode = 989513;
}
{
glyphname = "palisa-sp";
layers = (
{
background = {
shapes = (
{
attr = {
strokeHeight = 176;
strokePos = "0";
strokeWidth = 186;
};
closed = 1;
nodes = (
(865,658,ls),
(865,333,o),
(913,158,o),
(1001,158,cs),
(1089,158,o),
(1136,333,o),
(1136,658,cs),
(1136,831,ls),
(1136,1156,o),
(1088,1331,o),
(1001,1331,cs),
(913,1331,o),
(865,1156,o),
(865,831,cs)
);
}
);
};
layerId = m01;
shapes = (
{
closed = 1;
nodes = (
(615,1395,o),
(669,58,o),
(999,58,c,{
"Letterink-NibData" = {
MainAxisWidth = 110;
MinorAxisWidth = 105;
ValidForParentMainAxisWidth = 30;
ValidForParentMinorAxisWidth = 15;
};
"Letterink-NibStyleId" = 1;
}),
(1346,58,o),
(1366,1424,o),
(1005,1424,c,{
"Letterink-NibData" = {
MainAxisWidth = 110;
MinorAxisWidth = 105;
ValidForParentMainAxisWidth = 30;
ValidForParentMinorAxisWidth = 15;
};
"Letterink-NibStyleId" = 1;
})
);
}
);
width = 2000;
}
);
unicode = 989514;
}
{
glyphname = "pan-sp";
layers = (
{
background = {
shapes = (
{
closed = 1;
nodes = (
(1612,645,l),
(1496,761,l),
(1286,550,ls),
(1184,447,o),
(1094,286,o),
(1000,167,c),
(906,286,o),
(816,447,o),
(714,550,cs),
(504,761,l),
(388,645,l),
(1000,-7,l)
);
},
{
closed = 1;
nodes = (
(1612,1029,l),
(1496,1145,l),
(1286,934,ls),
(1184,831,o),
(1094,670,o),
(1000,551,c),
(906,670,o),
(816,831,o),
(714,934,cs),
(504,1145,l),
(388,1029,l),
(1000,377,l)
);
},
{
closed = 1;
nodes = (
(1612,1413,l),
(1496,1529,l),
(1286,1318,ls),
(1184,1215,o),
(1094,1054,o),
(1000,935,c),
(906,1054,o),
(816,1215,o),
(714,1318,cs),
(504,1529,l),
(388,1413,l),
(1000,761,l)
);
}
);
};
layerId = m01;
shapes = (
{
closed = 0;
nodes = (
(481,1030,l,{
"Letterink-NibData" = {
MainAxisWidth = 110;
MinorAxisWidth = 105;
ValidForParentMainAxisWidth = 30;
ValidForParentMinorAxisWidth = 15;
};
"Letterink-NibStyleId" = 1;
}),
(663,913,o),
(877,686,o),
(1003,468,c,{
"Letterink-NibData" = {
MainAxisWidth = 110;
MinorAxisWidth = 105;
ValidForParentMainAxisWidth = 30;
ValidForParentMinorAxisWidth = 15;
};
"Letterink-NibStyleId" = 1;
}),
(1142,674,o),
(1286,934,o),
(1493,1032,c,{
"Letterink-NibData" = {
MainAxisWidth = 110;
MinorAxisWidth = 105;
ValidForParentMainAxisWidth = 30;
ValidForParentMinorAxisWidth = 15;
};
"Letterink-NibStyleId" = 1;
})
);
},
{
closed = 0;
nodes = (
(490,655,l,{
"Letterink-NibData" = {
MainAxisWidth = 110;
MinorAxisWidth = 105;
ValidForParentMainAxisWidth = 30;
ValidForParentMinorAxisWidth = 15;
};
"Letterink-NibStyleId" = 1;
}),
(754,476,o),
(959,274,o),
(1002,83,c,{
"Letterink-NibData" = {
MainAxisWidth = 110;
MinorAxisWidth = 105;
ValidForParentMainAxisWidth = 30;
ValidForParentMinorAxisWidth = 15;
};
"Letterink-NibStyleId" = 1;
}),
(1072,327,o),
(1280,534,o),
(1513,644,c,{
"Letterink-NibData" = {
MainAxisWidth = 110;
MinorAxisWidth = 105;
ValidForParentMainAxisWidth = 30;
ValidForParentMinorAxisWidth = 15;
};
"Letterink-NibStyleId" = 1;
})
);
},
{
closed = 0;
nodes = (
(523,1402,l,{
"Letterink-NibData" = {
MainAxisWidth = 110;
MinorAxisWidth = 105;
ValidForParentMainAxisWidth = 30;
ValidForParentMinorAxisWidth = 15;
};
"Letterink-NibStyleId" = 1;
}),
(692,1293,o),
(865,1156,o),
(998,868,c,{
"Letterink-NibData" = {
MainAxisWidth = 110;
MinorAxisWidth = 105;
ValidForParentMainAxisWidth = 30;
ValidForParentMinorAxisWidth = 15;
};
"Letterink-NibStyleId" = 1;
}),
(1080,1044,o),
(1272,1237,o),
(1512,1438,c,{
"Letterink-NibData" = {
MainAxisWidth = 110;
MinorAxisWidth = 105;
ValidForParentMainAxisWidth = 30;
ValidForParentMinorAxisWidth = 15;
};
"Letterink-NibStyleId" = 1;
})
);
}
);
width = 2000;
}
);
unicode = 989515;
}
{
glyphname = "pana-sp";
layers = (
{
background = {
shapes = (
{
closed = 1;
nodes = (
(1003,946,l),
(1188,946,l),
(1188,1490,l),
(1003,1490,l)
);
},
{
closed = 1;
nodes = (
(1342,946,l),
(1473,815,l),
(1858,1200,l),
(1727,1330,l)
);
},
{
closed = 1;
nodes = (
(333,1200,l),
(718,815,l),
(849,946,l),
(464,1330,l)
);
},
{
closed = 1;
nodes = (
(342,637,l),
(212,507,l),
(511,0,l),
(786,0,l),
(786,333,o),
(889,507,o),
(1095,507,cs),
(1301,507,o),
(1404,337,o),
(1404,11,cs),
(1404,0,l),
(1590,0,l),
(1590,11,ls),
(1590,438,o),
(1425,658,o),
(1095,658,cs),
(815,658,o),
(654,498,o),
(611,187,c),
(600,187,l)
);
}
);
};
layerId = m01;
shapes = (
{
closed = 0;
nodes = (
(445,1227,l,{
"Letterink-NibData" = {
MainAxisWidth = 110;
MinorAxisWidth = 105;
ValidForParentMainAxisWidth = 30;
ValidForParentMinorAxisWidth = 15;
};
"Letterink-NibStyleId" = 1;
}),
(575,1136,o),
(678,1028,o),
(760,906,c,{
"Letterink-NibData" = {
MainAxisWidth = 110;
MinorAxisWidth = 105;
ValidForParentMainAxisWidth = 30;
ValidForParentMinorAxisWidth = 15;
};
"Letterink-NibStyleId" = 1;
})
);
},
{
closed = 0;
nodes = (
(1090,1451,l,{
"Letterink-NibData" = {
MainAxisWidth = 110;
MinorAxisWidth = 105;
ValidForParentMainAxisWidth = 30;
ValidForParentMinorAxisWidth = 15;
};
"Letterink-NibStyleId" = 1;
}),
(1118,1298,o),
(1120,1147,o),
(1092,998,c,{
"Letterink-NibData" = {
MainAxisWidth = 110;
MinorAxisWidth = 105;
ValidForParentMainAxisWidth = 30;
ValidForParentMinorAxisWidth = 15;
};
"Letterink-NibStyleId" = 1;
})
);
},
{
closed = 0;
nodes = (
(1439,897,l,{
"Letterink-NibData" = {
MainAxisWidth = 110;
MinorAxisWidth = 105;
ValidForParentMainAxisWidth = 30;
ValidForParentMinorAxisWidth = 15;
};
"Letterink-NibStyleId" = 1;
}),
(1566,997,o),
(1675,1117,o),
(1765,1265,c,{
"Letterink-NibData" = {
MainAxisWidth = 110;
MinorAxisWidth = 105;
ValidForParentMainAxisWidth = 30;
ValidForParentMinorAxisWidth = 15;
};
"Letterink-NibStyleId" = 1;
})
);
},
{
closed = 0;
nodes = (
(323,473,l,{
"Letterink-NibData" = {
MainAxisWidth = 110;
MinorAxisWidth = 105;
ValidForParentMainAxisWidth = 30;
ValidForParentMinorAxisWidth = 15;
};
"Letterink-NibStyleId" = 1;
}),
(664,68,l,{
"Letterink-NibData" = {
MainAxisWidth = 110;
MinorAxisWidth = 105;
ValidForParentMainAxisWidth = 30;
ValidForParentMinorAxisWidth = 15;
};
"Letterink-NibStyleId" = 1;
}),
(664,303,o),
(801,675,o),
(1106,658,cs,{
"Letterink-NibData" = {
MainAxisWidth = 110;
MinorAxisWidth = 105;
ValidForParentMainAxisWidth = 30;
ValidForParentMinorAxisWidth = 15;
};
"Letterink-NibStyleId" = 1;
}),
(1393,642,o),
(1516,178,o),
(1513,78,cs,{
"Letterink-NibData" = {
MainAxisWidth = 110;
MinorAxisWidth = 105;
ValidForParentMainAxisWidth = 30;
ValidForParentMinorAxisWidth = 15;
};
"Letterink-NibStyleId" = 1;
})
);
}
);
width = 2000;
}
);
unicode = 989516;
}
{
glyphname = "pi-sp";
layers = (
{
background = {
shapes = (
{
closed = 1;
nodes = (
(686,301,l),
(686,1364,l),
(500,1364,l),
(500,126,l),
(1500,126,l),
(1500,301,l)
);
}
);
};
layerId = m01;
shapes = (
{
closed = 0;
nodes = (
(596,1258,l,{
"Letterink-NibData" = {
MainAxisWidth = 110;
MinorAxisWidth = 105;
ValidForParentMainAxisWidth = 30;
ValidForParentMinorAxisWidth = 15;
};
"Letterink-NibStyleId" = 1;
}),
(553,907,o),
(561,561,o),
(585,217,c,{
"Letterink-NibData" = {
MainAxisWidth = 110;
MinorAxisWidth = 105;
ValidForParentMainAxisWidth = 30;
ValidForParentMinorAxisWidth = 15;
};
"Letterink-NibStyleId" = 1;
}),
(880,185,o),
(1171,181,o),
(1455,226,c,{
"Letterink-NibData" = {
MainAxisWidth = 110;
MinorAxisWidth = 105;
ValidForParentMainAxisWidth = 30;
ValidForParentMinorAxisWidth = 15;
};
"Letterink-NibStyleId" = 1;
})
);
}
);
width = 2000;
}
);
unicode = 989517;
}
{
glyphname = "pilin-sp";
layers = (
{
background = {
shapes = (
{
closed = 1;
nodes = (
(1747,724,ls),
(1924,902,o),
(1928,1199,o),
(1744,1377,cs),
(1561,1554,o),
(1279,1550,o),
(1099,1374,cs),
(1001,1278,l),
(901,1374,ls),
(721,1547,o),
(435,1554,o),
(252,1373,cs),
(76,1199,o),
(73,904,o),
(253,724,cs),
(1001,-24,l)
);
},
{
closed = 1;
nodes = (
(371,842,ls),
(259,954,o),
(255,1146,o),
(373,1258,cs),
(494,1373,o),
(673,1365,o),
(787,1254,cs),
(1001,1046,l),
(1215,1254,ls),
(1335,1371,o),
(1509,1364,o),
(1621,1264,cs),
(1745,1153,o),
(1746,957,o),
(1631,842,cs),
(1001,210,l)
);
}
);
};
layerId = m01;
shapes = (
{
closed = 1;
nodes = (
(672,1481,o),
(276,1530,o),
(276,1081,cs,{
"Letterink-NibData" = {
MainAxisWidth = 110;
MinorAxisWidth = 105;
ValidForParentMainAxisWidth = 30;
ValidForParentMinorAxisWidth = 15;
};
"Letterink-NibStyleId" = 1;
}),
(276,645,o),
(613,359,o),
(977,165,c,{
"Letterink-NibData" = {
MainAxisWidth = 110;
MinorAxisWidth = 105;
ValidForParentMainAxisWidth = 30;
ValidForParentMinorAxisWidth = 15;
};
"Letterink-NibStyleId" = 1;
}),
(1297,368,o),
(1732,633,o),
(1732,1105,cs,{
"Letterink-NibData" = {
MainAxisWidth = 110;
MinorAxisWidth = 105;
ValidForParentMainAxisWidth = 30;
ValidForParentMinorAxisWidth = 15;
};
"Letterink-NibStyleId" = 1;
}),
(1732,1504,o),
(1316,1492,o),
(997,1131,c,{
"Letterink-NibData" = {
MainAxisWidth = 110;
MinorAxisWidth = 105;
ValidForParentMainAxisWidth = 30;
ValidForParentMinorAxisWidth = 15;
};
"Letterink-NibStyleId" = 1;
})
);
}
);
width = 2000;
}
);
unicode = 989518;
}
{
glyphname = "pimeja-sp";
layers = (
{
background = {
shapes = (
{
closed = 1;
nodes = (
(551,0,l),
(858,884,ls),
(893,985,o),
(945,1145,o),
(1017,1401,c),
(981,1401,l),
(1054,1148,o),
(1103,993,o),
(1142,884,cs),
(1458,0,l),
(1658,0,l),
(1110,1490,l),
(890,1490,l),
(349,0,l)
);
},
{
closed = 1;
nodes = (
(1532,0,l),
(1532,166,l),
(492,166,l),
(492,0,l)
);
},
{
closed = 1;
nodes = (
(424,129,l),
(551,0,l),
(1356,776,l),
(1229,904,l)
);
},
{
closed = 1;
nodes = (
(653,776,l),
(1458,0,l),
(1585,129,l),
(780,904,l)
);
}
);
};
layerId = m01;
shapes = (
{
closed = 1;
nodes = (
(810,1001,o),
(640,556,o),
(486,80,c,{
"Letterink-NibData" = {
MainAxisWidth = 110;
MinorAxisWidth = 105;
ValidForParentMainAxisWidth = 30;
ValidForParentMinorAxisWidth = 15;
};
"Letterink-NibStyleId" = 1;
}),
(836,56,o),
(1186,51,o),
(1534,81,c,{
"Letterink-NibData" = {
MainAxisWidth = 110;
MinorAxisWidth = 105;
ValidForParentMainAxisWidth = 30;
ValidForParentMinorAxisWidth = 15;
};
"Letterink-NibStyleId" = 1;
}),
(1392,541,o),
(1216,986,o),
(997,1408,c,{
"Letterink-NibData" = {
MainAxisWidth = 110;
MinorAxisWidth = 105;
ValidForParentMainAxisWidth = 30;
ValidForParentMinorAxisWidth = 15;
};
"Letterink-NibStyleId" = 1;
})
);
},
{
closed = 0;
nodes = (
(776,774,l,{
"Letterink-NibData" = {
MainAxisWidth = 110;
MinorAxisWidth = 105;
ValidForParentMainAxisWidth = 30;
ValidForParentMinorAxisWidth = 15;
};
"Letterink-NibStyleId" = 1;
}),
(1013,614,o),
(1231,410,o),
(1433,173,c,{
"Letterink-NibData" = {
MainAxisWidth = 110;
MinorAxisWidth = 105;
ValidForParentMainAxisWidth = 30;
ValidForParentMinorAxisWidth = 15;
};
"Letterink-NibStyleId" = 1;
})
);
},
{
closed = 0;
nodes = (
(1247,788,l,{
"Letterink-NibData" = {
MainAxisWidth = 110;
MinorAxisWidth = 105;
ValidForParentMainAxisWidth = 30;
ValidForParentMinorAxisWidth = 15;
};
"Letterink-NibStyleId" = 1;
}),
(1071,537,o),
(842,341,o),
(594,162,c,{
"Letterink-NibData" = {
MainAxisWidth = 110;
MinorAxisWidth = 105;
ValidForParentMainAxisWidth = 30;
ValidForParentMinorAxisWidth = 15;
};
"Letterink-NibStyleId" = 1;
})
);
}
);
width = 2000;
}
);
unicode = 989519;
}
{
glyphname = "pini-sp";
layers = (
{
background = {
shapes = (
{
closed = 1;
nodes = (
(907,1315,l),
(907,175,l),
(649,175,l),
(649,0,l),
(1351,0,l),
(1351,175,l),
(1093,175,l),
(1093,1315,l),
(1351,1315,l),
(1351,1490,l),
(649,1490,l),
(649,1315,l)
);
}
);
};
layerId = m01;
shapes = (
{
closed = 0;
nodes = (
(706,1405,l,{
"Letterink-NibData" = {
MainAxisWidth = 110;
MinorAxisWidth = 105;
ValidForParentMainAxisWidth = 30;
ValidForParentMinorAxisWidth = 15;
};
"Letterink-NibStyleId" = 1;
}),
(1305,1433,l,{
"Letterink-NibData" = {
MainAxisWidth = 110;
MinorAxisWidth = 105;
ValidForParentMainAxisWidth = 30;
ValidForParentMinorAxisWidth = 15;
};
"Letterink-NibStyleId" = 1;
})
);
},
{
closed = 0;
nodes = (
(1002,1379,l,{
"Letterink-NibData" = {
MainAxisWidth = 110;
MinorAxisWidth = 105;
ValidForParentMainAxisWidth = 30;
ValidForParentMinorAxisWidth = 15;
};
"Letterink-NibStyleId" = 1;
}),
(1001,141,l,{
"Letterink-NibData" = {
MainAxisWidth = 110;
MinorAxisWidth = 105;
ValidForParentMainAxisWidth = 30;
ValidForParentMinorAxisWidth = 15;
};
"Letterink-NibStyleId" = 1;
})
);
},
{
closed = 0;
nodes = (
(730,83,l,{
"Letterink-NibData" = {
MainAxisWidth = 110;
MinorAxisWidth = 105;
ValidForParentMainAxisWidth = 30;
ValidForParentMinorAxisWidth = 15;
};
"Letterink-NibStyleId" = 1;
}),
(1318,109,l,{
"Letterink-NibData" = {
MainAxisWidth = 110;
MinorAxisWidth = 105;
ValidForParentMainAxisWidth = 30;
ValidForParentMinorAxisWidth = 15;
};
"Letterink-NibStyleId" = 1;
})
);
}
);
width = 2000;
}
);
unicode = 989520;
}
{
glyphname = "pipi-sp";
layers = (
{
background = {
shapes = (
{
closed = 1;
nodes = (
(450,1177,l),
(450,1001,l),
(1550,1001,l),
(1550,1177,l)
);
},
{
closed = 1;
nodes = (
(450,489,l),
(450,313,l),
(1550,313,l),
(1550,489,l)
);
},
{
closed = 1;
nodes = (
(717,1342,o),
(789,1409,o),
(789,1492,cs),
(789,1575,o),
(717,1642,o),
(630,1642,cs),
(544,1642,o),
(472,1575,o),
(472,1492,cs),
(472,1409,o),
(544,1342,o),
(630,1342,cs)
);
},
{
closed = 1;
nodes = (
(1480,1342,o),
(1552,1409,o),
(1552,1492,cs),
(1552,1575,o),
(1480,1642,o),
(1393,1642,cs),
(1307,1642,o),
(1235,1575,o),
(1235,1492,cs),
(1235,1409,o),
(1307,1342,o),
(1393,1342,cs)
);
},
{
closed = 1;
nodes = (
(1088,1490,l),
(912,1490,l),
(912,0,l),
(1088,0,l)
);
},
{
closed = 1;
nodes = (
(450,833,l),
(450,657,l),
(1550,657,l),
(1550,833,l)
);
}
);
};
layerId = m01;
shapes = (
{
closed = 0;
nodes = (
(473,1093,l,{
"Letterink-NibData" = {
MainAxisWidth = 110;
MinorAxisWidth = 105;
ValidForParentMainAxisWidth = 30;
ValidForParentMinorAxisWidth = 15;
};
"Letterink-NibStyleId" = 1;
}),
(758,1074,o),
(1124,1069,o),
(1519,1069,c,{
"Letterink-NibData" = {
MainAxisWidth = 110;
MinorAxisWidth = 105;
ValidForParentMainAxisWidth = 30;
ValidForParentMinorAxisWidth = 15;
};
"Letterink-NibStyleId" = 1;
})
);
},
{
closed = 0;
nodes = (
(997,1426,l,{
"Letterink-NibData" = {
MainAxisWidth = 110;
MinorAxisWidth = 105;
ValidForParentMainAxisWidth = 30;
ValidForParentMinorAxisWidth = 15;
};
"Letterink-NibStyleId" = 1;
}),
(1001,39,l,{
"Letterink-NibData" = {
MainAxisWidth = 110;
MinorAxisWidth = 105;
ValidForParentMainAxisWidth = 30;
ValidForParentMinorAxisWidth = 15;
};
"Letterink-NibStyleId" = 1;
})
);
},
{
closed = 0;
nodes = (
(625,1501,l,{
"Letterink-NibData" = {
MainAxisWidth = 270;
MinorAxisWidth = 235;
ValidForParentMainAxisWidth = 30;
ValidForParentMinorAxisWidth = 15;
};
"Letterink-NibStyleId" = 2;
}),
(633,1490,l,{
"Letterink-NibData" = {
MainAxisWidth = 270;
MinorAxisWidth = 235;
ValidForParentMainAxisWidth = 30;
ValidForParentMinorAxisWidth = 15;
};
"Letterink-NibStyleId" = 2;
})
);
},
{
closed = 0;
nodes = (
(1394,1490,l,{
"Letterink-NibData" = {
MainAxisWidth = 270;
MinorAxisWidth = 235;
ValidForParentMainAxisWidth = 30;
ValidForParentMinorAxisWidth = 15;
};
"Letterink-NibStyleId" = 2;
}),
(1383,1482,l,{
"Letterink-NibData" = {
MainAxisWidth = 270;
MinorAxisWidth = 235;
ValidForParentMainAxisWidth = 30;
ValidForParentMinorAxisWidth = 15;
};
"Letterink-NibStyleId" = 2;
})
);
},
{
closed = 0;
nodes = (
(504,387,l,{
"Letterink-NibData" = {
MainAxisWidth = 110;
MinorAxisWidth = 105;
ValidForParentMainAxisWidth = 30;
ValidForParentMinorAxisWidth = 15;
};
"Letterink-NibStyleId" = 1;
}),
(829,416,o),
(1171,417,o),
(1517,414,c,{
"Letterink-NibData" = {
MainAxisWidth = 110;
MinorAxisWidth = 105;
ValidForParentMainAxisWidth = 30;
ValidForParentMinorAxisWidth = 15;
};
"Letterink-NibStyleId" = 1;
})
);
},
{
closed = 0;
nodes = (
(506,717,l,{
"Letterink-NibData" = {
MainAxisWidth = 110;
MinorAxisWidth = 105;
ValidForParentMainAxisWidth = 30;
ValidForParentMinorAxisWidth = 15;
};
"Letterink-NibStyleId" = 1;
}),
(861,740,o),
(1229,760,o),
(1519,795,c,{
"Letterink-NibData" = {
MainAxisWidth = 110;
MinorAxisWidth = 105;
ValidForParentMainAxisWidth = 30;
ValidForParentMinorAxisWidth = 15;
};
"Letterink-NibStyleId" = 1;
})
);
}
);
width = 2000;
}
);
unicode = 989521;
}
{
glyphname = "poka-sp";
layers = (
{
background = {
shapes = (
{
closed = 1;
nodes = (
(1762,595,o),
(1834,662,o),
(1834,745,cs),
(1834,828,o),
(1762,895,o),
(1675,895,cs),
(1589,895,o),
(1517,828,o),
(1517,745,cs),
(1517,662,o),
(1589,595,o),
(1675,595,cs)
);
},
{
closed = 1;
nodes = (
(1195,1034,l),
(1195,631,l),
(384,631,l),
(384,1034,l),
(198,1034,l),
(198,456,l),
(1381,456,l),
(1381,1034,l)
);
}
);
};
layerId = m01;
shapes = (
{
closed = 0;
nodes = (
(267,958,l,{
"Letterink-NibData" = {
MainAxisWidth = 110;
MinorAxisWidth = 105;
ValidForParentMainAxisWidth = 30;
ValidForParentMinorAxisWidth = 15;
};
"Letterink-NibStyleId" = 1;
}),
(250,814,o),
(249,668,o),
(262,520,c,{
"Letterink-NibData" = {
MainAxisWidth = 110;
MinorAxisWidth = 105;
ValidForParentMainAxisWidth = 30;
ValidForParentMinorAxisWidth = 15;
};
"Letterink-NibStyleId" = 1;
}),
(625,516,o),
(1012,499,o),
(1305,532,c,{
"Letterink-NibData" = {
MainAxisWidth = 110;
MinorAxisWidth = 105;
ValidForParentMainAxisWidth = 30;
ValidForParentMinorAxisWidth = 15;
};
"Letterink-NibStyleId" = 1;
}),
(1326,682,o),
(1325,827,o),
(1306,969,c,{
"Letterink-NibData" = {
MainAxisWidth = 110;
MinorAxisWidth = 105;
ValidForParentMainAxisWidth = 30;
ValidForParentMinorAxisWidth = 15;
};
"Letterink-NibStyleId" = 1;
})
);
},
{
closed = 0;
nodes = (
(1658,763,l,{
"Letterink-NibData" = {
MainAxisWidth = 270;
MinorAxisWidth = 235;
ValidForParentMainAxisWidth = 30;
ValidForParentMinorAxisWidth = 15;
};
"Letterink-NibStyleId" = 2;
}),
(1673,754,l,{
"Letterink-NibData" = {
MainAxisWidth = 270;
MinorAxisWidth = 235;
ValidForParentMainAxisWidth = 30;
ValidForParentMinorAxisWidth = 15;
};
"Letterink-NibStyleId" = 2;
})
);
}
);
width = 2000;
}
);
unicode = 989522;
}
{
glyphname = "poki-sp";
layers = (
{
background = {
shapes = (
{
closed = 1;
nodes = (
(594,1490,l),
(408,1490,l),
(408,0,l),
(1591,0,l),
(1591,1490,l),
(1405,1490,l),
(1405,175,l),
(594,175,l)
);
}
);
};
layerId = m01;
shapes = (
{
closed = 0;
nodes = (
(497,1404,l,{
"Letterink-NibData" = {
MainAxisWidth = 110;
MinorAxisWidth = 105;
ValidForParentMainAxisWidth = 30;
ValidForParentMinorAxisWidth = 15;
};
"Letterink-NibStyleId" = 1;
}),
(478,951,o),
(476,518,o),
(493,103,c,{
"Letterink-NibData" = {
MainAxisWidth = 110;
MinorAxisWidth = 105;
ValidForParentMainAxisWidth = 30;
ValidForParentMinorAxisWidth = 15;
};
"Letterink-NibStyleId" = 1;
}),
(852,64,o),
(1200,62,o),
(1540,96,c,{
"Letterink-NibData" = {
MainAxisWidth = 110;
MinorAxisWidth = 105;
ValidForParentMainAxisWidth = 30;
ValidForParentMinorAxisWidth = 15;
};
"Letterink-NibStyleId" = 1;
}),
(1556,551,o),
(1552,997,o),
(1533,1435,c,{
"Letterink-NibData" = {
MainAxisWidth = 110;
MinorAxisWidth = 105;
ValidForParentMainAxisWidth = 30;
ValidForParentMinorAxisWidth = 15;
};
"Letterink-NibStyleId" = 1;
})
);
}
);
width = 2000;
}
);
unicode = 989523;
}
{
glyphname = "pona-sp";
layers = (
{
background = {
shapes = (
{
closed = 1;
nodes = (
(1560,1117,l),
(1560,797,o),
(1321,548,o),
(1001,548,cs),
(680,548,o),
(440,799,o),
(440,1117,c),
(255,1117,l),
(255,706,o),
(590,373,o),
(1001,373,cs),
(1413,373,o),
(1745,706,o),
(1745,1117,c)
);
}
);
};
layerId = m01;
shapes = (
{
closed = 0;
nodes = (
(342,1077,l,{
"Letterink-NibData" = {
MainAxisWidth = 110;
MinorAxisWidth = 105;
ValidForParentMainAxisWidth = 30;
ValidForParentMinorAxisWidth = 15;
};
"Letterink-NibStyleId" = 1;
}),
(464,244,o),
(1581,251,o),
(1625,1092,c,{
"Letterink-NibData" = {
MainAxisWidth = 110;
MinorAxisWidth = 105;
ValidForParentMainAxisWidth = 30;
ValidForParentMinorAxisWidth = 15;
};
"Letterink-NibStyleId" = 1;
})
);
}
);
width = 2000;
}
);
unicode = 989524;
}
{
glyphname = "pu-sp";
layers = (
{
background = {
shapes = (
{
closed = 1;
nodes = (
(408,0,l),
(1591,0,l),
(1591,1490,l),
(408,1490,l)
);
},
{
closed = 1;
nodes = (
(1441,1350,l),
(1441,140,l),
(558,140,l),
(558,1350,l)
);
},
{
closed = 1;
nodes = (
(1108,586,l),
(1108,521,o),
(1064,476,o),
(1000,476,cs),
(936,476,o),
(891,521,o),
(891,586,c),
(808,586,l),
(808,481,o),
(895,396,o),
(1000,396,cs),
(1105,396,o),
(1191,481,o),
(1191,586,c)
);
},
{
closed = 1;
nodes = (
(1185,217,o),
(1357,359,o),
(1357,590,cs),
(1357,821,o),
(1185,964,o),
(998,964,cs),
(812,964,o),
(639,821,o),
(639,590,cs),
(639,359,o),
(812,217,o),
(998,217,cs)
);
},
{
closed = 1;
nodes = (
(867,331,o),
(758,406,o),
(758,590,cs),
(758,777,o),
(867,852,o),
(998,852,cs),
(1129,852,o),
(1238,777,o),
(1238,590,cs),
(1238,406,o),
(1129,331,o),
(998,331,cs)
);
},
{
closed = 1;
nodes = (
(1060,1273,l),
(940,1273,l),
(940,1015,l),
(1060,1015,l)
);
},
{
closed = 1;
nodes = (
(866,1015,l),
(729,1250,l),
(626,1190,l),
(763,957,l)
);
},
{
closed = 1;
nodes = (
(1374,1190,l),
(1271,1250,l),
(1134,1015,l),
(1237,957,l)
);
}
);
};
layerId = m01;
shapes = (
{
closed = 1;
nodes = (
(469,960,o),
(473,509,o),
(488,66,c,{
"Letterink-NibData" = {
MainAxisWidth = 70;
MinorAxisWidth = 65;
ValidForParentMainAxisWidth = 30;
ValidForParentMinorAxisWidth = 15;
};
}),
(850,60,o),
(1207,58,o),
(1518,82,c,{
"Letterink-NibData" = {
MainAxisWidth = 70;
MinorAxisWidth = 65;
ValidForParentMainAxisWidth = 30;
ValidForParentMinorAxisWidth = 15;
};
}),
(1532,527,o),
(1533,976,o),
(1515,1429,c,{
"Letterink-NibData" = {
MainAxisWidth = 70;
MinorAxisWidth = 65;
ValidForParentMainAxisWidth = 30;
ValidForParentMinorAxisWidth = 15;
};
}),
(1194,1433,o),
(838,1426,o),
(487,1420,c,{
"Letterink-NibData" = {
MainAxisWidth = 70;
MinorAxisWidth = 65;
ValidForParentMainAxisWidth = 30;
ValidForParentMinorAxisWidth = 15;
};
})
);
},
{
closed = 0;
nodes = (
(694,1191,l,{
"Letterink-NibData" = {
MainAxisWidth = 70;
MinorAxisWidth = 65;
ValidForParentMainAxisWidth = 30;
ValidForParentMinorAxisWidth = 15;
};
}),
(738,1138,o),
(774,1072,o),
(804,998,c,{
"Letterink-NibData" = {
MainAxisWidth = 70;
MinorAxisWidth = 65;
ValidForParentMainAxisWidth = 30;
ValidForParentMinorAxisWidth = 15;
};
})
);
},
{
closed = 0;
nodes = (
(997,1271,l,{
"Letterink-NibData" = {
MainAxisWidth = 70;
MinorAxisWidth = 65;
ValidForParentMainAxisWidth = 30;
ValidForParentMinorAxisWidth = 15;
};
}),
(1013,1198,o),
(1012,1120,o),
(992,1037,c,{
"Letterink-NibData" = {
MainAxisWidth = 70;
MinorAxisWidth = 65;
ValidForParentMainAxisWidth = 30;
ValidForParentMinorAxisWidth = 15;
};
})
);
},
{
closed = 0;
nodes = (
(1326,1220,l,{
"Letterink-NibData" = {
MainAxisWidth = 70;
MinorAxisWidth = 65;
ValidForParentMainAxisWidth = 30;
ValidForParentMinorAxisWidth = 15;
};
}),
(1298,1134,o),
(1251,1057,o),
(1190,987,c,{
"Letterink-NibData" = {
MainAxisWidth = 70;
MinorAxisWidth = 65;
ValidForParentMainAxisWidth = 30;
ValidForParentMinorAxisWidth = 15;
};
})
);
},
{
closed = 1;
nodes = (
(1170,269,o),
(1308,412,o),
(1308,589,cs,{
"Letterink-NibData" = {
MainAxisWidth = 70;
MinorAxisWidth = 65;
ValidForParentMainAxisWidth = 30;
ValidForParentMinorAxisWidth = 15;
};
}),
(1308,766,o),
(1170,909,o),
(1001,909,cs,{
"Letterink-NibData" = {
MainAxisWidth = 70;
MinorAxisWidth = 65;
ValidForParentMainAxisWidth = 30;
ValidForParentMinorAxisWidth = 15;
};
}),
(831,909,o),
(694,766,o),
(694,589,cs,{
"Letterink-NibData" = {
MainAxisWidth = 70;
MinorAxisWidth = 65;
ValidForParentMainAxisWidth = 30;
ValidForParentMinorAxisWidth = 15;
};
}),
(694,412,o),
(831,269,o),
(1001,269,cs,{
"Letterink-NibData" = {
MainAxisWidth = 70;
MinorAxisWidth = 65;
ValidForParentMainAxisWidth = 30;
ValidForParentMinorAxisWidth = 15;
};
})
);
},
{
closed = 0;
nodes = (
(840,556,l,{
"Letterink-NibData" = {
MainAxisWidth = 70;
MinorAxisWidth = 65;
ValidForParentMainAxisWidth = 30;
ValidForParentMinorAxisWidth = 15;
};
}),
(895,396,o),
(1105,396,o),
(1153,562,c,{
"Letterink-NibData" = {
MainAxisWidth = 70;
MinorAxisWidth = 65;
ValidForParentMainAxisWidth = 30;
ValidForParentMinorAxisWidth = 15;
};
})
);
}
);
width = 2000;
}
);
unicode = 989525;
}
{
glyphname = "sama-sp";
layers = (
{
background = {
shapes = (
{
closed = 1;
nodes = (
(1650,879,l),
(1650,1045,l),
(350,1045,l),
(350,879,l)
);
},
{
closed = 1;
nodes = (
(1650,445,l),
(1650,611,l),
(350,611,l),
(350,445,l)
);
}
);
};
layerId = m01;
shapes = (
{
closed = 0;
nodes = (
(445,958,l,{
"Letterink-NibData" = {
MainAxisWidth = 110;
MinorAxisWidth = 105;
ValidForParentMainAxisWidth = 30;
ValidForParentMinorAxisWidth = 15;
};
"Letterink-NibStyleId" = 1;
}),
(812,968,o),
(1164,984,o),
(1592,970,c,{
"Letterink-NibData" = {
MainAxisWidth = 110;
MinorAxisWidth = 105;
ValidForParentMainAxisWidth = 30;
ValidForParentMinorAxisWidth = 15;
};
"Letterink-NibStyleId" = 1;
})
);
},
{
closed = 0;
nodes = (
(442,507,l,{
"Letterink-NibData" = {
MainAxisWidth = 110;
MinorAxisWidth = 105;
ValidForParentMainAxisWidth = 30;
ValidForParentMinorAxisWidth = 15;
};
"Letterink-NibStyleId" = 1;
}),
(915,532,o),
(1343,548,o),
(1583,528,c,{
"Letterink-NibData" = {
MainAxisWidth = 110;
MinorAxisWidth = 105;
ValidForParentMainAxisWidth = 30;
ValidForParentMinorAxisWidth = 15;
};
"Letterink-NibStyleId" = 1;
})
);
}
);
width = 2000;
}
);
unicode = 989526;
}
{
glyphname = "seli-sp";
layers = (
{
background = {
shapes = (
{
closed = 1;
nodes = (
(1087,89,o),
(1159,156,o),
(1159,239,cs),
(1159,322,o),
(1087,389,o),
(1000,389,cs),
(914,389,o),
(842,322,o),
(842,239,cs),
(842,156,o),
(914,89,o),
(1000,89,cs)
);
},
{
closed = 1;
nodes = (
(1001,549,l),
(1089,549,l),
(1101,1560,l),
(898,1560,l),
(910,549,l)
);
},
{
closed = 1;
nodes = (
(1306,481,l),
(1386,444,l),
(1824,1355,l),
(1640,1441,l),
(1223,520,l)
);
},
{
closed = 1;
nodes = (
(696,481,l),
(776,518,l),
(359,1439,l),
(175,1353,l),
(613,442,l)
);
}
);
};
layerId = m01;
shapes = (
{
closed = 0;
nodes = (
(988,1530,l,{
"Letterink-NibData" = {
MainAxisWidth = 110;
MinorAxisWidth = 105;
ValidForParentMainAxisWidth = 30;
ValidForParentMinorAxisWidth = 15;
};
"Letterink-NibStyleId" = 1;
}),
(962,1213,o),
(972,901,o),
(1006,591,c,{
"Letterink-NibData" = {
MainAxisWidth = 110;
MinorAxisWidth = 105;
ValidForParentMainAxisWidth = 30;
ValidForParentMinorAxisWidth = 15;
};
"Letterink-NibStyleId" = 1;
})
);
},
{
closed = 0;
nodes = (
(1695,1359,l,{
"Letterink-NibData" = {
MainAxisWidth = 110;
MinorAxisWidth = 105;
ValidForParentMainAxisWidth = 30;
ValidForParentMinorAxisWidth = 15;
};
"Letterink-NibStyleId" = 1;
}),
(1541,1090,o),
(1407,801,o),
(1292,494,c,{
"Letterink-NibData" = {
MainAxisWidth = 110;
MinorAxisWidth = 105;
ValidForParentMainAxisWidth = 30;
ValidForParentMinorAxisWidth = 15;
};
"Letterink-NibStyleId" = 1;
})
);
},
{
closed = 0;
nodes = (
(266,1382,l,{
"Letterink-NibData" = {
MainAxisWidth = 110;
MinorAxisWidth = 105;
ValidForParentMainAxisWidth = 30;
ValidForParentMinorAxisWidth = 15;
};
"Letterink-NibStyleId" = 1;
}),
(383,1070,o),
(520,773,o),
(688,497,c,{
"Letterink-NibData" = {
MainAxisWidth = 110;
MinorAxisWidth = 105;
ValidForParentMainAxisWidth = 30;
ValidForParentMinorAxisWidth = 15;
};
"Letterink-NibStyleId" = 1;
})
);
},
{
closed = 0;
nodes = (
(988,253,l,{
"Letterink-NibData" = {
MainAxisWidth = 270;
MinorAxisWidth = 235;
ValidForParentMainAxisWidth = 30;
ValidForParentMinorAxisWidth = 15;
};
"Letterink-NibStyleId" = 2;
}),
(999,240,l,{
"Letterink-NibData" = {
MainAxisWidth = 270;
MinorAxisWidth = 235;
ValidForParentMainAxisWidth = 30;
ValidForParentMinorAxisWidth = 15;
};
"Letterink-NibStyleId" = 2;
})
);
}
);
width = 2000;
}
);
unicode = 989527;
}
{
glyphname = "selo-sp";
layers = (
{
background = {
shapes = (
{
closed = 1;
nodes = (
(166,1256,l),
(166,234,l),
(352,234,l),
(352,1081,l),
(538,1081,l),
(538,537,l),
(724,537,l),
(724,1081,l),
(1275,1081,l),
(1275,537,l),
(1461,537,l),
(1461,1081,l),
(1647,1081,l),
(1647,234,l),
(1833,234,l),
(1833,1256,l)
);
}
);
};
layerId = m01;
shapes = (
{
closed = 0;
nodes = (
(264,311,l,{
"Letterink-NibData" = {
MainAxisWidth = 110;
MinorAxisWidth = 105;
ValidForParentMainAxisWidth = 30;
ValidForParentMinorAxisWidth = 15;
};
"Letterink-NibStyleId" = 1;
}),
(238,537,o),
(235,827,o),
(244,1158,c,{
"Letterink-NibData" = {
MainAxisWidth = 110;
MinorAxisWidth = 105;
ValidForParentMainAxisWidth = 30;
ValidForParentMinorAxisWidth = 15;
};
"Letterink-NibStyleId" = 1;
}),
(969,1193,o),
(1471,1196,o),
(1764,1172,c,{
"Letterink-NibData" = {
MainAxisWidth = 110;
MinorAxisWidth = 105;
ValidForParentMainAxisWidth = 30;
ValidForParentMinorAxisWidth = 15;
};
"Letterink-NibStyleId" = 1;
}),
(1777,841,o),
(1773,567,o),
(1762,309,c,{
"Letterink-NibData" = {
MainAxisWidth = 110;
MinorAxisWidth = 105;
ValidForParentMainAxisWidth = 30;
ValidForParentMinorAxisWidth = 15;
};
"Letterink-NibStyleId" = 1;
})
);
},
{
closed = 0;
nodes = (
(625,601,l,{
"Letterink-NibData" = {
MainAxisWidth = 110;
MinorAxisWidth = 105;
ValidForParentMainAxisWidth = 30;
ValidForParentMinorAxisWidth = 15;
};
"Letterink-NibStyleId" = 1;
}),
(632,1155,l,{
"Letterink-NibData" = {
MainAxisWidth = 110;
MinorAxisWidth = 105;
ValidForParentMainAxisWidth = 30;
ValidForParentMinorAxisWidth = 15;
};
"Letterink-NibStyleId" = 1;
})
);
},
{
closed = 0;
nodes = (
(1372,601,l,{
"Letterink-NibData" = {
MainAxisWidth = 110;
MinorAxisWidth = 105;
ValidForParentMainAxisWidth = 30;
ValidForParentMinorAxisWidth = 15;
};
"Letterink-NibStyleId" = 1;
}),
(1379,1165,l,{
"Letterink-NibData" = {
MainAxisWidth = 110;
MinorAxisWidth = 105;
ValidForParentMainAxisWidth = 30;
ValidForParentMinorAxisWidth = 15;
};
"Letterink-NibStyleId" = 1;
})
);
}
);
width = 2000;
}
);
unicode = 989528;
}
{
glyphname = "seme-sp";
layers = (
{
background = {
shapes = (
{
closed = 1;
nodes = (
(1050,449,l),
(1050,460,ls),
(1050,637,o),
(1099,686,o),
(1228,765,cs),
(1357,844,o),
(1431,956,o),
(1431,1117,cs),
(1431,1345,o),
(1263,1510,o),
(1004,1510,cs),
(768,1510,o),
(578,1366,o),
(568,1115,c),
(758,1115,l),
(769,1281,o),
(886,1351,o),
(1004,1351,cs),
(1139,1351,o),
(1247,1263,o),
(1247,1124,cs),
(1247,1008,o),
(1179,927,o),
(1091,874,cs),
(953,791,o),
(869,733,o),
(869,460,cs),
(869,449,l)
);
},
{
closed = 1;
nodes = (
(1036,-13,o),
(1096,47,o),
(1096,121,cs),
(1096,196,o),
(1036,256,o),
(962,256,cs),
(887,256,o),
(827,196,o),
(827,121,cs),
(827,47,o),
(887,-13,o),
(962,-13,cs)
);
}
);
};
layerId = m01;
shapes = (
{
closed = 0;
nodes = (
(679,1196,l,{
"Letterink-NibData" = {
MainAxisWidth = 110;
MinorAxisWidth = 105;
ValidForParentMainAxisWidth = 30;
ValidForParentMinorAxisWidth = 15;
};
"Letterink-NibStyleId" = 1;
}),
(694,1524,o),
(1344,1555,o),
(1333,1170,cs,{
"Letterink-NibData" = {
MainAxisWidth = 110;
MinorAxisWidth = 105;
ValidForParentMainAxisWidth = 30;
ValidForParentMinorAxisWidth = 15;
};
"Letterink-NibStyleId" = 1;
}),
(1318,655,o),
(999,869,o),
(951,499,c,{
"Letterink-NibData" = {
MainAxisWidth = 110;
MinorAxisWidth = 105;
ValidForParentMainAxisWidth = 30;
ValidForParentMinorAxisWidth = 15;
};
"Letterink-NibStyleId" = 1;
})
);
},
{
closed = 0;
nodes = (
(952,143,l,{
"Letterink-NibData" = {
MainAxisWidth = 270;
MinorAxisWidth = 235;
ValidForParentMainAxisWidth = 30;
ValidForParentMinorAxisWidth = 15;
};
"Letterink-NibStyleId" = 2;
}),
(959,126,l,{
"Letterink-NibData" = {
MainAxisWidth = 270;
MinorAxisWidth = 235;
ValidForParentMainAxisWidth = 30;
ValidForParentMinorAxisWidth = 15;
};
"Letterink-NibStyleId" = 2;
})
);
}
);
width = 2000;
}
);
unicode = 989529;
}
{
glyphname = "sewi-sp";
layers = (
{
background = {
shapes = (
{
closed = 1;
nodes = (
(1700,0,l),
(1886,0,l),
(1886,1490,l),
(1700,1490,l)
);
},
{
closed = 1;
nodes = (
(942,117,o),
(1042,-24,o),
(1242,-24,cs),
(1442,-24,o),
(1542,117,o),
(1542,350,cs),
(1542,1358,l),
(1356,1358,l),
(1356,350,ls),
(1356,252,o),
(1306,175,o),
(1242,175,cs),
(1178,175,o),
(1128,252,o),
(1128,350,c),
(942,350,l)
);
},
{
closed = 1;
nodes = (
(528,117,o),
(628,-24,o),
(828,-24,cs),
(1028,-24,o),
(1128,117,o),
(1128,350,cs),
(1128,1091,l),
(942,1091,l),
(942,350,ls),
(942,252,o),
(892,175,o),
(828,175,cs),
(764,175,o),
(714,252,o),
(714,350,c),
(528,350,l)
);
},
{
closed = 1;
nodes = (
(114,117,o),
(214,-24,o),
(414,-24,cs),
(614,-24,o),
(714,117,o),
(714,350,cs),
(714,798,l),
(528,798,l),
(528,350,ls),
(528,252,o),
(478,175,o),
(414,175,cs),
(350,175,o),
(300,252,o),
(300,350,c),
(114,350,l)
);
}
);
};
layerId = m01;
shapes = (
{
closed = 0;
nodes = (
(1796,1417,l,{
"Letterink-NibData" = {
MainAxisWidth = 110;
MinorAxisWidth = 105;
ValidForParentMainAxisWidth = 30;
ValidForParentMinorAxisWidth = 15;
};
"Letterink-NibStyleId" = 1;
}),
(1757,58,l,{
"Letterink-NibData" = {
MainAxisWidth = 110;
MinorAxisWidth = 105;
ValidForParentMainAxisWidth = 30;
ValidForParentMinorAxisWidth = 15;
};
"Letterink-NibStyleId" = 1;
})
);
},
{
closed = 0;
nodes = (
(1471,1290,l,{
"Letterink-NibData" = {
MainAxisWidth = 110;
MinorAxisWidth = 105;
ValidForParentMainAxisWidth = 30;
ValidForParentMinorAxisWidth = 15;
};
"Letterink-NibStyleId" = 1;
}),
(1455,305,l,{
"Letterink-NibData" = {
MainAxisWidth = 110;
MinorAxisWidth = 105;
ValidForParentMainAxisWidth = 30;
ValidForParentMinorAxisWidth = 15;
};
"Letterink-NibStyleId" = 1;
}),
(1423,-39,o),
(1067,-12,o),
(1033,293,c,{
"Letterink-NibData" = {
MainAxisWidth = 110;
MinorAxisWidth = 105;
ValidForParentMainAxisWidth = 30;
ValidForParentMinorAxisWidth = 15;
};
"Letterink-NibStyleId" = 1;
}),
(1048,1037,l,{
"Letterink-NibData" = {
MainAxisWidth = 110;
MinorAxisWidth = 105;
ValidForParentMainAxisWidth = 30;
ValidForParentMinorAxisWidth = 15;
};
"Letterink-NibStyleId" = 1;
}),
(994,309,l,{
"Letterink-NibData" = {
MainAxisWidth = 110;
MinorAxisWidth = 105;
ValidForParentMainAxisWidth = 30;
ValidForParentMinorAxisWidth = 15;
};
"Letterink-NibStyleId" = 1;
}),
(926,-24,o),
(655,-12,o),
(621,298,c,{
"Letterink-NibData" = {
MainAxisWidth = 110;
MinorAxisWidth = 105;
ValidForParentMainAxisWidth = 30;
ValidForParentMinorAxisWidth = 15;
};
"Letterink-NibStyleId" = 1;
}),
(630,760,l,{
"Letterink-NibData" = {
MainAxisWidth = 110;
MinorAxisWidth = 105;
ValidForParentMainAxisWidth = 30;
ValidForParentMinorAxisWidth = 15;
};
"Letterink-NibStyleId" = 1;
}),
(593,322,l,{
"Letterink-NibData" = {
MainAxisWidth = 110;
MinorAxisWidth = 105;
ValidForParentMainAxisWidth = 30;
ValidForParentMinorAxisWidth = 15;
};
"Letterink-NibStyleId" = 1;
}),
(509,-39,o),
(265,-22,o),
(228,291,c,{
"Letterink-NibData" = {
MainAxisWidth = 110;
MinorAxisWidth = 105;
ValidForParentMainAxisWidth = 30;
ValidForParentMinorAxisWidth = 15;
};
"Letterink-NibStyleId" = 1;
})
);
}
);
width = 2000;
}
);
unicode = 989530;
}
{
glyphname = "sijelo-sp";
layers = (
{
background = {
shapes = (
{
closed = 1;
nodes = (
(295,1320,l),
(295,298,l),
(481,298,l),
(481,1145,l),
(907,1145,l),
(907,-39,l),
(1093,-39,l),
(1093,1145,l),
(1520,1145,l),
(1520,298,l),
(1706,298,l),
(1706,1320,l)
);
}
);
};
layerId = m01;
shapes = (
{
closed = 0;
nodes = (
(395,364,l,{
"Letterink-NibData" = {
MainAxisWidth = 110;
MinorAxisWidth = 105;
ValidForParentMainAxisWidth = 30;
ValidForParentMinorAxisWidth = 15;
};
"Letterink-NibStyleId" = 1;
}),
(356,625,o),
(353,907,o),
(379,1206,c,{
"Letterink-NibData" = {
MainAxisWidth = 110;
MinorAxisWidth = 105;
ValidForParentMainAxisWidth = 30;
ValidForParentMinorAxisWidth = 15;
};
"Letterink-NibStyleId" = 1;
}),
(812,1249,o),
(1231,1256,o),
(1641,1235,c,{
"Letterink-NibData" = {
MainAxisWidth = 110;
MinorAxisWidth = 105;
ValidForParentMainAxisWidth = 30;
ValidForParentMinorAxisWidth = 15;
};
"Letterink-NibStyleId" = 1;
}),
(1665,964,o),
(1663,685,o),
(1629,396,c,{
"Letterink-NibData" = {
MainAxisWidth = 110;
MinorAxisWidth = 105;
ValidForParentMainAxisWidth = 30;
ValidForParentMinorAxisWidth = 15;
};
"Letterink-NibStyleId" = 1;
})
);
},
{
closed = 0;
nodes = (
(997,1194,l,{
"Letterink-NibData" = {
MainAxisWidth = 110;
MinorAxisWidth = 105;
ValidForParentMainAxisWidth = 30;
ValidForParentMinorAxisWidth = 15;
};
"Letterink-NibStyleId" = 1;
}),
(1032,2,l,{
"Letterink-NibData" = {
MainAxisWidth = 110;
MinorAxisWidth = 105;
ValidForParentMainAxisWidth = 30;
ValidForParentMinorAxisWidth = 15;
};
"Letterink-NibStyleId" = 1;
})
);
}
);
width = 2000;
}
);
unicode = 989531;
}
{
glyphname = "sike-sp";
layers = (
{
background = {
shapes = (
{
closed = 1;
nodes = (
(1382,-20,o),
(1735,272,o),
(1735,744,cs),
(1735,1217,o),
(1382,1510,o),
(1000,1510,cs),
(618,1510,o),
(265,1217,o),
(265,744,cs),
(265,272,o),
(618,-20,o),
(1000,-20,cs)
);
},
{
closed = 1;
nodes = (
(732,156,o),
(450,364,o),
(450,744,cs),
(450,1126,o),
(732,1334,o),
(1000,1334,cs),
(1266,1334,o),
(1550,1126,o),
(1550,744,cs),
(1550,364,o),
(1266,156,o),
(1000,156,cs)
);
},
{
closed = 1;
nodes = (
(889,520,o),
(801,585,o),
(801,745,cs),
(801,905,o),
(889,970,o),
(1000,970,cs),
(1110,970,o),
(1200,905,o),
(1200,745,cs),
(1200,585,o),
(1110,520,o),
(1000,520,cs)
);
},
{
closed = 1;
nodes = (
(1189,344,o),
(1385,491,o),
(1385,745,cs),
(1385,999,o),
(1189,1146,o),
(1000,1146,cs),
(810,1146,o),
(616,999,o),
(616,745,cs),
(616,491,o),
(810,344,o),
(1000,344,cs)
);
}
);
};
layerId = m01;
shapes = (
{
closed = 1;
nodes = (
(1355,57,o),
(1647,363,o),
(1647,740,cs,{
"Letterink-NibData" = {
MainAxisWidth = 110;
MinorAxisWidth = 105;
ValidForParentMainAxisWidth = 30;
ValidForParentMinorAxisWidth = 15;
};
"Letterink-NibStyleId" = 1;
}),
(1647,1116,o),
(1355,1422,o),
(995,1422,cs,{
"Letterink-NibData" = {
MainAxisWidth = 110;
MinorAxisWidth = 105;
ValidForParentMainAxisWidth = 30;
ValidForParentMinorAxisWidth = 15;
};
"Letterink-NibStyleId" = 1;
}),
(634,1422,o),
(342,1116,o),
(342,740,cs,{
"Letterink-NibData" = {
MainAxisWidth = 110;
MinorAxisWidth = 105;
ValidForParentMainAxisWidth = 30;
ValidForParentMinorAxisWidth = 15;
};
"Letterink-NibStyleId" = 1;
}),
(342,363,o),
(634,57,o),
(995,57,cs,{
"Letterink-NibData" = {
MainAxisWidth = 110;
MinorAxisWidth = 105;
ValidForParentMainAxisWidth = 30;
ValidForParentMinorAxisWidth = 15;
};
"Letterink-NibStyleId" = 1;
})
);
},
{
closed = 1;
nodes = (
(1160,426,o),
(1294,566,o),
(1294,740,cs,{
"Letterink-NibData" = {
MainAxisWidth = 110;
MinorAxisWidth = 105;
ValidForParentMainAxisWidth = 30;
ValidForParentMinorAxisWidth = 15;
};
"Letterink-NibStyleId" = 1;
}),
(1294,913,o),
(1160,1053,o),
(995,1053,cs,{
"Letterink-NibData" = {
MainAxisWidth = 110;
MinorAxisWidth = 105;
ValidForParentMainAxisWidth = 30;
ValidForParentMinorAxisWidth = 15;
};
"Letterink-NibStyleId" = 1;
}),
(829,1053,o),
(695,913,o),
(695,740,cs,{
"Letterink-NibData" = {
MainAxisWidth = 110;
MinorAxisWidth = 105;
ValidForParentMainAxisWidth = 30;
ValidForParentMinorAxisWidth = 15;
};
"Letterink-NibStyleId" = 1;
}),
(695,566,o),
(829,426,o),
(995,426,cs,{
"Letterink-NibData" = {
MainAxisWidth = 110;
MinorAxisWidth = 105;
ValidForParentMainAxisWidth = 30;
ValidForParentMinorAxisWidth = 15;
};
"Letterink-NibStyleId" = 1;
})
);
}
);
width = 2000;
}
);
unicode = 989532;
}
{
glyphname = "sin-sp";
layers = (
{
background = {
shapes = (
{
closed = 1;
nodes = (
(1711,514,l),
(1710,348,l),
(1151,348,l),
(1151,514,l)
);
},
{
closed = 1;
nodes = (
(289,348,l),
(289,514,l),
(849,514,l),
(849,348,l)
);
},
{
closed = 1;
nodes = (
(917,1141,l),
(1083,1142,l),
(1083,582,l),
(917,582,l)
);
}
);
};
layerId = m01;
shapes = (
{
closed = 0;
nodes = (
(330,440,l,{
"Letterink-NibData" = {
MainAxisWidth = 110;
MinorAxisWidth = 105;
ValidForParentMainAxisWidth = 30;
ValidForParentMinorAxisWidth = 15;
};
"Letterink-NibStyleId" = 1;
}),
(489,461,o),
(650,473,o),
(815,462,c,{
"Letterink-NibData" = {
MainAxisWidth = 110;
MinorAxisWidth = 105;
ValidForParentMainAxisWidth = 30;
ValidForParentMinorAxisWidth = 15;
};
"Letterink-NibStyleId" = 1;
})
);
},
{
closed = 0;
nodes = (
(998,616,l,{
"Letterink-NibData" = {
MainAxisWidth = 110;
MinorAxisWidth = 105;
ValidForParentMainAxisWidth = 30;
ValidForParentMinorAxisWidth = 15;
};
"Letterink-NibStyleId" = 1;
}),
(1024,801,o),
(1033,982,o),
(1018,1108,c,{
"Letterink-NibData" = {
MainAxisWidth = 110;
MinorAxisWidth = 105;
ValidForParentMainAxisWidth = 30;
ValidForParentMinorAxisWidth = 15;
};
"Letterink-NibStyleId" = 1;
})
);
},
{
closed = 0;
nodes = (
(1178,449,l,{
"Letterink-NibData" = {
MainAxisWidth = 110;
MinorAxisWidth = 105;
ValidForParentMainAxisWidth = 30;
ValidForParentMinorAxisWidth = 15;
};
"Letterink-NibStyleId" = 1;
}),
(1353,415,o),
(1524,406,o),
(1691,419,c,{
"Letterink-NibData" = {
MainAxisWidth = 110;
MinorAxisWidth = 105;
ValidForParentMainAxisWidth = 30;
ValidForParentMinorAxisWidth = 15;
};
"Letterink-NibStyleId" = 1;
})
);
}
);
width = 2000;
}
);
unicode = 989533;
}
{
glyphname = "sina-sp";
layers = (
{
background = {
shapes = (
{
attr = {
identifier = ID0x13ff9b870;
strokeHeight = 176;
strokePos = "1";
strokeWidth = 186;
};
closed = 1;
nodes = (
(728,905,o),
(520,699,o),
(520,437,cs),
(520,175,o),
(728,-30,o),
(993,-30,cs),
(1258,-30,o),
(1467,175,o),
(1467,437,cs),
(1467,699,o),
(1258,905,o),
(993,905,cs)
);
},
{
attr = {
identifier = ID0x13ff9b870;
strokeHeight = 176;
strokeWidth = 186;
};
closed = 0;
nodes = (
(613,437,l),
(610,775,o),
(765,1134,o),
(982,1431,c)
);
}
);
};
layerId = m01;
shapes = (
{
closed = 1;
nodes = (
(775,822,o),
(597,684,o),
(597,459,cs,{
"Letterink-NibData" = {
MainAxisWidth = 110;
MinorAxisWidth = 105;
ValidForParentMainAxisWidth = 30;
ValidForParentMinorAxisWidth = 15;
};
}),
(597,234,o),
(775,51,o),
(996,51,cs,{
"Letterink-NibData" = {
MainAxisWidth = 110;
MinorAxisWidth = 105;
ValidForParentMainAxisWidth = 30;
ValidForParentMinorAxisWidth = 15;
};
}),
(1216,51,o),
(1394,234,o),
(1394,459,cs,{
"Letterink-NibData" = {
MainAxisWidth = 110;
MinorAxisWidth = 105;
ValidForParentMainAxisWidth = 30;
ValidForParentMinorAxisWidth = 15;
};
}),
(1394,684,o),
(1216,822,o),
(996,822,cs,{
"Letterink-NibData" = {
MainAxisWidth = 110;
MinorAxisWidth = 105;
ValidForParentMainAxisWidth = 30;
ValidForParentMinorAxisWidth = 15;
};
})
);
},
{
closed = 0;
nodes = (
(972,1446,l,{
"Letterink-NibData" = {
MainAxisWidth = 110;
MinorAxisWidth = 105;
ValidForParentMainAxisWidth = 30;
ValidForParentMinorAxisWidth = 15;
};
}),
(821,1281,o),
(565,874,o),
(597,484,c,{
"Letterink-NibData" = {
MainAxisWidth = 110;
MinorAxisWidth = 105;
ValidForParentMainAxisWidth = 30;
ValidForParentMinorAxisWidth = 15;
};
})
);
}
);
width = 2000;
}
);
unicode = 989534;
}
{
glyphname = "sinpin-sp";
layers = (
{
background = {
shapes = (
{
closed = 1;
nodes = (
(964,1315,l),
(964,175,l),
(447,175,l),
(447,0,l),
(1150,0,l),
(1150,1490,l),
(447,1490,l),
(447,1315,l)
);
},
{
closed = 1;
nodes = (
(1513,595,o),
(1585,662,o),
(1585,745,cs),
(1585,828,o),
(1513,895,o),
(1426,895,cs),
(1340,895,o),
(1268,828,o),
(1268,745,cs),
(1268,662,o),
(1340,595,o),
(1426,595,cs)
);
}
);
};
layerId = m01;
shapes = (
{
closed = 0;
nodes = (
(507,1412,l,{
"Letterink-NibData" = {
MainAxisWidth = 110;
MinorAxisWidth = 105;
ValidForParentMainAxisWidth = 30;
ValidForParentMinorAxisWidth = 15;
};
"Letterink-NibStyleId" = 1;
}),
(700,1425,o),
(892,1431,o),
(1085,1418,c,{
"Letterink-NibData" = {
MainAxisWidth = 110;
MinorAxisWidth = 105;
ValidForParentMainAxisWidth = 30;
ValidForParentMinorAxisWidth = 15;
};
"Letterink-NibStyleId" = 1;
}),
(1108,961,o),
(1099,515,o),
(1086,70,c,{
"Letterink-NibData" = {
MainAxisWidth = 110;
MinorAxisWidth = 105;
ValidForParentMainAxisWidth = 30;
ValidForParentMinorAxisWidth = 15;
};
"Letterink-NibStyleId" = 1;
}),
(932,52,o),
(746,57,o),
(550,68,c,{
"Letterink-NibData" = {
MainAxisWidth = 110;
MinorAxisWidth = 105;
ValidForParentMainAxisWidth = 30;
ValidForParentMinorAxisWidth = 15;
};
"Letterink-NibStyleId" = 1;
})
);
},
{
closed = 0;
nodes = (
(1418,754,l,{
"Letterink-NibData" = {
MainAxisWidth = 270;
MinorAxisWidth = 235;
ValidForParentMainAxisWidth = 30;
ValidForParentMinorAxisWidth = 15;
};
"Letterink-NibStyleId" = 2;
}),
(1425,745,l,{
"Letterink-NibData" = {
MainAxisWidth = 270;
MinorAxisWidth = 235;
ValidForParentMainAxisWidth = 30;
ValidForParentMinorAxisWidth = 15;
};
"Letterink-NibStyleId" = 2;
})
);
}
);
width = 2000;
}
);
unicode = 989535;
}
{
glyphname = "sitelen-sp";
layers = (
{
background = {
shapes = (
{
closed = 1;
nodes = (
(408,0,l),
(1591,0,l),
(1591,1490,l),
(408,1490,l)
);
},
{
closed = 1;
nodes = (
(1405,1315,l),
(1405,175,l),
(594,175,l),
(594,1315,l)
);
},
{
closed = 1;
nodes = (
(803,595,o),
(849,662,o),
(849,745,cs),
(849,828,o),
(803,895,o),
(746,895,cs),
(690,895,o),
(643,828,o),
(643,745,cs),
(643,662,o),
(690,595,o),
(746,595,cs)
);
},
{
closed = 1;
nodes = (
(1057,595,o),
(1103,662,o),
(1103,745,cs),
(1103,828,o),
(1057,895,o),
(1000,895,cs),
(944,895,o),
(897,828,o),
(897,745,cs),
(897,662,o),
(944,595,o),
(1000,595,cs)
);
},
{
closed = 1;
nodes = (
(1310,595,o),
(1356,662,o),
(1356,745,cs),
(1356,828,o),
(1310,895,o),
(1253,895,cs),
(1197,895,o),
(1150,828,o),
(1150,745,cs),
(1150,662,o),
(1197,595,o),
(1253,595,cs)
);
}
);
};
layerId = m01;
shapes = (
{
closed = 1;
nodes = (
(459,937,o),
(469,498,o),
(494,71,c,{
"Letterink-NibData" = {
MainAxisWidth = 110;
MinorAxisWidth = 105;
ValidForParentMainAxisWidth = 30;
ValidForParentMinorAxisWidth = 15;
};
"Letterink-NibStyleId" = 1;
}),
(867,61,o),
(1219,62,o),
(1515,84,c,{
"Letterink-NibData" = {
MainAxisWidth = 110;
MinorAxisWidth = 105;
ValidForParentMainAxisWidth = 30;
ValidForParentMinorAxisWidth = 15;
};
"Letterink-NibStyleId" = 1;
}),
(1533,528,o),
(1525,969,o),
(1494,1409,c,{
"Letterink-NibData" = {
MainAxisWidth = 110;
MinorAxisWidth = 105;
ValidForParentMainAxisWidth = 30;
ValidForParentMinorAxisWidth = 15;
};
"Letterink-NibStyleId" = 1;
}),
(1156,1432,o),
(821,1425,o),
(486,1409,c,{
"Letterink-NibData" = {
MainAxisWidth = 110;
MinorAxisWidth = 105;
ValidForParentMainAxisWidth = 30;
ValidForParentMinorAxisWidth = 15;
};
"Letterink-NibStyleId" = 1;
})
);
},
{
closed = 0;
nodes = (
(743,791,l,{
"Letterink-NibData" = {
MainAxisWidth = 110;
MinorAxisWidth = 105;
ValidForParentMainAxisWidth = 30;
ValidForParentMinorAxisWidth = 15;
};
"Letterink-NibStyleId" = 1;
}),
(763,676,l,{
"Letterink-NibData" = {
MainAxisWidth = 110;
MinorAxisWidth = 105;
ValidForParentMainAxisWidth = 30;
ValidForParentMinorAxisWidth = 15;
};
"Letterink-NibStyleId" = 1;
})
);
},
{
closed = 0;
nodes = (
(996,791,l,{
"Letterink-NibData" = {
MainAxisWidth = 110;
MinorAxisWidth = 105;
ValidForParentMainAxisWidth = 30;
ValidForParentMinorAxisWidth = 15;
};
"Letterink-NibStyleId" = 1;
}),
(1011,681,l,{
"Letterink-NibData" = {
MainAxisWidth = 110;
MinorAxisWidth = 105;
ValidForParentMainAxisWidth = 30;
ValidForParentMinorAxisWidth = 15;
};
"Letterink-NibStyleId" = 1;
})
);
},
{
closed = 0;
nodes = (
(1249,796,l,{
"Letterink-NibData" = {
MainAxisWidth = 110;
MinorAxisWidth = 105;
ValidForParentMainAxisWidth = 30;
ValidForParentMinorAxisWidth = 15;
};
"Letterink-NibStyleId" = 1;
}),
(1261,681,l,{
"Letterink-NibData" = {
MainAxisWidth = 110;
MinorAxisWidth = 105;
ValidForParentMainAxisWidth = 30;
ValidForParentMinorAxisWidth = 15;
};
"Letterink-NibStyleId" = 1;
})
);
}
);
width = 2000;
}
);
unicode = 989536;
}
{
glyphname = "sona-sp";
layers = (
{
background = {
shapes = (
{
closed = 1;
nodes = (
(536,0,l),
(1463,0,l),
(1463,1054,l),
(536,1054,l)
);
},
{
closed = 1;
nodes = (
(1277,879,l),
(1277,175,l),
(722,175,l),
(722,879,l)
);
},
{
closed = 1;
nodes = (
(1095,1620,l),
(910,1620,l),
(910,1220,l),
(1095,1220,l)
);
},
{
closed = 1;
nodes = (
(794,1220,l),
(582,1584,l),
(422,1491,l),
(634,1128,l)
);
},
{
closed = 1;
nodes = (
(1583,1491,l),
(1423,1584,l),
(1211,1220,l),
(1371,1128,l)
);
}
);
};
layerId = m01;
shapes = (
{
closed = 0;
nodes = (
(530,1486,l,{
"Letterink-NibData" = {
MainAxisWidth = 110;
MinorAxisWidth = 105;
ValidForParentMainAxisWidth = 30;
ValidForParentMinorAxisWidth = 15;
};
"Letterink-NibStyleId" = 1;
}),
(602,1391,o),
(662,1294,o),
(706,1192,c,{
"Letterink-NibData" = {
MainAxisWidth = 110;
MinorAxisWidth = 105;
ValidForParentMainAxisWidth = 30;
ValidForParentMinorAxisWidth = 15;
};
"Letterink-NibStyleId" = 1;
})
);
},
{
closed = 0;
nodes = (
(994,1556,l,{
"Letterink-NibData" = {
MainAxisWidth = 110;
MinorAxisWidth = 105;
ValidForParentMainAxisWidth = 30;
ValidForParentMinorAxisWidth = 15;
};
"Letterink-NibStyleId" = 1;
}),
(1008,1458,o),
(1006,1361,o),
(993,1267,c,{
"Letterink-NibData" = {
MainAxisWidth = 110;
MinorAxisWidth = 105;
ValidForParentMainAxisWidth = 30;
ValidForParentMinorAxisWidth = 15;
};
"Letterink-NibStyleId" = 1;
})
);
},
{
closed = 0;
nodes = (
(1485,1493,l,{
"Letterink-NibData" = {
MainAxisWidth = 110;
MinorAxisWidth = 105;
ValidForParentMainAxisWidth = 30;
ValidForParentMinorAxisWidth = 15;
};
"Letterink-NibStyleId" = 1;
}),
(1432,1390,o),
(1374,1289,o),
(1303,1195,c,{
"Letterink-NibData" = {
MainAxisWidth = 110;
MinorAxisWidth = 105;
ValidForParentMainAxisWidth = 30;
ValidForParentMinorAxisWidth = 15;
};
"Letterink-NibStyleId" = 1;
})
);
},
{
closed = 1;
nodes = (
(886,965,o),
(1124,976,o),
(1360,969,c,{
"Letterink-NibData" = {
MainAxisWidth = 110;
MinorAxisWidth = 105;
ValidForParentMainAxisWidth = 30;
ValidForParentMinorAxisWidth = 15;
};
"Letterink-NibStyleId" = 1;
}),
(1372,581,o),
(1378,259,o),
(1367,102,c,{
"Letterink-NibData" = {
MainAxisWidth = 110;
MinorAxisWidth = 105;
ValidForParentMainAxisWidth = 30;
ValidForParentMinorAxisWidth = 15;
};
"Letterink-NibStyleId" = 1;
}),
(1128,104,o),
(731,97,o),
(650,109,c,{
"Letterink-NibData" = {
MainAxisWidth = 110;
MinorAxisWidth = 105;
ValidForParentMainAxisWidth = 30;
ValidForParentMinorAxisWidth = 15;
};
"Letterink-NibStyleId" = 1;
}),
(637,374,o),
(630,646,o),
(649,944,c,{
"Letterink-NibData" = {
MainAxisWidth = 110;
MinorAxisWidth = 105;
ValidForParentMainAxisWidth = 30;
ValidForParentMinorAxisWidth = 15;
};
"Letterink-NibStyleId" = 1;
})
);
}
);
width = 2000;
}
);
unicode = 989537;
}
